<svg width="71" height="84" viewBox="0 0 71 84" fill="none" xmlns="http://www.w3.org/2000/svg">
<path d="M48.0101 30.8531C52.5067 38.0966 51.222 47.3521 45.4004 53.1066C44.477 54.0322 43.393 54.8773 42.2688 55.6016C39.4183 57.3722 36.2465 58.2575 33.115 58.2978C27.0124 58.4185 21.0302 55.4004 17.5775 49.8068C12.3582 41.3964 14.9277 30.2897 23.3589 25.0584C26.1693 23.2877 29.3008 22.4427 32.3923 22.3622" stroke="#1E1E1E" stroke-width="3" stroke-miterlimit="10"/>
<path d="M61.2593 40.6318H50.7002" stroke="#1E1E1E" stroke-width="3" stroke-miterlimit="10"/>
<path d="M68.4861 42.161L63.9494 44.7767C62.7449 45.4608 61.2996 44.6157 61.2996 43.2475V37.9759C61.2996 36.6077 62.7851 35.7626 63.9494 36.4467L68.4861 39.0624C69.6505 39.7867 69.6505 41.4769 68.4861 42.161Z" stroke="#1E1E1E" stroke-width="3" stroke-miterlimit="10"/>
<path d="M52.4266 22.3622H32.7939" stroke="#1E1E1E" stroke-width="3" stroke-miterlimit="10"/>
<path d="M59.6534 23.9316L55.1166 26.5473C53.9121 27.2314 52.4668 26.3863 52.4668 25.0181V19.7465C52.4668 18.3783 53.9523 17.5332 55.1166 18.2173L59.6534 20.833C60.8177 21.5171 60.8177 23.2072 59.6534 23.9316Z" stroke="#1E1E1E" stroke-width="3" stroke-miterlimit="10"/>
<path d="M32.7939 58.2978H33.1151H45.4006H52.4266" stroke="#1E1E1E" stroke-width="3" stroke-miterlimit="10"/>
<path d="M59.6534 59.8672L55.1166 62.4829C53.9121 63.167 52.4668 62.3219 52.4668 60.9537V55.6821C52.4668 54.3139 53.9523 53.4688 55.1166 54.1529L59.6534 56.7686C60.8177 57.4527 60.8177 59.1429 59.6534 59.8672Z" stroke="#1E1E1E" stroke-width="3" stroke-miterlimit="10"/>
<path d="M2 70.8129V76.0443C2 79.3441 4.6498 82 7.94199 82H39.4586C42.7508 82 45.4006 79.3441 45.4006 76.0443V70.8129H2ZM24.4832 76.3259H22.8772C22.3955 76.3259 21.9538 75.9235 21.9538 75.4406C21.9538 74.9577 22.3553 74.5151 22.8772 74.5151H24.4832C24.965 74.5151 25.4066 74.9175 25.4066 75.4406C25.4066 75.9235 25.0051 76.3259 24.4832 76.3259Z" stroke="#1E1E1E" stroke-width="3" stroke-miterlimit="10"/>
<path d="M39.4586 2H7.94199C4.6498 2 2 4.65594 2 7.95573V12.5433H45.4006V7.95573C45.4006 4.65594 42.7106 2 39.4586 2ZM27.6148 9.44467H19.7858C19.304 9.44467 18.9025 9.04225 18.9025 8.55936C18.9025 8.07646 19.304 7.6338 19.7858 7.6338H27.6148C28.0966 7.6338 28.498 8.03622 28.498 8.55936C28.498 9.04225 28.0966 9.44467 27.6148 9.44467Z" stroke="#1E1E1E" stroke-width="3" stroke-miterlimit="10"/>
<path d="M28.4981 8.51912C28.4981 9.00202 28.0966 9.40443 27.6148 9.40443H19.7859C19.3041 9.40443 18.9026 9.00202 18.9026 8.51912C18.9026 8.03622 19.3041 7.59357 19.7859 7.59357H27.6148C28.0966 7.63381 28.4981 8.03622 28.4981 8.51912Z" stroke="#1E1E1E" stroke-width="3" stroke-miterlimit="10"/>
<path d="M25.4066 75.4406C25.4066 75.9235 25.0051 76.3259 24.4832 76.3259H22.8773C22.3955 76.3259 21.9539 75.9235 21.9539 75.4406C21.9539 74.9577 22.3553 74.5151 22.8773 74.5151H24.4832C25.0051 74.5151 25.4066 74.9175 25.4066 75.4406Z" stroke="#1E1E1E" stroke-width="3" stroke-miterlimit="10"/>
<path d="M47.5285 40.3501C47.5285 43.167 46.7255 45.7827 45.4006 48.0362C42.8311 52.3018 38.1337 55.159 32.794 55.159C24.6438 55.159 18.0193 48.5191 18.0193 40.3501C18.0193 32.1811 24.6438 25.5413 32.794 25.5413C38.1337 25.5413 42.8311 28.3984 45.4006 32.664C46.7656 34.8773 47.5285 37.5332 47.5285 40.3501Z" stroke="#1E1E1E" stroke-width="3" stroke-miterlimit="10"/>
<path d="M45.4006 59.827V70.8129H2V12.5433H45.4006V21.1549" stroke="#1E1E1E" stroke-width="3" stroke-miterlimit="10"/>
<path d="M38.0935 43.2072C38.0935 44.3742 37.6921 45.501 36.9292 46.3461C36.3672 46.9899 35.6846 47.4728 34.8415 47.7545V49.3239C34.8415 49.8068 34.44 50.2093 33.9582 50.2093H31.6698C31.188 50.2093 30.7865 49.8068 30.7865 49.3239V47.996C30.5456 47.9557 30.2646 47.8753 30.0237 47.7948C29.301 47.5936 28.6988 47.3119 28.217 46.9497L27.8958 46.7083C27.5746 46.4668 27.4542 46.0644 27.5746 45.662L28.4177 43.328C28.498 43.0865 28.6988 42.8451 28.9798 42.7646C29.2609 42.6841 29.5419 42.7243 29.7426 42.8853L30.2646 43.2475C30.7464 43.5694 31.5493 43.9316 32.4727 43.8913C32.8341 43.8913 33.1553 43.8109 33.356 43.6499C33.4765 43.5292 33.5166 43.4487 33.5166 43.2475C33.5166 43.1268 33.4765 43.0865 33.4765 43.006C33.4363 42.9658 33.4363 42.8853 33.3159 42.8048C33.1954 42.6841 32.8341 42.4024 32.0713 42.0805C31.1077 41.6781 30.385 41.3159 29.7828 40.9135C29.02 40.3501 28.4579 39.7062 28.1367 38.9819C27.8958 38.4588 27.7754 37.8551 27.7754 37.2113C27.7754 36.004 28.217 34.9175 29.02 34.0724C29.5419 33.5493 30.1843 33.1066 30.907 32.8249V31.2958C30.907 30.8129 31.3084 30.4105 31.7902 30.4105H34.0787C34.5605 30.4105 34.962 30.8129 34.962 31.2958V32.5433C35.6846 32.7042 36.3672 32.9457 36.9694 33.3078L37.3307 33.5091C37.6921 33.7505 37.8928 34.1932 37.7322 34.5956L36.8489 36.8893C36.7686 37.1308 36.5679 37.332 36.327 37.4125C36.0861 37.493 35.8051 37.493 35.5642 37.332L35.0423 37.0503C34.8415 36.9296 34.6408 36.8089 34.3196 36.7284C33.9582 36.6076 33.5568 36.5272 33.1151 36.5272C32.7939 36.5272 32.5129 36.6076 32.3924 36.7284C32.3523 36.7686 32.3122 36.8491 32.3122 36.9296C32.3122 37.0101 32.3122 37.0503 32.3122 37.0503C32.3122 37.0905 32.3523 37.1308 32.4326 37.171C32.5932 37.332 32.9947 37.5734 33.9582 37.9759C33.9984 37.9759 34.0385 38.0161 34.0385 38.0161C35.0021 38.4185 35.7248 38.8209 36.2869 39.3038C36.9694 39.8672 37.4913 40.5513 37.7724 41.3561C38.0132 42 38.0935 42.5634 38.0935 43.2072Z" stroke="#1E1E1E" stroke-width="3" stroke-miterlimit="10"/>
</svg>
