<svg width="233" height="164" viewBox="0 0 233 164" fill="none" xmlns="http://www.w3.org/2000/svg">
<path d="M23.1692 162V2H116.235V33.5033M180.923 162V116.181V162Z" stroke="#313131" stroke-width="4" stroke-miterlimit="10"/>
<path d="M65.3212 25.4697H45.4133V42.5604H65.3212V25.4697Z" stroke="#313131" stroke-width="4" stroke-miterlimit="10"/>
<path d="M93.8932 25.4697H73.9854V42.5604H93.8932V25.4697Z" stroke="#313131" stroke-width="4" stroke-miterlimit="10"/>
<path d="M93.8932 47.7212H73.9854V64.8119H93.8932V47.7212Z" stroke="#313131" stroke-width="4" stroke-miterlimit="10"/>
<path d="M93.8932 87.0151H73.9854V104.106H93.8932V87.0151Z" stroke="#313131" stroke-width="4" stroke-miterlimit="10"/>
<path d="M93.8932 126.065H73.9854V143.156H93.8932V126.065Z" stroke="#313131" stroke-width="4" stroke-miterlimit="10"/>
<path d="M65.3212 126.065H45.4133V143.156H65.3212V126.065Z" stroke="#313131" stroke-width="4" stroke-miterlimit="10"/>
<path d="M169.728 124.215H149.82V141.306H169.728V124.215Z" stroke="#313131" stroke-width="4" stroke-miterlimit="10"/>
<path d="M0 162H204.092" stroke="#313131" stroke-width="4" stroke-miterlimit="10"/>
<path d="M177.273 82.1456C177.273 83.8985 176.445 85.2618 174.887 86.2357C174.595 86.4304 174.303 86.5765 174.011 86.7226V78.3477C176.202 78.9806 177.321 80.2466 177.273 82.1456Z" stroke="#313131" stroke-width="4" stroke-miterlimit="10"/>
<path d="M218.743 32.7239H200.831V28.8286C200.831 20.5998 194.114 13.8804 185.888 13.8804H153.179C144.953 13.8804 138.236 20.5998 138.236 28.8286V32.7239H120.323C118.863 32.7239 117.5 32.9674 116.235 33.4543C111.757 35.1098 108.593 39.4433 108.593 44.4585V104.398C108.593 110.874 113.85 116.132 120.323 116.132H218.743C225.217 116.132 230.474 110.874 230.474 104.398V44.5072C230.474 38.0313 225.217 32.7239 218.743 32.7239ZM183.649 94.2211C183.649 94.2698 183.649 94.2698 183.649 94.2211C182.773 94.8054 181.897 95.2923 180.923 95.7305C179.414 96.4122 177.808 96.9478 176.104 97.3374V99.3337C176.104 101.72 174.157 103.667 171.772 103.667H167.732C165.347 103.667 163.4 101.72 163.4 99.3337V97.2887C160.09 96.5096 157.024 95.0489 154.298 92.9551C152.351 91.4944 150.794 89.8876 149.577 88.2808C148.993 87.5504 148.652 86.7226 148.652 85.7975C148.652 85.0184 148.847 84.2394 149.285 83.6064C149.625 83.0708 150.112 82.6326 150.745 82.2917L154.882 79.8572C154.931 79.8085 154.98 79.8085 155.028 79.7598C155.077 79.7598 155.077 79.7111 155.126 79.7111C155.661 79.4676 156.488 79.1755 157.17 79.1755C158.533 79.1755 159.75 79.7598 160.577 80.7823C161.502 81.7561 162.427 82.5839 163.352 83.2656V78.932C158.387 77.8608 154.639 75.6697 152.205 72.4074C150.55 70.2163 149.625 67.5869 149.577 64.7141C149.479 60.6728 151.037 55.1219 158.874 51.5675C160.236 50.9345 161.697 50.4476 163.352 50.1067V47.6722C163.352 45.2863 165.299 43.3386 167.684 43.3386H171.724C174.109 43.3386 176.056 45.2863 176.056 47.6722V50.2528C180.193 51.324 183.697 53.4178 186.423 56.534C187.202 57.3131 187.64 58.2869 187.591 59.3581C187.543 60.6728 186.861 61.8414 185.644 62.6204L181.069 65.4932C181.02 65.4932 181.02 65.5419 180.972 65.5419C180.923 65.5419 180.874 65.5906 180.874 65.5906C180.582 65.7367 179.56 66.2236 178.538 66.2236C177.613 66.2236 176.737 65.9801 176.007 65.5419V67.4409C181.069 68.4634 184.963 70.5084 187.543 73.6247C189.441 75.9618 190.366 78.7859 190.317 82.0483C190.317 87.2582 188.078 91.3483 183.649 94.2211ZM191.193 34.8663C191.193 36.0349 190.22 37.0088 189.052 37.0088H149.966C148.798 37.0088 147.824 36.0349 147.824 34.8663V28.8286C147.824 25.9071 150.209 23.5213 153.13 23.5213H185.839C188.76 23.5213 191.145 25.9071 191.145 28.8286V34.8663H191.193Z" stroke="#313131" stroke-width="4" stroke-miterlimit="10"/>
<path d="M191.193 28.8288V34.8666C191.193 36.0352 190.22 37.009 189.052 37.009H149.966C148.798 37.009 147.824 36.0352 147.824 34.8666V28.8288C147.824 25.9074 150.209 23.5215 153.13 23.5215H185.839C188.808 23.5215 191.193 25.9074 191.193 28.8288Z" stroke="#313131" stroke-width="4" stroke-miterlimit="10"/>
<path d="M187.64 73.722C185.012 70.6058 181.167 68.5608 176.105 67.5382V65.6393C176.883 66.0775 177.711 66.321 178.636 66.321C179.658 66.321 180.68 65.8341 180.972 65.688C181.021 65.688 181.021 65.6393 181.069 65.6393C181.118 65.6393 181.118 65.5906 181.167 65.5906L185.742 62.7178C186.959 61.9387 187.64 60.7702 187.689 59.4555C187.689 58.3843 187.3 57.4105 186.521 56.6314C183.747 53.5151 180.291 51.4214 176.153 50.3502V47.7696C176.153 45.3837 174.206 43.436 171.821 43.436H167.781C165.396 43.436 163.449 45.3837 163.449 47.7696V50.2041C161.843 50.545 160.334 51.0319 158.971 51.6649C151.135 55.2193 149.577 60.7702 149.674 64.8115C149.723 67.6843 150.599 70.265 152.303 72.5048C154.737 75.7671 158.484 77.9582 163.449 79.0294V83.3629C162.476 82.6813 161.551 81.9022 160.675 80.8797C159.847 79.8572 158.63 79.2729 157.268 79.2729C156.586 79.2729 155.759 79.565 155.223 79.8085C155.175 79.8085 155.175 79.8572 155.126 79.8572C155.077 79.9059 155.029 79.9058 154.98 79.9545L150.843 82.3891C150.21 82.7299 149.723 83.2169 149.382 83.7038C148.944 84.3368 148.75 85.0671 148.75 85.8949C148.75 86.82 149.09 87.6478 149.674 88.3781C150.891 90.0337 152.449 91.5918 154.396 93.0525C157.122 95.1462 160.188 96.5583 163.498 97.386V99.4311C163.498 101.817 165.445 103.765 167.83 103.765H171.87C174.255 103.765 176.202 101.817 176.202 99.4311V97.4347C177.906 97.0452 179.561 96.5096 181.021 95.8279C181.994 95.3897 182.87 94.9028 183.747 94.3185C188.127 91.397 190.415 87.3556 190.512 82.243C190.512 78.8833 189.539 76.0592 187.64 73.722ZM162.816 64.8115C162.816 63.4482 163.595 62.377 165.202 61.5979C165.299 61.5492 165.396 61.5005 165.494 61.4518V68.2199C163.693 67.5869 162.816 66.4184 162.816 64.8115ZM174.888 86.187C174.596 86.3818 174.304 86.5279 174.012 86.6253V78.2503C176.202 78.932 177.322 80.2467 177.322 82.097C177.322 82.6326 177.224 83.1682 177.078 83.6551C176.689 84.6776 175.959 85.554 174.888 86.187Z" stroke="#313131" stroke-width="4" stroke-miterlimit="10"/>
<path d="M165.493 61.5005V68.2686C163.741 67.5869 162.816 66.4183 162.816 64.8115C162.816 63.4481 163.595 62.3769 165.201 61.5979C165.298 61.5492 165.396 61.5492 165.493 61.5005Z" stroke="#313131" stroke-width="4" stroke-miterlimit="10"/>
</svg>
