<svg id="Layer_1" data-name="Layer 1" xmlns="http://www.w3.org/2000/svg" viewBox="0 0 1702.31 338.9">
  <title>ceo-sign</title>
  <g id="path-one">
    <path d="M199.33,232.37c-2,2.27-3.91,4.6-5.73,7a64.42,64.42,0,0,0-4.91,7.31l-1,1.94a23.4,23.4,0,0,1-1.19,2.14,46.19,46.19,0,0,1-2.81,4q-1.51,1.88-3.2,3.6a38,38,0,0,1-3.63,3.33l-3.77-5.19c3.11-2.47,6.17-4.61,9.32-6.79s6.31-4.22,9.53-6.22c6.43-4,12.95-7.84,19.62-11.45s13.56-6.83,20.47-9.89,13.91-5.8,20.93-8.54,14-5.45,21-8.26,13.88-5.78,20.73-8.86q5.15-2.31,10.24-4.69l10.18-4.85c6.76-3.3,13.48-6.67,20.21-10.05l4.08,2.39a112.72,112.72,0,0,1,.83,13.51,125.66,125.66,0,0,1-.65,13.43l-.38,3.35c-.14,1.11-.34,2.22-.51,3.33l-.54,3.33-.69,3.32c-.24,1.1-.45,2.21-.72,3.3l-.88,3.28c-.3,1.09-.56,2.19-.89,3.27l-1.06,3.24-1.06,3.23L331.6,239l-1.27,3.18c-.43,1-1,2.06-1.45,3.1a117,117,0,0,1-6.56,12c-4.67,7.47-9.68,14.72-14.92,21.81s-10.72,14-16.5,20.65c-2.86,3.36-5.84,6.62-8.79,9.89s-6.09,6.39-9.27,9.46a215.88,215.88,0,0,1-19.9,17.47,143.7,143.7,0,0,1-22.17,14.38.5.5,0,0,1-.68-.22.51.51,0,0,1,.14-.62,230.21,230.21,0,0,0,19.37-17.34c3.08-3,6-6.2,9-9.32s5.77-6.41,8.57-9.69c11.23-13.08,21.67-26.83,31.64-40.91,5-7,9.91-14.12,14.71-21.29a109.42,109.42,0,0,0,11.4-22.15l1.1-2.93c.35-1,.64-2,1-3l.94-3c.3-1,.53-2,.8-3l.81-3.06.68-3.09c.21-1,.46-2.06.65-3.1l.54-3.12c.43-2.08.66-4.18,1-6.28.15-1.05.24-2.11.37-3.16s.25-2.11.33-3.17a105.63,105.63,0,0,0,.52-12.63l4.08,2.39c-14.06,5.31-28,10.82-41.74,17q-10.29,4.59-20.36,9.64c-3.36,1.69-6.68,3.44-10,5.16l-10,5.29c-3.32,1.76-6.61,3.58-9.94,5.3s-6.62,3.53-10,5.22c-6.62,3.45-13.4,6.71-19.93,10.07s-13.18,7-19.68,10.57c-3.26,1.8-6.51,3.61-9.72,5.48q-2.41,1.39-4.79,2.82c-1.57,1-3.2,1.93-4.65,2.87l-3.77-5.19c1.05-.69,2.25-1.6,3.34-2.48s2.18-1.84,3.19-2.83a38.27,38.27,0,0,0,2.85-3.14c.43-.55.87-1.1,1.26-1.67l.67-.94c.24-.33.46-.67.71-1a51.71,51.71,0,0,1,6.39-6.87,74.89,74.89,0,0,1,7.12-5.84.49.49,0,0,1,.7.11.5.5,0,0,1,0,.62Z" transform="translate(-173.09 -51.22)"/>
  </g>
  <path id="path-two" d="M328.5,307.5a39.08,39.08,0,0,1,4-5" transform="translate(-173.09 -51.22)" style={{ fill: "none",stroke: "#000",strokeLinecap: "round",strokeLinejoin: "round",strokeWidth: "10px" }}/>
  <g id="path-three">
    <path d="M445.35,248.36l-13.66,15.91-3.33,4c-1.11,1.33-2.22,2.67-3.28,4S423,275,422,276.35c-.47.67-.94,1.36-1.31,2a9.51,9.51,0,0,0-.5.92l-.14.33c0,.08,0,0,0,0v0l-4.55-3.39q23.66-13.8,47.89-26.49c8.06-4.26,16.19-8.4,24.42-12.33s16.56-7.67,24.92-11.35l12.54-5.49L537.82,215q12.49-5.6,24.85-11.46L575,197.72c4.12-2,8.26-3.91,12.41-5.83s8.33-3.81,12.57-5.63c2.14-.89,4.28-1.76,6.52-2.55,1.12-.39,2.26-.76,3.47-1.09.63-.14,1.22-.31,1.93-.41l1.07-.15c.45,0,.91,0,1.36,0l2.15,4.46c-5.17,9.21-10.55,18.18-16.24,27s-11.63,17.46-17.81,26c-12.27,17-25.16,33.7-39.56,49.13l-5.45,5.74c-1.81,1.92-3.65,3.81-5.56,5.63-3.81,3.67-7.49,7.45-11.52,10.89s-7.9,7.06-11.89,10.39l-12,10.05c-4,3.37-8,6.67-12,10l-12.06,10-12.08,10-6,5c-2,1.67-4.05,3.33-5.93,5.05l0,0a.5.5,0,0,1-.7,0,.51.51,0,0,1,0-.66c3.36-4.13,6.92-7.91,10.49-11.76s7.22-7.59,10.89-11.31,7.35-7.44,11.08-11.1,7.43-7.36,11.21-11l11.31-10.85c3.86-3.57,7.51-7.18,11.18-10.78l2.76-2.69c.92-.9,1.78-1.87,2.68-2.8l5.35-5.57c.89-.93,1.8-1.84,2.66-2.8l2.6-2.87,5.22-5.71c13.76-15.39,27.06-31.28,39.74-47.7l4.74-6.17,4.66-6.23c3.12-4.14,6.17-8.35,9.23-12.54l4.59-6.29,4.55-6.33c3-4.22,6-8.48,8.92-12.74l2.15,4.46a1.45,1.45,0,0,1-.35,0l-.62,0c-.43,0-.95.12-1.43.19-1,.18-2.07.43-3.13.7-2.12.55-4.26,1.23-6.4,1.92-4.27,1.41-8.51,3-12.74,4.68s-8.4,3.46-12.58,5.25-8.29,3.74-12.43,5.64c-16.5,7.68-32.5,16.43-48.35,25.44-7.93,4.48-15.87,9-23.87,13.3s-16.09,8.53-24.23,12.62q-24.36,12.34-49,24.11l-4.55-3.39c.06-.21.13-.43.2-.65a4.37,4.37,0,0,1,.23-.58c.14-.28.29-.58.44-.84.29-.46.59-.93.88-1.31.59-.81,1.18-1.51,1.78-2.22,1.2-1.39,2.43-2.69,3.67-4s2.49-2.53,3.74-3.77l3.86-3.62c2.58-2.39,5.18-4.74,7.85-7s5.34-4.55,8.08-6.75a.5.5,0,0,1,.7.72Z" transform="translate(-173.09 -51.22)"/>
  </g>
  <g id="path-four">
    <path d="M535.74,317.58c10.43-7.6,21-14.93,31.72-22.12l8-5.39,8.06-5.32,8.07-5.32,8.12-5.23q16.21-10.49,32.62-20.68c10.91-6.81,22-13.46,33.11-19.75,22.21-12.86,44.66-25.59,66.22-39.61q16.2-10.49,32.07-21.49c10.57-7.34,21-14.84,31.49-22.33l4,4.92c-3.87,4.25-7.65,8.81-11.38,13.32s-7.36,9.14-11,13.75Q766,196.19,756,210.62q-5,7.22-9.92,14.54l-4.74,7.35L736.71,240c-6.06,10-11.73,20.19-17.18,30.54S709,291.42,704.26,302.09c-1.19,2.66-2.33,5.35-3.43,8l-.4,1a3.48,3.48,0,0,0-.24.69l-.61,2.07-1.19,4.18c-1.54,5.6-2.9,11.26-4,16.94a93.28,93.28,0,0,0-1.93,16.92,23.91,23.91,0,0,0,1,7.66,12.94,12.94,0,0,0,1.75,3.15,21,21,0,0,0,2.7,2.81c4.12,3.47,9.47,5.92,14.93,7.73a72.9,72.9,0,0,0,8.41,2.27c1.43.29,2.86.55,4.3.74a22.39,22.39,0,0,0,4.3.24l.16,1a22.83,22.83,0,0,1-4.56.38c-1.5,0-3-.05-4.51-.18a73.27,73.27,0,0,1-8.94-1.32,61.44,61.44,0,0,1-8.78-2.56,44.83,44.83,0,0,1-4.28-1.88,35.16,35.16,0,0,1-4.08-2.47,25.48,25.48,0,0,1-3.74-3.27,18.38,18.38,0,0,1-3-4.33,28.13,28.13,0,0,1-2.2-9.68,72.24,72.24,0,0,1,0-9.3c.15-3.06.43-6.08.83-9.09.77-6,1.85-11.93,3.11-17.81.31-1.47.64-2.94,1-4.41l.56-2.21.17-.65c.11-.34.17-.5.26-.76l.39-1.09c1-2.84,2.08-5.64,3.18-8.42,2.21-5.57,4.47-11.1,6.94-16.54,1.21-2.74,2.5-5.44,3.74-8.15s2.6-5.39,3.94-8.06c5.34-10.69,11.22-21.13,17.55-31.3,1.62-2.51,3.23-5,4.87-7.54l5.06-7.44,5.17-7.29c1.73-2.42,3.53-4.8,5.29-7.2,7.14-9.54,14.47-18.94,22.21-28a355,355,0,0,1,24.48-26.18l4,4.92c-11,6.73-22,13.4-32.94,20.2-5.44,3.43-10.9,6.85-16.31,10.33s-10.83,6.95-16.18,10.52c-10.76,7.07-21.35,14.38-31.9,21.78s-21,14.9-31.8,22S648,254.52,637,261.19s-22,13.26-33.15,19.74l-8.32,4.88-8.38,4.79-8.38,4.79-8.43,4.72c-11.23,6.29-22.55,12.44-34,18.31Z" transform="translate(-173.09 -51.22)"/>
  </g>
  <g id="path-five">
    <path d="M746.05,297.5a75,75,0,0,0,14.9-1.89c1.22-.29,2.44-.52,3.65-.85l3.62-1,1.81-.5c.59-.18,1.18-.4,1.78-.59l3.54-1.21a140.42,140.42,0,0,0,13.77-5.85c1.12-.55,2.27-1,3.36-1.63l3.27-1.82,3.26-1.82c1.11-.57,2.16-1.24,3.21-1.91l6.31-4c2.07-1.39,4.05-2.91,6.08-4.35l3-2.2c1-.7,1.93-1.57,2.92-2.33l5.79-4.71,1.45-1.18c.47-.41.92-.84,1.38-1.26l2.75-2.54,5.49-5.07,10.43-10.74L846.68,243a47.13,47.13,0,0,0-1.4-11.34,7.34,7.34,0,0,0-.72-1.71c-.08-.13-.09,0,.22.17a2.11,2.11,0,0,0,.3.16,1.23,1.23,0,0,0,.41.13,1.3,1.3,0,0,0,.44.06c.11,0,.06,0,.07,0h0l-.32.06c-.14,0-.36.08-.55.13-.38.08-.84.23-1.26.35-.87.28-1.77.59-2.66.93a52.32,52.32,0,0,0-19.06,13,41.43,41.43,0,0,0-10.23,20.42,53.45,53.45,0,0,0-.83,11.83,75.15,75.15,0,0,0,1.66,12l-1-1.51.07.07.19.13c.14.08.24.17.4.26l.9.52c.66.3,1.28.67,2,.92a39.94,39.94,0,0,0,4.33,1.44c1.52.3,3,.73,4.59.89l2.33.33c.78.08,1.58.11,2.37.18l2.37.16h2.4a45.42,45.42,0,0,0,4.8-.14c1.6-.13,3.2-.22,4.8-.39l4.8-.66c1.6-.17,3.18-.53,4.77-.83s3.18-.64,4.76-1c3.13-.85,6.3-1.58,9.4-2.55l4.64-1.49c1.54-.52,3.11-1,4.62-1.58l9.12-3.5,2,.82a35.81,35.81,0,0,0,4.3,6.64,40.23,40.23,0,0,0,5.64,5.66,35.55,35.55,0,0,0,14,7.12,40.22,40.22,0,0,0,7.8,1.14,50.06,50.06,0,0,0,7.92-.41c5.52-.71,11-1.43,16.46-2.24a196.09,196.09,0,0,0,31.9-7.24,200.06,200.06,0,0,0,30-12.68c2.44-1.2,4.82-2.57,7.23-3.85l7.37-4c4.94-2.64,9.91-5.2,14.83-7.74,9.82-5.11,19.5-10.12,28.23-16.32a151.26,151.26,0,0,0,24.16-21.1,269.82,269.82,0,0,0,20.52-25.29l-.9,3.49,0,.2v0h0s0-.06,0-.1,0-.1-.06-.1,0-.06-.24-.16a7.43,7.43,0,0,0-3.5.23,26.31,26.31,0,0,0-5,1.86l-1.28.61-1.28.69-1.27.7-1.27.76a108.67,108.67,0,0,0-10,6.83c-1.64,1.21-3.24,2.5-4.84,3.78s-3.19,2.6-4.78,3.91c-6.33,5.3-12.43,10.94-18.48,16.66s-12,11.62-17.87,17.52l.19-.23c-.18.23-.51.71-.76,1.12s-.52.89-.79,1.33c-.49.92-1,1.86-1.4,2.85s-.81,2-1.21,3-.69,2.06-1.05,3.09a78.62,78.62,0,0,0-2.64,12.93l-.36,3.32-.2,3.34-.1,1.68,0,1.68,0,3.36c0,2.24.17,4.49.22,6.75l.54,6.75-1,.16-1.31-6.72c-.31-2.26-.66-4.52-.91-6.8a97.65,97.65,0,0,1-.5-13.8,74.34,74.34,0,0,1,1.68-13.87c.29-1.15.55-2.3.88-3.44s.67-2.27,1.11-3.39.87-2.25,1.36-3.37c.28-.55.52-1.1.83-1.66a16.27,16.27,0,0,1,1-1.76l.19-.23c5.53-6.34,11.13-12.64,16.92-18.77s11.78-12.13,18-17.91c3.14-2.88,6.32-5.72,9.69-8.41a116.74,116.74,0,0,1,10.51-7.74l1.39-.9,1.46-.86,1.46-.86,1.53-.79a35.67,35.67,0,0,1,6.7-2.74,20,20,0,0,1,4-.76,13.78,13.78,0,0,1,2.32,0,10.7,10.7,0,0,1,1.24.14c.44.09.88.19,1.31.3a10.49,10.49,0,0,1,6.69,5.6,11,11,0,0,1,.54,1.38,7.19,7.19,0,0,1,.21.74,2.09,2.09,0,0,1,.09.41l0,.22,0,.37-.9,3.49a239.52,239.52,0,0,1-21.06,26.72,147.44,147.44,0,0,1-26.06,22.49c-1.17.84-2.39,1.59-3.61,2.34l-3.65,2.28c-2.49,1.39-4.94,2.88-7.45,4.19s-5,2.66-7.51,3.9-5,2.5-7.52,3.72c-5,2.44-10,4.84-14.91,7.31l-7.36,3.77c-2.53,1.26-5,2.6-7.58,3.79a183.79,183.79,0,0,1-31.79,12.06c-2.74.78-5.52,1.4-8.28,2s-5.57,1.11-8.37,1.53c-5.59.89-11.18,1.56-16.76,2.05s-11.13.9-16.68,1.29a57.57,57.57,0,0,1-8.71,0,44.06,44.06,0,0,1-8.59-1.66,41.43,41.43,0,0,1-15.17-8.4,43.54,43.54,0,0,1-5.92-6.3,39.34,39.34,0,0,1-4.64-7.38l2,.82-9.26,3.46c-3.11,1.09-6.26,2.08-9.39,3.13-1.55.55-3.17.9-4.75,1.38l-4.78,1.36-4.84,1.12c-1.61.37-3.21.8-4.86,1.05l-4.91.87c-1.65.24-3.31.39-5,.59s-3.34.28-5,.39l-2.52.14-2.53,0c-.85,0-1.7,0-2.54,0l-2.55-.2c-1.71-.08-3.4-.44-5.11-.68a45,45,0,0,1-5.1-1.32c-.85-.24-1.69-.64-2.54-1a17.86,17.86,0,0,1-2.69-1.48l-1-1.51a80.3,80.3,0,0,1-2.72-13,57.08,57.08,0,0,1,.06-13.51,47.21,47.21,0,0,1,11.06-25,53.14,53.14,0,0,1,10.21-9.22,57.34,57.34,0,0,1,12.08-6.5c1.08-.42,2.18-.81,3.33-1.16.6-.16,1.16-.33,1.81-.47.33-.07.61-.15,1-.21a11.79,11.79,0,0,1,1.26-.16l.39,0h.47c.41,0,.82.08,1.22.15a9.25,9.25,0,0,1,1.16.38,7.31,7.31,0,0,1,1,.54,8.3,8.3,0,0,1,2.4,2.45,15.76,15.76,0,0,1,1.78,4.1,40,40,0,0,1,1.23,7.05c.21,2.28.32,4.44.33,6.79L854.16,246c-3.68,3.63-7.3,7.32-11,10.87l-5.88,5.07-2.93,2.53c-.5.42-1,.85-1.48,1.26l-1.55,1.18c-4.16,3.09-8.14,6.4-12.59,9.09-2.18,1.39-4.31,2.86-6.54,4.18l-6.77,3.81c-2.22,1.34-4.63,2.33-7,3.46L794.89,289c-1.17.54-2.4,1-3.6,1.46a117.49,117.49,0,0,1-14.7,4.94l-3.76.93c-.63.15-1.25.32-1.88.45l-1.91.36-3.81.68c-1.27.2-2.56.32-3.84.48a65.89,65.89,0,0,1-15.44.16Z" transform="translate(-173.09 -51.22)"/>
  </g>
  <path id="path-six" d="M934,198s1,3,6,8" transform="translate(-173.09 -51.22)" style={{ fill: "none",stroke: "#000",strokeLinecap: "round",strokeLinejoin: "round",strokeWidth: "10px" }}/>
  <g id="path-seven">
    <path d="M1127,311.5a21.12,21.12,0,0,0,2.33-.28c.79-.13,1.57-.26,2.35-.45s1.56-.35,2.33-.54l2.32-.65c1.54-.4,3.06-.95,4.58-1.44l2.28-.76,2.26-.84c6-2.17,11.9-4.82,17.73-7.5l2.19-1,2.16-1.07,4.32-2.14c2.89-1.39,5.72-2.93,8.55-4.44,5.71-3,11.28-6.18,16.88-9.34,2.81-1.56,5.54-3.28,8.31-4.91l8.26-5c5.45-3.43,10.93-6.79,16.35-10.27l16.12-10.62,16-10.87c2.7-1.78,5.21-3.7,7.8-5.56L1274,231l3.71-3,3.71-3c1.24-1,2.38-2.08,3.57-3.11l3.55-3.13c1.2-1,2.26-2.18,3.39-3.27l3.35-3.3,3.12-3.48c2.16-2.27,4-4.77,5.87-7.2l.71-.92.63-1,1.26-1.92a39.12,39.12,0,0,0,2.4-3.89c.71-1.34,1.46-2.66,2.15-4l1.77-4.14a46.15,46.15,0,0,0,3.22-17.17,39.7,39.7,0,0,0-4.12-16.85,57.44,57.44,0,0,0-10.26-14.7,69.48,69.48,0,0,0-6.69-6.25c-.59-.49-1.18-1-1.79-1.44s-1.21-.94-1.83-1.38-1.23-.89-1.86-1.33-1.28-.86-1.8-1.18l1.35.48c.33,0,.13,0,.11,0s-.17,0-.26,0a2.68,2.68,0,0,0-.71.14,3.48,3.48,0,0,0-.8.28,5.19,5.19,0,0,0-.84.38,11.41,11.41,0,0,0-1.7,1.1,13.49,13.49,0,0,0-1.66,1.41,36.6,36.6,0,0,0-5.74,7.51c-3.37,5.68-5.76,12.16-7.88,18.67l-1.5,4.94c-.51,1.65-.86,3.35-1.3,5l-1.26,5-1,5.11-2.09,10.31c-.72,3.47-1.33,7-2.21,10.39-1.57,6.9-3.41,13.74-5.4,20.52s-4.16,13.51-6.56,20.15l-1.81,5-1.91,4.95c-1.23,3.3-2.59,6.56-3.94,9.82-2.75,6.5-5.63,12.95-8.79,19.27-1.57,3.16-3.16,6.32-4.87,9.42-.42.78-.84,1.56-1.29,2.33-.21.39-.44.78-.69,1.19l-.71,1.13-2.86,4.45c-3.85,5.9-7.82,11.72-11.85,17.51s-8.21,11.46-12.52,17.06-8.71,11.12-13.35,16.47A206.19,206.19,0,0,1,1169.18,361c-2.66,2.4-5.37,4.77-8.29,6.93-.71.56-1.49,1.06-2.23,1.59s-1.5,1-2.21,1.51l-4.34,2.92-4.27,3-4.22,3.07c-2.82,2.07-5.54,4.21-8.6,6.32-.73.54-1.61,1.05-2.45,1.56-.41.26-.94.47-1.4.7a8.76,8.76,0,0,1-1.5.63c-.54.17-1.07.37-1.61.49l-1.67.29c-.55.09-1.07.07-1.61.11a13.35,13.35,0,0,1-1.55,0c-1-.06-2-.11-2.91-.25s-1.87-.23-2.75-.38c-1.81-.28-3.53-.61-5.28-.91l-2.23-1.44a6.28,6.28,0,0,1-.38-.6c-.08-.17-.13-.27-.19-.41s-.2-.49-.29-.73a8.61,8.61,0,0,1-.34-1.35,8.22,8.22,0,0,1-.14-1.27,9.5,9.5,0,0,1,0-1.19,15.57,15.57,0,0,1,.81-4.26,28.38,28.38,0,0,1,3.42-6.86,65.93,65.93,0,0,1,9.19-10.82,126.27,126.27,0,0,1,10.37-9.07c3.57-2.85,7.25-5.51,11-8.11,14.87-10.35,30.53-19.21,46.34-27.68l.47-.22q30.39-12.27,60.67-25l30.17-12.84c10-4.33,20-8.71,29.93-13.25s20.28-8.79,30.45-12.89,20.33-8.07,30.14-12.51a183.87,183.87,0,0,0,28.06-15.29,144.43,144.43,0,0,0,24.1-20.72l-.2.24c1.56-2,3.18-4.14,4.72-6.27s3.06-4.34,4.56-6.53q4.46-6.62,8.54-13.49a262.8,262.8,0,0,0,14.66-28.34c2.12-4.87,4-9.83,5.8-14.84s3.24-10.11,4.52-15.26a145.39,145.39,0,0,0,2.87-15.62A125.21,125.21,0,0,0,1470,86.1l0-.41a52.17,52.17,0,0,0,.53-11.87,31.21,31.21,0,0,0-2.78-11.41,16.64,16.64,0,0,0-8-8.08,24.24,24.24,0,0,0-11.74-1.83h0a.5.5,0,0,1-.53-.47.51.51,0,0,1,.46-.53c1-.08,2.08-.23,3.13-.26a28,28,0,0,1,3.17,0,20.64,20.64,0,0,1,6.26,1.35,18.73,18.73,0,0,1,9.59,8.56,33.51,33.51,0,0,1,3.77,12.29,54.52,54.52,0,0,1,.41,6.38,52.21,52.21,0,0,1-.35,6.44l0-.41a121.14,121.14,0,0,1,0,16.5,149.62,149.62,0,0,1-2.26,16.34c-1.1,5.38-2.4,10.72-4,16s-3.43,10.43-5.43,15.53a250.57,250.57,0,0,1-14.1,29.65q-4,7.19-8.38,14.13c-1.48,2.3-3,4.61-4.52,6.88s-3.09,4.49-4.82,6.8l-.21.24a150.12,150.12,0,0,1-25.15,22.59,187,187,0,0,1-29.24,16.68c-10.1,4.71-20.31,8.83-30.41,13l-7.55,3.16c-2.51,1.06-5,2.11-7.5,3.2-5,2.15-9.91,4.4-14.89,6.62-10,4.56-20.09,9-30.18,13.29s-20.22,8.55-30.38,12.69q-30.48,12.42-61.18,24.26l.47-.22a479.23,479.23,0,0,0-45.87,26.38c-3.63,2.45-7.23,4.95-10.68,7.59s-6.83,5.36-10,8.26a58.48,58.48,0,0,0-8.37,9.27,20.94,20.94,0,0,0-2.7,5,9.19,9.19,0,0,0-.55,2.27,3.94,3.94,0,0,0,0,.47c0,.15,0,.29,0,.4a1.9,1.9,0,0,0,0,.27.28.28,0,0,1,0,0s0,0,0,0a1.91,1.91,0,0,1-.17-.24l-2.23-1.44a84.81,84.81,0,0,0,9.86,1.79,5.75,5.75,0,0,0,1.08,0,8.6,8.6,0,0,0,1,0c.31-.05.62-.09.94-.12s.6-.18.91-.25a4.7,4.7,0,0,0,.94-.35,10.32,10.32,0,0,0,1-.45c.67-.38,1.34-.71,2-1.19,2.79-1.78,5.68-3.88,8.6-5.87l4.41-3,4.47-2.9,4.51-2.81c.77-.47,1.49-.93,2.19-1.38s1.43-.89,2.11-1.4c2.8-1.92,5.47-4.09,8.1-6.3a184,184,0,0,0,14.87-14.57c4.7-5.14,9.24-10.46,13.63-15.9s8.59-11.05,12.72-16.71,8.11-11.43,12-17.28l2.86-4.39.7-1.1.64-1.09c.44-.75.86-1.51,1.28-2.27,1.69-3.05,3.29-6.16,4.86-9.28a322.42,322.42,0,0,0,15.86-38.82c2.23-6.62,4.21-13.33,6-20.08s3.32-13.57,4.62-20.42c.74-3.41,1.23-6.87,1.79-10.31l1.66-10.43.85-5.26,1.08-5.23c.38-1.74.66-3.5,1.12-5.23l1.34-5.21c2-6.91,4.14-13.83,7.69-20.43a43.2,43.2,0,0,1,6.74-9.38,19,19,0,0,1,2.28-2.08,19.86,19.86,0,0,1,2.66-1.84,11.51,11.51,0,0,1,1.53-.77,9.86,9.86,0,0,1,1.66-.63,11,11,0,0,1,1.86-.44,7.73,7.73,0,0,1,1-.11,8.23,8.23,0,0,1,1.43,0l1.35.48c.88.49,1.56.91,2.31,1.38s1.44.93,2.13,1.42,1.41,1,2.08,1.48,1.37,1,2,1.55a79.07,79.07,0,0,1,7.6,6.82c1.22,1.18,2.33,2.5,3.48,3.77l1.63,2c.55.67,1.09,1.34,1.58,2.06l1.5,2.11c.5.71.93,1.47,1.4,2.21a46.27,46.27,0,0,1,2.53,4.59,48.5,48.5,0,0,1,5.08,20.48,52.62,52.62,0,0,1-3.85,20.66l-2.09,4.76c-.8,1.52-1.65,3-2.47,4.51a47.82,47.82,0,0,1-2.72,4.33l-1.43,2.11-.71,1.06-.78,1a100.36,100.36,0,0,1-6.44,7.76l-3.38,3.7-3.58,3.47c-9.57,9.23-20.31,17-31.16,24.18l-16.31,10.6-16.58,10.18c-5.56,3.33-11.2,6.55-16.79,9.84-2.82,1.6-5.7,3.11-8.54,4.68s-5.67,3.14-8.58,4.6c-11.5,6-23.25,11.61-35.3,16.5l-4.54,1.78-2.27.88-2.31.8-4.61,1.6c-1.54.53-3.11,1-4.67,1.44l-2.33.71c-.79.22-1.58.41-2.37.61-1.59.39-3.15.82-4.76,1.11l-2.4.48c-.81.15-1.62.25-2.43.38s-1.62.21-2.44.28a20.29,20.29,0,0,1-2.49.11.5.5,0,0,1-.5-.5.51.51,0,0,1,.47-.5Z" transform="translate(-173.09 -51.22)"/>
  </g>
  <g id="path-eight">
    <path d="M1363.05,284.5c10.7.47,21.47-.93,32-3.1a182.46,182.46,0,0,0,30.69-9.38c2.48-1,4.9-2.15,7.36-3.21,1.22-.55,2.45-1.07,3.66-1.64l3.56-1.83c2.38-1.24,4.77-2.43,7.12-3.7l6.89-4.09,3.45-2.05c1.12-.73,2.21-1.5,3.32-2.25l6.62-4.51c.55-.38,1.11-.74,1.64-1.14l1.59-1.23,3.17-2.45,6.33-4.9,2,4.49c-.33.08-.89.22-1.35.38s-1,.33-1.46.5-1,.39-1.45.6a15.38,15.38,0,0,0-1.43.66l-1.42.72-1.38.8c-.93.51-1.8,1.14-2.68,1.74a52.21,52.21,0,0,0-9.48,8.66l-2,2.51c-.68.83-1.25,1.76-1.88,2.64a63.8,63.8,0,0,0-3.45,5.52c-.58.91-1,1.92-1.51,2.89l-1.45,2.93-2.51,6.06.18-1.51a39.14,39.14,0,0,0,3.67,11.86,11.45,11.45,0,0,0,3.28,4,4.3,4.3,0,0,0,3.78.62,3.2,3.2,0,0,0,.55-.18,2.52,2.52,0,0,0,.6-.23l1.34-.65a27.3,27.3,0,0,0,2.75-1.51c1.86-1,3.72-2.34,5.58-3.53s3.69-2.52,5.53-3.81,3.66-2.61,5.48-4c7.27-5.33,14.44-10.86,21.59-16.42s14.24-11.22,21.25-16.92l6.43,2.88c.58,9.38,1.36,18.92,2.81,28.06a63.26,63.26,0,0,0,1.38,6.54,12.05,12.05,0,0,0,.88,2.34s0,0,0,.05l0-.06,0,0-.06-.08-.17-.15a2.2,2.2,0,0,0-.32-.21,2.25,2.25,0,0,0-.54-.26,3.51,3.51,0,0,0-.74-.17,3.08,3.08,0,0,0-.8,0l-.18,0h0l.07,0,.63-.24c1.94-.8,4.1-1.84,6.18-2.87s4.2-2.12,6.29-3.22c8.36-4.4,16.63-9.06,24.66-14,4-2.48,8-5,11.76-7.68,1.89-1.33,3.73-2.71,5.43-4.13.43-.35.86-.7,1.24-1.06s.81-.71,1.14-1.07l.53-.53.44-.5c.34-.36.43-.59.65-.84l8.15,1.81c0,.27.11.78.18,1.19s.17.87.28,1.31c.19.88.43,1.76.7,2.63a31.7,31.7,0,0,0,2,5,24.08,24.08,0,0,0,2.79,4.28,17.94,17.94,0,0,0,3.56,3.21,16.13,16.13,0,0,0,9.11,2.43,33.32,33.32,0,0,0,10.43-2.15A86.36,86.36,0,0,0,1649.58,259a217.84,217.84,0,0,0,18.4-15.28l5.24,7.09a138.13,138.13,0,0,0-12,8,57,57,0,0,0-10.18,9.32,16.11,16.11,0,0,0-1.6,2.44,5.12,5.12,0,0,0-.66,1.91.94.94,0,0,0,.2.84l.06.12a1.79,1.79,0,0,0,.14.13,1.93,1.93,0,0,1,.27.3,4.4,4.4,0,0,1,.45.3,2.32,2.32,0,0,0,.53.34,26.35,26.35,0,0,0,12.3,3.43,34.71,34.71,0,0,0,13.1-2.16,47.7,47.7,0,0,0,11.93-6.79,75.38,75.38,0,0,0,18.13-21.74l4.08-1.71c.4.12.5.18.72.26l.53.24a9,9,0,0,1,1,.53,11.61,11.61,0,0,1,1.73,1.29,11.84,11.84,0,0,1,2.57,3.38,14.75,14.75,0,0,1,1.46,7.56,33.83,33.83,0,0,1-3.77,12.7,81.78,81.78,0,0,1-6.4,10.68c-2.34,3.36-4.84,6.57-7.4,9.72l-1.41-4.8h0l.09,0,.19.05.45.08c.31.05.67.06,1,.1h1c.35,0,.71-.05,1.07-.08a7,7,0,0,0,1.09-.15c.36-.07.72-.11,1.08-.2a21.46,21.46,0,0,0,2.17-.64,28.47,28.47,0,0,0,8.14-4.63,19.22,19.22,0,0,0,1.85-1.55c.6-.55,1.22-1.07,1.81-1.63l1.7-1.78a24.17,24.17,0,0,0,1.66-1.84l1.58-1.91.79-1,.73-1c1-1.37,2-2.68,2.91-4.11q5.75-8.56,11.25-17.27,2.76-4.35,5.42-8.75c1.75-2.91,3.53-5.91,5.08-8.82l4,1.46a44.93,44.93,0,0,0-1,14.21,17.61,17.61,0,0,0,.7,3.32,9.33,9.33,0,0,0,1.35,2.84,6.46,6.46,0,0,0,2.1,1.94,7.63,7.63,0,0,0,2.82.8,19.13,19.13,0,0,0,6.74-1,55.78,55.78,0,0,0,6.88-2.36,27.64,27.64,0,0,0,6.09-3.51,12.6,12.6,0,0,0,2.34-2.33,7.47,7.47,0,0,0,.8-1.3,4.78,4.78,0,0,0,.26-.64c0-.11,0-.2.08-.3a.74.74,0,0,0,0-.12s0-.08,0,0l2.82-1.34c3.08,2.58,6,5.24,8.87,8s5.65,5.61,8.28,8.63a62.48,62.48,0,0,1,7.18,9.76,23.33,23.33,0,0,1,2.48,5.8,11.19,11.19,0,0,1,.32,1.65,9,9,0,0,1,.07,1.73,8.16,8.16,0,0,1-.92,3.52l-.2.29a99.55,99.55,0,0,1-9.34,8.63c-3.26,2.66-6.65,5.18-10.15,7.51a117.64,117.64,0,0,1-22.37,11.71,96.87,96.87,0,0,1-24.54,6.15,91.73,91.73,0,0,1-25.31-.75,99.86,99.86,0,0,1-24.22-7.42A125.78,125.78,0,0,1,1685,303l-2.74-1.59c-.9-.55-1.77-1.17-2.66-1.75L1677,297.9l-1.32-.89-.66-.44a3.35,3.35,0,0,1-.4-.31l-.33-.29a26.35,26.35,0,0,1-7.38-11.11,21.46,21.46,0,0,1-1.1-6.76,22,22,0,0,1,1.13-6.75,29.2,29.2,0,0,1,2.85-6.09c.63-.91,1.22-1.86,1.89-2.72s1.34-1.75,2.09-2.54a61.19,61.19,0,0,1,9.63-8.61,103.82,103.82,0,0,1,10.71-6.91l2.76-1.56,2.79-1.46,5.58-2.89c3.73-1.92,7.53-3.67,11.29-5.51l11.42-5.19c15.32-6.72,30.88-12.82,46.57-18.53s31.51-11.05,47.49-16l47.88-14.26-2.46,2-.12.25c0,.05,0,0,0,.06v0a1.3,1.3,0,0,0,0-.37,4.24,4.24,0,0,0-.44-1.15,11.2,11.2,0,0,0-2.51-2.85,36,36,0,0,0-8.07-4.88,84.49,84.49,0,0,0-9.43-3.65c-1.61-.56-3.28-1-4.91-1.52s-3.32-.93-5-1.34a334,334,0,0,0-41.25-7.27c-27.89-3.46-56.08-5.44-84.25-6.88s-56.41-2.26-84.64-2.3l-10.58-.06c-3.53,0-7.06.06-10.58.08l-21.17.22-21.16.52-10.57.27-10.57.45-21.14.92c-7,.4-14.08.9-21.11,1.34l-10.56.68c-3.52.2-7,.59-10.53.87l-21.07,1.78c-28,2.84-56.06,6.07-83.75,11.09-13.85,2.31-27.76,5-41.62,7.73s-27.72,5.53-41.53,8.46-27.59,6-41.25,9.36c-6.83,1.69-13.64,3.45-20.32,5.42-3.34,1-6.65,2-9.84,3.19-1.58.58-3.14,1.2-4.52,1.86-.34.17-.7.34-1,.5l-.45.25-.31.21a.73.73,0,0,0-.17.12c-.1.07.11-.09.15-.22a2.26,2.26,0,0,0,.18-.3,1.8,1.8,0,0,0,.16-.38,4,4,0,0,0,.16-.72,4.1,4.1,0,0,0,0-.91,3.51,3.51,0,0,0-.35-1,3.44,3.44,0,0,0-.54-.77,3,3,0,0,0-.56-.47,2.86,2.86,0,0,0-.71-.37l1.67,1.18a1.21,1.21,0,0,0-.22-.23l.08.05a1.49,1.49,0,0,1,.2.15c.15.12.48.27.7.41a12.85,12.85,0,0,0,1.7.83,38.94,38.94,0,0,0,3.87,1.47c.65.25,1.36.43,2.06.63l2.1.58c1.38.42,2.84.71,4.28,1s2.88.65,4.34.93l4.41.74c1.47.24,2.93.53,4.42.72l4.47.58,4.46.58c1.49.2,3,.3,4.5.46l9,.87,9,.61c3,.18,6,.45,9.06.54l9.07.37c3,.11,6,.29,9.08.31l18.19.34c12.14,0,24.27.1,36.42-.21,6.07-.12,12.15-.15,18.21-.36l18.18-.58,9.09-.28,9-.84,18.19-1.58q18.21-1.52,36.44-2.57,9.12-.54,18.26-.78a153.58,153.58,0,0,1,18.32.33.5.5,0,0,1-.08,1h0a152.87,152.87,0,0,0-18.15.32c-3,.2-6.06.39-9.08.65s-6.06.47-9.09.75c-12.1,1.06-24.19,2.35-36.27,3.67L1409.24,214l-9.1,1.09-9.14.54-18.27,1c-6.1.36-12.18.53-18.27.8-12.17.58-24.36.76-36.55,1l-18.31,0c-3,0-6.1-.09-9.15-.14l-9.17-.2c-3,0-6.11-.24-9.16-.37l-9.18-.44-9.17-.7c-1.53-.13-3.06-.21-4.59-.38l-4.59-.52-4.6-.52c-1.53-.17-3.06-.45-4.59-.67l-4.59-.71c-1.53-.27-3.07-.61-4.6-.91s-3.07-.59-4.6-1l-2.31-.61c-.77-.2-1.54-.38-2.31-.66a46.47,46.47,0,0,1-4.67-1.71,19.23,19.23,0,0,1-2.41-1.14c-.43-.25-.8-.42-1.27-.74l-.72-.52c-.13-.1-.21-.15-.37-.29s-.44-.41-.64-.63l1.67,1.18a4.82,4.82,0,0,1-1-.53,5.12,5.12,0,0,1-.81-.69,5.4,5.4,0,0,1-.73-1,4.88,4.88,0,0,1-.44-1.37,4.27,4.27,0,0,1,0-1.23,5.14,5.14,0,0,1,.23-1c.09-.23.19-.46.3-.68a6.38,6.38,0,0,1,.34-.59,6.86,6.86,0,0,1,1.06-1.18,7.81,7.81,0,0,1,.87-.71l.78-.53.71-.42c.48-.29.92-.51,1.37-.74,1.8-.89,3.52-1.6,5.25-2.26,3.44-1.32,6.86-2.46,10.3-3.52,6.85-2.14,13.72-4,20.61-5.83,13.77-3.63,27.59-6.81,41.43-9.93s27.7-6.06,41.58-9,27.72-5.77,41.78-8.16c28-5.25,56.23-8.67,84.48-11.7,14.15-1.24,28.29-2.72,42.48-3.46,7.08-.44,14.17-.94,21.26-1.33l21.27-.91,10.64-.45,10.64-.25,21.29-.49,21.29-.08c3.55,0,7.09-.05,10.64,0l10.64.13c28.38.23,56.75,1.27,85.09,2.9s56.64,3.89,84.9,7.63c7.07.93,14.13,2,21.18,3.26s14.07,2.78,21.06,4.63c1.75.45,3.49,1,5.24,1.47s3.48,1,5.21,1.67a93.44,93.44,0,0,1,10.31,4.12,42.78,42.78,0,0,1,9.92,6.25A19.11,19.11,0,0,1,1874,176a12.15,12.15,0,0,1,1.28,3.84,9.54,9.54,0,0,1,.07,2.28,8.12,8.12,0,0,1-.21,1.23,5.33,5.33,0,0,1-.19.67c0,.12-.07.21-.13.36s-.08.22-.25.56l-2.46,2-48.06,13.48q-23.88,6.87-47.45,15c-15.7,5.37-31.26,11.12-46.56,17.49l-11.4,4.93c-3.75,1.74-7.54,3.41-11.25,5.23-7.43,3.66-14.83,7.25-21.39,12a56.59,56.59,0,0,0-9.07,7.86c-.71.71-1.27,1.51-1.92,2.25s-1.13,1.59-1.71,2.38a24.72,24.72,0,0,0-2.5,5.15,17.16,17.16,0,0,0-.2,11,22.37,22.37,0,0,0,6.15,9.53l.25.23a1.4,1.4,0,0,0,.22.17l.63.43,1.27.86,2.53,1.73c.85.57,1.68,1.17,2.54,1.71l2.65,1.57c3.48,2.18,7.16,4,10.83,5.8a96.81,96.81,0,0,0,23.32,7.39,86.52,86.52,0,0,0,24.42.84A93.51,93.51,0,0,0,1769.2,308a111.33,111.33,0,0,0,21.8-11.37c3.41-2.29,6.7-4.76,9.87-7.38a96.07,96.07,0,0,0,9-8.33l-.2.29a6.57,6.57,0,0,0,.21-4.62,20.1,20.1,0,0,0-2.18-5,59.6,59.6,0,0,0-6.85-9.21c-2.56-2.91-5.29-5.69-8.13-8.37s-5.78-5.27-8.77-7.71l2.82-1.34a3.54,3.54,0,0,1,0,.46,1.72,1.72,0,0,1-.06.34,4,4,0,0,1-.15.62,7.72,7.72,0,0,1-.42,1.11,11.05,11.05,0,0,1-1.14,1.92,16.06,16.06,0,0,1-2.92,3,31.73,31.73,0,0,1-6.86,4.09,60.48,60.48,0,0,1-7.33,2.62,22.51,22.51,0,0,1-8.06,1.26,11.38,11.38,0,0,1-4.37-1.22,10.28,10.28,0,0,1-3.45-3.06,13.75,13.75,0,0,1-1.94-3.89,22.52,22.52,0,0,1-.92-4,39.1,39.1,0,0,1-.22-7.93,54.92,54.92,0,0,1,1-7.79l4,1.46c-1.63,3.2-3.32,6.17-5.06,9.19s-3.5,6-5.29,8.93c-3.58,5.92-7.26,11.77-11,17.6-.92,1.46-2,2.93-3,4.39l-.76,1.1-.83,1.05-1.66,2.11a24.27,24.27,0,0,1-1.76,2l-1.82,2c-.64.64-1.33,1.25-2,1.88a23.7,23.7,0,0,1-2.06,1.8,34.27,34.27,0,0,1-9.64,5.74,27.92,27.92,0,0,1-2.77.88c-.47.13-1,.21-1.44.31a12.17,12.17,0,0,1-1.47.24c-.5,0-1,.11-1.5.13s-1,0-1.53,0-1-.05-1.58-.13a10,10,0,0,1-1.81-.36l-1.41-4.8c2.41-3.09,4.74-6.24,6.89-9.47a73.82,73.82,0,0,0,5.67-9.95,42.17,42.17,0,0,0,2-5.14,20.89,20.89,0,0,0,.88-5,7.89,7.89,0,0,0-.8-4,4.63,4.63,0,0,0-1.74-1.82l-.34-.18-.15-.06s-.15,0,0,0l4.08-1.71a81.78,81.78,0,0,1-19.58,24.31,55,55,0,0,1-13.87,8.2,42.53,42.53,0,0,1-16.21,2.94,34.63,34.63,0,0,1-16.28-4.4,7.72,7.72,0,0,1-1-.65l-1.08-.77c-.36-.33-.72-.68-1.06-1-.17-.18-.35-.34-.51-.54l-.47-.66a7.18,7.18,0,0,1-.83-1.4,16.6,16.6,0,0,1-.6-1.58c-.12-.54-.21-1.09-.28-1.65a8.35,8.35,0,0,1,0-1.58,13.21,13.21,0,0,1,1.51-5.2,24,24,0,0,1,2.44-3.84,48.34,48.34,0,0,1,5.63-6c2-1.8,4-3.46,6-5a135.17,135.17,0,0,1,12.85-8.69l5.24,7.09a227.93,227.93,0,0,1-19.2,16,95.14,95.14,0,0,1-22.33,12.6,41.14,41.14,0,0,1-13.41,2.7,25.1,25.1,0,0,1-14.12-4,26.27,26.27,0,0,1-5.48-5,33.37,33.37,0,0,1-3.86-6,42.76,42.76,0,0,1-2.53-6.38c-.32-1.09-.61-2.18-.86-3.29-.12-.55-.23-1.12-.33-1.68s-.19-1.1-.28-1.84l8.15,1.81a16.84,16.84,0,0,1-1.5,2l-.75.84-.74.73c-.49.51-1,.94-1.48,1.38s-1,.86-1.48,1.26c-2,1.63-4,3.1-6,4.51-4,2.83-8.13,5.41-12.27,7.93-8.27,5-16.68,9.69-25.25,14.14-2.14,1.11-4.3,2.21-6.49,3.27s-4.36,2.09-6.84,3.08l-1.06.38-.78.22-.2.05-.1,0-.29,0a4.77,4.77,0,0,1-1.25,0,5.23,5.23,0,0,1-1.18-.26,5.82,5.82,0,0,1-.94-.45,6,6,0,0,1-.68-.48,4.36,4.36,0,0,1-.49-.45l-.23-.23-.16-.2-.32-.41c-.15-.22-.33-.48-.45-.7a18.76,18.76,0,0,1-1.69-4.33,70.38,70.38,0,0,1-1.5-7.49c-.75-4.88-1.23-9.69-1.65-14.51s-.72-9.6-1-14.46l6.43,2.88q-10.73,8.54-21.57,16.8c-7.24,5.53-14.56,11-22,16.25-1.86,1.33-3.77,2.62-5.64,3.93s-3.83,2.56-5.75,3.83-3.88,2.5-6,3.64a34,34,0,0,1-3.25,1.71l-1.75.8a8,8,0,0,1-1,.36c-.36.1-.69.24-1.08.31a11.66,11.66,0,0,1-4.76.15,10.81,10.81,0,0,1-4.42-1.91,17.83,17.83,0,0,1-5.23-6.44,36.84,36.84,0,0,1-2.66-7,52.63,52.63,0,0,1-1.48-7.15l.18-1.51c.94-2.15,1.84-4.31,2.81-6.44l1.63-3.12c.56-1,1-2.1,1.7-3.08a69,69,0,0,1,3.87-5.91c.71-.94,1.36-1.93,2.13-2.83l2.3-2.7a57.74,57.74,0,0,1,10.73-9.36c1-.65,2-1.32,3.06-1.88l1.58-.87,1.63-.78c.54-.27,1.1-.5,1.66-.72s1.12-.47,1.71-.66,1.15-.4,1.76-.57a18.91,18.91,0,0,1,1.93-.47l2,4.49-6.59,4.87-3.29,2.43-1.64,1.21c-.55.41-1.14.75-1.71,1.13l-6.89,4.42c-1.16.73-2.29,1.48-3.45,2.19l-3.58,2-7.15,4c-2.43,1.23-4.91,2.38-7.36,3.57l-3.68,1.76c-1.25.55-2.52,1-3.78,1.57-2.53,1-5,2.09-7.58,3a186,186,0,0,1-31.48,8.49A130.36,130.36,0,0,1,1363,285.5a.51.51,0,0,1-.46-.54.5.5,0,0,1,.52-.46Z" transform="translate(-173.09 -51.22)"/>
  </g>
</svg>
