<svg width="58" height="104" viewBox="0 0 58 104" fill="none" xmlns="http://www.w3.org/2000/svg">
<path d="M48.8257 2H9.43563C5.34132 2 2 5.34906 2 9.45283V17H56.2142V9.45283C56.2142 5.30189 52.92 2 48.8257 2ZM34.0015 11.2925H24.2128C23.601 11.2925 23.0833 10.7736 23.0833 10.1604C23.0833 9.54717 23.601 9.0283 24.2128 9.0283H34.0015C34.6133 9.0283 35.1309 9.54717 35.1309 10.1604C35.1309 10.7736 34.6603 11.2925 34.0015 11.2925Z" stroke="#1E1E1E" stroke-width="3" stroke-miterlimit="10"/>
<path d="M35.1311 10.1603C35.1311 10.7735 34.6134 11.2924 34.0016 11.2924H24.213C23.6012 11.2924 23.0835 10.7735 23.0835 10.1603C23.0835 9.54713 23.6012 9.02826 24.213 9.02826H34.0016C34.6605 9.02826 35.1311 9.54713 35.1311 10.1603Z" stroke="#1E1E1E" stroke-width="3" stroke-miterlimit="10"/>
<path d="M31.2718 93.7925C31.2718 94.4057 30.7542 94.9246 30.1424 94.9246H28.1187C27.5069 94.9246 26.9893 94.4057 26.9893 93.7925C26.9893 93.1793 27.5069 92.6604 28.1187 92.6604H30.1424C30.7542 92.6604 31.2718 93.1793 31.2718 93.7925Z" stroke="#1E1E1E" stroke-width="3" stroke-miterlimit="10"/>
<path d="M56.2142 17H2V88.0849H56.2142V17Z" stroke="#1E1E1E" stroke-width="3" stroke-miterlimit="10"/>
<path d="M2 88.0378V94.5472C2 98.651 5.34132 102 9.43563 102H48.8257C52.92 102 56.2613 98.651 56.2613 94.5472V88.0378H2ZM30.1425 94.9245H28.1188C27.5071 94.9245 26.9894 94.4057 26.9894 93.7925C26.9894 93.1793 27.5071 92.6604 28.1188 92.6604H30.1425C30.7543 92.6604 31.2719 93.1793 31.2719 93.7925C31.2719 94.4057 30.7543 94.9245 30.1425 94.9245Z" stroke="#1E1E1E" stroke-width="3" stroke-miterlimit="10"/>
<path d="M49.2961 36.7641L44.7783 43.9339L42.9429 46.8113L38.2368 37.849L37.3896 36.2924L40.731 36.4339L40.9663 30.4434L46.1901 30.6792L45.9548 36.6226L49.2961 36.7641Z" stroke="#1E1E1E" stroke-width="3" stroke-miterlimit="10"/>
<path d="M27.0836 58.8396C27.7895 59.6415 28.8249 60.1132 29.9544 60.1132C32.1192 60.1132 33.8604 58.3679 33.8604 56.1981C33.8604 55.1604 33.3898 54.1226 32.6368 53.4151C31.6485 52.4717 30.2367 52.3302 29.0602 51.8585C27.7425 51.2924 26.7542 50.2547 26.7542 48.7924C26.7542 46.8585 28.3072 45.2547 30.2838 45.2547C31.272 45.2547 32.1192 45.6321 32.778 46.2924" stroke="#1E1E1E" stroke-width="3" stroke-miterlimit="10"/>
<path d="M30.2366 45.2547V42.8962" stroke="#1E1E1E" stroke-width="3" stroke-miterlimit="10"/>
<path d="M30.2366 63.1321V60.2076" stroke="#1E1E1E" stroke-width="3" stroke-miterlimit="10"/>
<path d="M23.1775 63.651V66.2925H18.8478V70.6321H16.2124V66.2925H11.8828V63.651H16.2124V59.2642H18.8478V63.651H23.1775Z" stroke="#1E1E1E" stroke-width="3" stroke-miterlimit="10"/>
<path d="M47.3667 52.9906C47.3667 62.4246 39.7428 70.1133 30.2836 70.1133C28.4011 70.1133 26.6128 69.8303 24.9657 69.2642C25.1539 68.9812 25.2951 68.651 25.4363 68.368C25.9069 67.3302 26.1422 66.1982 26.1422 64.9718C26.1422 60.2548 22.3303 56.3869 17.5771 56.3869C16.8242 56.3869 16.0712 56.4812 15.3653 56.6699C14.8006 56.8114 14.2829 57.0001 13.7652 57.2831C13.4358 55.9152 13.2476 54.5001 13.2476 52.9906C13.2476 43.5567 20.8714 35.868 30.3306 35.868C33.2013 35.868 35.9309 36.5755 38.2839 37.8491L42.99 46.8114L44.8254 43.934C46.3784 46.5755 47.3667 49.6887 47.3667 52.9906Z" stroke="#1E1E1E" stroke-width="3" stroke-miterlimit="10"/>
<path d="M17.5302 56.3868C16.7772 56.3868 16.0242 56.4812 15.3183 56.6699C14.7536 56.8114 14.2359 57 13.7183 57.2831C10.8946 58.6982 8.96509 61.6227 8.96509 64.9717C8.96509 69.6887 12.777 73.5566 17.5302 73.5566C20.6833 73.5566 23.4599 71.8114 24.9188 69.2642C25.107 68.9812 25.2482 68.651 25.3894 68.368C25.86 67.3302 26.0953 66.1982 26.0953 64.9717C26.0953 60.2076 22.2363 56.3868 17.5302 56.3868ZM23.1775 66.2925H18.8479V70.6321H16.2125V66.2925H11.8829V63.651H16.2125V59.3114H18.8479V63.651H23.1775V66.2925Z" stroke="#1E1E1E" stroke-width="3" stroke-miterlimit="10"/>
</svg>
