<svg width="1104" height="621" viewBox="0 0 1104 621" fill="none" xmlns="http://www.w3.org/2000/svg">
<g clip-path="url(#clip0_84_417)">
<path d="M0 0L41.9241 41.9175" stroke="#0056B8" stroke-width="3.5"/>
<path opacity="0.96" d="M83.8481 0L41.9241 41.9175" stroke="#0056B8" stroke-width="3.5"/>
<path opacity="0.93" d="M83.8481 0L125.772 41.9175" stroke="#0056B8" stroke-width="3.5"/>
<path opacity="0.89" d="M125.772 0L167.696 41.9175" stroke="#0056B8" stroke-width="3.5"/>
<path opacity="0.86" d="M167.696 0L209.62 41.9175" stroke="#0056B8" stroke-width="3.5"/>
<path opacity="0.82" d="M251.544 0L209.62 41.9175" stroke="#0056B8" stroke-width="3.5"/>
<path opacity="0.78" d="M293.468 0L251.544 41.9175" stroke="#0056B8" stroke-width="3.5"/>
<path opacity="0.75" d="M293.468 0L335.392 41.9175" stroke="#0056B8" stroke-width="3.5"/>
<path opacity="0.71" d="M335.392 0L377.316 41.9175" stroke="#0056B8" stroke-width="3.5"/>
<path opacity="0.68" d="M419.24 0L377.316 41.9175" stroke="#0056B8" stroke-width="3.5"/>
<path opacity="0.64" d="M461.165 0L419.24 41.9175" stroke="#0056B8" stroke-width="3.5"/>
<path opacity="0.6" d="M503.089 0L461.165 41.9175" stroke="#0056B8" stroke-width="3.5"/>
<path opacity="0.57" d="M503.089 0L545.013 41.9175" stroke="#0056B8" stroke-width="3.5"/>
<path opacity="0.53" d="M586.937 0L545.013 41.9175" stroke="#0056B8" stroke-width="3.5"/>
<path opacity="0.49" d="M628.861 0L586.937 41.9175" stroke="#0056B8" stroke-width="3.5"/>
<path opacity="0.46" d="M670.785 0L628.861 41.9175" stroke="#0056B8" stroke-width="3.5"/>
<path opacity="0.42" d="M712.709 0L670.785 41.9175" stroke="#0056B8" stroke-width="3.5"/>
<path opacity="0.39" d="M712.709 0L754.633 41.9175" stroke="#0056B8" stroke-width="3.5"/>
<path opacity="0.35" d="M754.633 0L796.557 41.9175" stroke="#0056B8" stroke-width="3.5"/>
<path opacity="0.31" d="M796.557 0L838.481 41.9175" stroke="#0056B8" stroke-width="3.5"/>
<path opacity="0.28" d="M880.405 0L838.481 41.9175" stroke="#0056B8" stroke-width="3.5"/>
<path opacity="0.24" d="M880.405 0L922.329 41.9175" stroke="#0056B8" stroke-width="3.5"/>
<path opacity="0.21" d="M964.253 0L922.329 41.9175" stroke="#0056B8" stroke-width="3.5"/>
<path opacity="0.17" d="M1006.18 0L964.253 41.9175" stroke="#0056B8" stroke-width="3.5"/>
<path opacity="0.13" d="M1006.18 0L1048.1 41.9175" stroke="#0056B8" stroke-width="3.5"/>
<path opacity="0.1" d="M1048.1 0L1090.03 41.9175" stroke="#0056B8" stroke-width="3.5"/>
<path opacity="0.06" d="M1131.95 0L1090.03 41.9175" stroke="#0056B8" stroke-width="3.5"/>
<path d="M0 41.9175L41.9241 83.835" stroke="#0056B8" stroke-width="3.5"/>
<path opacity="0.96" d="M41.9241 41.9175L83.8481 83.835" stroke="#0056B8" stroke-width="3.5"/>
<path opacity="0.93" d="M83.8481 41.9175L125.772 83.835" stroke="#0056B8" stroke-width="3.5"/>
<path opacity="0.89" d="M167.696 41.9175L125.772 83.835" stroke="#0056B8" stroke-width="3.5"/>
<path opacity="0.86" d="M167.696 41.9175L209.62 83.835" stroke="#0056B8" stroke-width="3.5"/>
<path opacity="0.82" d="M209.62 41.9175L251.544 83.835" stroke="#0056B8" stroke-width="3.5"/>
<path opacity="0.78" d="M293.468 41.9175L251.544 83.835" stroke="#0056B8" stroke-width="3.5"/>
<path opacity="0.75" d="M293.468 41.9175L335.392 83.835" stroke="#0056B8" stroke-width="3.5"/>
<path opacity="0.71" d="M377.316 41.9175L335.392 83.835" stroke="#0056B8" stroke-width="3.5"/>
<path opacity="0.68" d="M377.316 41.9175L419.24 83.835" stroke="#0056B8" stroke-width="3.5"/>
<path opacity="0.64" d="M461.165 41.9175L419.24 83.835" stroke="#0056B8" stroke-width="3.5"/>
<path opacity="0.6" d="M461.165 41.9175L503.089 83.835" stroke="#0056B8" stroke-width="3.5"/>
<path opacity="0.57" d="M503.089 41.9175L545.013 83.835" stroke="#0056B8" stroke-width="3.5"/>
<path opacity="0.53" d="M545.013 41.9175L586.937 83.835" stroke="#0056B8" stroke-width="3.5"/>
<path opacity="0.49" d="M586.937 41.9175L628.861 83.835" stroke="#0056B8" stroke-width="3.5"/>
<path opacity="0.46" d="M670.785 41.9175L628.861 83.835" stroke="#0056B8" stroke-width="3.5"/>
<path opacity="0.42" d="M670.785 41.9175L712.709 83.835" stroke="#0056B8" stroke-width="3.5"/>
<path opacity="0.39" d="M712.709 41.9175L754.633 83.835" stroke="#0056B8" stroke-width="3.5"/>
<path opacity="0.35" d="M754.633 41.9175L796.557 83.835" stroke="#0056B8" stroke-width="3.5"/>
<path opacity="0.31" d="M796.557 41.9175L838.481 83.835" stroke="#0056B8" stroke-width="3.5"/>
<path opacity="0.28" d="M880.405 41.9175L838.481 83.835" stroke="#0056B8" stroke-width="3.5"/>
<path opacity="0.24" d="M922.329 41.9175L880.405 83.835" stroke="#0056B8" stroke-width="3.5"/>
<path opacity="0.21" d="M922.329 41.9175L964.253 83.835" stroke="#0056B8" stroke-width="3.5"/>
<path opacity="0.17" d="M964.253 41.9175L1006.18 83.835" stroke="#0056B8" stroke-width="3.5"/>
<path opacity="0.13" d="M1048.1 41.9175L1006.18 83.835" stroke="#0056B8" stroke-width="3.5"/>
<path opacity="0.1" d="M1048.1 41.9175L1090.03 83.835" stroke="#0056B8" stroke-width="3.5"/>
<path opacity="0.06" d="M1131.95 41.9175L1090.03 83.835" stroke="#0056B8" stroke-width="3.5"/>
<path d="M0 83.835L41.9241 125.752" stroke="#0056B8" stroke-width="3.5"/>
<path opacity="0.96" d="M41.9241 83.835L83.8481 125.752" stroke="#0056B8" stroke-width="3.5"/>
<path opacity="0.93" d="M83.8481 83.835L125.772 125.752" stroke="#0056B8" stroke-width="3.5"/>
<path opacity="0.89" d="M167.696 83.835L125.772 125.752" stroke="#0056B8" stroke-width="3.5"/>
<path opacity="0.86" d="M167.696 83.835L209.62 125.752" stroke="#0056B8" stroke-width="3.5"/>
<path opacity="0.82" d="M209.62 83.835L251.544 125.752" stroke="#0056B8" stroke-width="3.5"/>
<path opacity="0.78" d="M293.468 83.835L251.544 125.752" stroke="#0056B8" stroke-width="3.5"/>
<path opacity="0.75" d="M293.468 83.835L335.392 125.752" stroke="#0056B8" stroke-width="3.5"/>
<path opacity="0.71" d="M377.316 83.835L335.392 125.752" stroke="#0056B8" stroke-width="3.5"/>
<path opacity="0.68" d="M419.24 83.835L377.316 125.752" stroke="#0056B8" stroke-width="3.5"/>
<path opacity="0.64" d="M419.24 83.835L461.165 125.752" stroke="#0056B8" stroke-width="3.5"/>
<path opacity="0.6" d="M461.165 83.835L503.089 125.752" stroke="#0056B8" stroke-width="3.5"/>
<path opacity="0.57" d="M545.013 83.835L503.089 125.752" stroke="#0056B8" stroke-width="3.5"/>
<path opacity="0.53" d="M545.013 83.835L586.937 125.752" stroke="#0056B8" stroke-width="3.5"/>
<path opacity="0.49" d="M586.937 83.835L628.861 125.752" stroke="#0056B8" stroke-width="3.5"/>
<path opacity="0.46" d="M670.785 83.835L628.861 125.752" stroke="#0056B8" stroke-width="3.5"/>
<path opacity="0.42" d="M670.785 83.835L712.709 125.752" stroke="#0056B8" stroke-width="3.5"/>
<path opacity="0.39" d="M754.633 83.835L712.709 125.752" stroke="#0056B8" stroke-width="3.5"/>
<path opacity="0.35" d="M754.633 83.835L796.557 125.752" stroke="#0056B8" stroke-width="3.5"/>
<path opacity="0.31" d="M796.557 83.835L838.481 125.752" stroke="#0056B8" stroke-width="3.5"/>
<path opacity="0.28" d="M838.481 83.835L880.405 125.752" stroke="#0056B8" stroke-width="3.5"/>
<path opacity="0.24" d="M880.405 83.835L922.329 125.752" stroke="#0056B8" stroke-width="3.5"/>
<path opacity="0.21" d="M922.329 83.835L964.253 125.752" stroke="#0056B8" stroke-width="3.5"/>
<path opacity="0.17" d="M1006.18 83.835L964.253 125.752" stroke="#0056B8" stroke-width="3.5"/>
<path opacity="0.13" d="M1048.1 83.835L1006.18 125.752" stroke="#0056B8" stroke-width="3.5"/>
<path opacity="0.1" d="M1048.1 83.835L1090.03 125.752" stroke="#0056B8" stroke-width="3.5"/>
<path opacity="0.06" d="M1090.03 83.835L1131.95 125.752" stroke="#0056B8" stroke-width="3.5"/>
<path d="M41.9241 125.752L0 167.67" stroke="#0056B8" stroke-width="3.5"/>
<path opacity="0.96" d="M41.9241 125.752L83.8481 167.67" stroke="#0056B8" stroke-width="3.5"/>
<path opacity="0.93" d="M83.8481 125.752L125.772 167.67" stroke="#0056B8" stroke-width="3.5"/>
<path opacity="0.89" d="M125.772 125.752L167.696 167.67" stroke="#0056B8" stroke-width="3.5"/>
<path opacity="0.86" d="M167.696 125.752L209.62 167.67" stroke="#0056B8" stroke-width="3.5"/>
<path opacity="0.82" d="M209.62 125.752L251.544 167.67" stroke="#0056B8" stroke-width="3.5"/>
<path opacity="0.78" d="M251.544 125.752L293.468 167.67" stroke="#0056B8" stroke-width="3.5"/>
<path opacity="0.75" d="M293.468 125.752L335.392 167.67" stroke="#0056B8" stroke-width="3.5"/>
<path opacity="0.71" d="M335.392 125.752L377.316 167.67" stroke="#0056B8" stroke-width="3.5"/>
<path opacity="0.68" d="M377.316 125.752L419.24 167.67" stroke="#0056B8" stroke-width="3.5"/>
<path opacity="0.64" d="M461.165 125.752L419.24 167.67" stroke="#0056B8" stroke-width="3.5"/>
<path opacity="0.6" d="M503.089 125.752L461.165 167.67" stroke="#0056B8" stroke-width="3.5"/>
<path opacity="0.57" d="M503.089 125.752L545.013 167.67" stroke="#0056B8" stroke-width="3.5"/>
<path opacity="0.53" d="M586.937 125.752L545.013 167.67" stroke="#0056B8" stroke-width="3.5"/>
<path opacity="0.49" d="M586.937 125.752L628.861 167.67" stroke="#0056B8" stroke-width="3.5"/>
<path opacity="0.46" d="M670.785 125.752L628.861 167.67" stroke="#0056B8" stroke-width="3.5"/>
<path opacity="0.42" d="M670.785 125.752L712.709 167.67" stroke="#0056B8" stroke-width="3.5"/>
<path opacity="0.39" d="M712.709 125.752L754.633 167.67" stroke="#0056B8" stroke-width="3.5"/>
<path opacity="0.35" d="M796.557 125.752L754.633 167.67" stroke="#0056B8" stroke-width="3.5"/>
<path opacity="0.31" d="M796.557 125.752L838.481 167.67" stroke="#0056B8" stroke-width="3.5"/>
<path opacity="0.28" d="M838.481 125.752L880.405 167.67" stroke="#0056B8" stroke-width="3.5"/>
<path opacity="0.24" d="M922.329 125.752L880.405 167.67" stroke="#0056B8" stroke-width="3.5"/>
<path opacity="0.21" d="M922.329 125.752L964.253 167.67" stroke="#0056B8" stroke-width="3.5"/>
<path opacity="0.17" d="M964.253 125.752L1006.18 167.67" stroke="#0056B8" stroke-width="3.5"/>
<path opacity="0.13" d="M1006.18 125.752L1048.1 167.67" stroke="#0056B8" stroke-width="3.5"/>
<path opacity="0.1" d="M1048.1 125.752L1090.03 167.67" stroke="#0056B8" stroke-width="3.5"/>
<path opacity="0.06" d="M1090.03 125.752L1131.95 167.67" stroke="#0056B8" stroke-width="3.5"/>
<path d="M41.9241 167.67L0 209.587" stroke="#0056B8" stroke-width="3.5"/>
<path opacity="0.96" d="M83.8481 167.67L41.9241 209.587" stroke="#0056B8" stroke-width="3.5"/>
<path opacity="0.93" d="M125.772 167.67L83.8481 209.587" stroke="#0056B8" stroke-width="3.5"/>
<path opacity="0.89" d="M167.696 167.67L125.772 209.587" stroke="#0056B8" stroke-width="3.5"/>
<path opacity="0.86" d="M209.62 167.67L167.696 209.587" stroke="#0056B8" stroke-width="3.5"/>
<path opacity="0.82" d="M209.62 167.67L251.544 209.587" stroke="#0056B8" stroke-width="3.5"/>
<path opacity="0.78" d="M251.544 167.67L293.468 209.587" stroke="#0056B8" stroke-width="3.5"/>
<path opacity="0.75" d="M293.468 167.67L335.392 209.587" stroke="#0056B8" stroke-width="3.5"/>
<path opacity="0.71" d="M377.316 167.67L335.392 209.587" stroke="#0056B8" stroke-width="3.5"/>
<path opacity="0.68" d="M377.316 167.67L419.24 209.587" stroke="#0056B8" stroke-width="3.5"/>
<path opacity="0.64" d="M419.24 167.67L461.165 209.587" stroke="#0056B8" stroke-width="3.5"/>
<path opacity="0.6" d="M503.089 167.67L461.165 209.587" stroke="#0056B8" stroke-width="3.5"/>
<path opacity="0.57" d="M545.013 167.67L503.089 209.587" stroke="#0056B8" stroke-width="3.5"/>
<path opacity="0.53" d="M545.013 167.67L586.937 209.587" stroke="#0056B8" stroke-width="3.5"/>
<path opacity="0.49" d="M628.861 167.67L586.937 209.587" stroke="#0056B8" stroke-width="3.5"/>
<path opacity="0.46" d="M628.861 167.67L670.785 209.587" stroke="#0056B8" stroke-width="3.5"/>
<path opacity="0.42" d="M670.785 167.67L712.709 209.587" stroke="#0056B8" stroke-width="3.5"/>
<path opacity="0.39" d="M712.709 167.67L754.633 209.587" stroke="#0056B8" stroke-width="3.5"/>
<path opacity="0.35" d="M796.557 167.67L754.633 209.587" stroke="#0056B8" stroke-width="3.5"/>
<path opacity="0.31" d="M796.557 167.67L838.481 209.587" stroke="#0056B8" stroke-width="3.5"/>
<path opacity="0.28" d="M838.481 167.67L880.405 209.587" stroke="#0056B8" stroke-width="3.5"/>
<path opacity="0.24" d="M922.329 167.67L880.405 209.587" stroke="#0056B8" stroke-width="3.5"/>
<path opacity="0.21" d="M922.329 167.67L964.253 209.587" stroke="#0056B8" stroke-width="3.5"/>
<path opacity="0.17" d="M964.253 167.67L1006.18 209.587" stroke="#0056B8" stroke-width="3.5"/>
<path opacity="0.13" d="M1048.1 167.67L1006.18 209.587" stroke="#0056B8" stroke-width="3.5"/>
<path opacity="0.1" d="M1048.1 167.67L1090.03 209.587" stroke="#0056B8" stroke-width="3.5"/>
<path opacity="0.06" d="M1090.03 167.67L1131.95 209.587" stroke="#0056B8" stroke-width="3.5"/>
<path d="M41.9241 209.587L0 251.505" stroke="#0056B8" stroke-width="3.5"/>
<path opacity="0.96" d="M41.9241 209.587L83.8481 251.505" stroke="#0056B8" stroke-width="3.5"/>
<path opacity="0.93" d="M83.8481 209.587L125.772 251.505" stroke="#0056B8" stroke-width="3.5"/>
<path opacity="0.89" d="M167.696 209.587L125.772 251.505" stroke="#0056B8" stroke-width="3.5"/>
<path opacity="0.86" d="M209.62 209.587L167.696 251.505" stroke="#0056B8" stroke-width="3.5"/>
<path opacity="0.82" d="M209.62 209.587L251.544 251.505" stroke="#0056B8" stroke-width="3.5"/>
<path opacity="0.78" d="M251.544 209.587L293.468 251.505" stroke="#0056B8" stroke-width="3.5"/>
<path opacity="0.75" d="M335.392 209.587L293.468 251.505" stroke="#0056B8" stroke-width="3.5"/>
<path opacity="0.71" d="M335.392 209.587L377.316 251.505" stroke="#0056B8" stroke-width="3.5"/>
<path opacity="0.68" d="M419.24 209.587L377.316 251.505" stroke="#0056B8" stroke-width="3.5"/>
<path opacity="0.64" d="M419.24 209.587L461.165 251.505" stroke="#0056B8" stroke-width="3.5"/>
<path opacity="0.6" d="M503.089 209.587L461.165 251.505" stroke="#0056B8" stroke-width="3.5"/>
<path opacity="0.57" d="M503.089 209.587L545.013 251.505" stroke="#0056B8" stroke-width="3.5"/>
<path opacity="0.53" d="M545.013 209.587L586.937 251.505" stroke="#0056B8" stroke-width="3.5"/>
<path opacity="0.49" d="M586.937 209.587L628.861 251.505" stroke="#0056B8" stroke-width="3.5"/>
<path opacity="0.46" d="M628.861 209.587L670.785 251.505" stroke="#0056B8" stroke-width="3.5"/>
<path opacity="0.42" d="M670.785 209.587L712.709 251.505" stroke="#0056B8" stroke-width="3.5"/>
<path opacity="0.39" d="M712.709 209.587L754.633 251.505" stroke="#0056B8" stroke-width="3.5"/>
<path opacity="0.35" d="M754.633 209.587L796.557 251.505" stroke="#0056B8" stroke-width="3.5"/>
<path opacity="0.31" d="M796.557 209.587L838.481 251.505" stroke="#0056B8" stroke-width="3.5"/>
<path opacity="0.28" d="M880.405 209.587L838.481 251.505" stroke="#0056B8" stroke-width="3.5"/>
<path opacity="0.24" d="M880.405 209.587L922.329 251.505" stroke="#0056B8" stroke-width="3.5"/>
<path opacity="0.21" d="M922.329 209.587L964.253 251.505" stroke="#0056B8" stroke-width="3.5"/>
<path opacity="0.17" d="M964.253 209.587L1006.18 251.505" stroke="#0056B8" stroke-width="3.5"/>
<path opacity="0.13" d="M1006.18 209.587L1048.1 251.505" stroke="#0056B8" stroke-width="3.5"/>
<path opacity="0.1" d="M1048.1 209.587L1090.03 251.505" stroke="#0056B8" stroke-width="3.5"/>
<path opacity="0.06" d="M1090.03 209.587L1131.95 251.505" stroke="#0056B8" stroke-width="3.5"/>
<path d="M41.9241 251.505L0 293.422" stroke="#0056B8" stroke-width="3.5"/>
<path opacity="0.96" d="M41.9241 251.505L83.8481 293.422" stroke="#0056B8" stroke-width="3.5"/>
<path opacity="0.93" d="M83.8481 251.505L125.772 293.422" stroke="#0056B8" stroke-width="3.5"/>
<path opacity="0.89" d="M125.772 251.505L167.696 293.422" stroke="#0056B8" stroke-width="3.5"/>
<path opacity="0.86" d="M209.62 251.505L167.696 293.422" stroke="#0056B8" stroke-width="3.5"/>
<path opacity="0.82" d="M209.62 251.505L251.544 293.422" stroke="#0056B8" stroke-width="3.5"/>
<path opacity="0.78" d="M251.544 251.505L293.468 293.422" stroke="#0056B8" stroke-width="3.5"/>
<path opacity="0.75" d="M293.468 251.505L335.392 293.422" stroke="#0056B8" stroke-width="3.5"/>
<path opacity="0.71" d="M335.392 251.505L377.316 293.422" stroke="#0056B8" stroke-width="3.5"/>
<path opacity="0.68" d="M377.316 251.505L419.24 293.422" stroke="#0056B8" stroke-width="3.5"/>
<path opacity="0.64" d="M461.165 251.505L419.24 293.422" stroke="#0056B8" stroke-width="3.5"/>
<path opacity="0.6" d="M461.165 251.505L503.089 293.422" stroke="#0056B8" stroke-width="3.5"/>
<path opacity="0.57" d="M545.013 251.505L503.089 293.422" stroke="#0056B8" stroke-width="3.5"/>
<path opacity="0.53" d="M586.937 251.505L545.013 293.422" stroke="#0056B8" stroke-width="3.5"/>
<path opacity="0.49" d="M628.861 251.505L586.937 293.422" stroke="#0056B8" stroke-width="3.5"/>
<path opacity="0.46" d="M670.785 251.505L628.861 293.422" stroke="#0056B8" stroke-width="3.5"/>
<path opacity="0.42" d="M712.709 251.505L670.785 293.422" stroke="#0056B8" stroke-width="3.5"/>
<path opacity="0.39" d="M712.709 251.505L754.633 293.422" stroke="#0056B8" stroke-width="3.5"/>
<path opacity="0.35" d="M754.633 251.505L796.557 293.422" stroke="#0056B8" stroke-width="3.5"/>
<path opacity="0.31" d="M796.557 251.505L838.481 293.422" stroke="#0056B8" stroke-width="3.5"/>
<path opacity="0.28" d="M838.481 251.505L880.405 293.422" stroke="#0056B8" stroke-width="3.5"/>
<path opacity="0.24" d="M922.329 251.505L880.405 293.422" stroke="#0056B8" stroke-width="3.5"/>
<path opacity="0.21" d="M922.329 251.505L964.253 293.422" stroke="#0056B8" stroke-width="3.5"/>
<path opacity="0.17" d="M1006.18 251.505L964.253 293.422" stroke="#0056B8" stroke-width="3.5"/>
<path opacity="0.13" d="M1048.1 251.505L1006.18 293.422" stroke="#0056B8" stroke-width="3.5"/>
<path opacity="0.1" d="M1048.1 251.505L1090.03 293.422" stroke="#0056B8" stroke-width="3.5"/>
<path opacity="0.06" d="M1090.03 251.505L1131.95 293.422" stroke="#0056B8" stroke-width="3.5"/>
<path d="M0 293.422L41.9241 335.34" stroke="#0056B8" stroke-width="3.5"/>
<path opacity="0.96" d="M41.9241 293.422L83.8481 335.34" stroke="#0056B8" stroke-width="3.5"/>
<path opacity="0.93" d="M83.8481 293.422L125.772 335.34" stroke="#0056B8" stroke-width="3.5"/>
<path opacity="0.89" d="M167.696 293.422L125.772 335.34" stroke="#0056B8" stroke-width="3.5"/>
<path opacity="0.86" d="M209.62 293.422L167.696 335.34" stroke="#0056B8" stroke-width="3.5"/>
<path opacity="0.82" d="M209.62 293.422L251.544 335.34" stroke="#0056B8" stroke-width="3.5"/>
<path opacity="0.78" d="M251.544 293.422L293.468 335.34" stroke="#0056B8" stroke-width="3.5"/>
<path opacity="0.75" d="M293.468 293.422L335.392 335.34" stroke="#0056B8" stroke-width="3.5"/>
<path opacity="0.71" d="M335.392 293.422L377.316 335.34" stroke="#0056B8" stroke-width="3.5"/>
<path opacity="0.68" d="M377.316 293.422L419.24 335.34" stroke="#0056B8" stroke-width="3.5"/>
<path opacity="0.64" d="M419.24 293.422L461.165 335.34" stroke="#0056B8" stroke-width="3.5"/>
<path opacity="0.6" d="M461.165 293.422L503.089 335.34" stroke="#0056B8" stroke-width="3.5"/>
<path opacity="0.57" d="M503.089 293.422L545.013 335.34" stroke="#0056B8" stroke-width="3.5"/>
<path opacity="0.53" d="M586.937 293.422L545.013 335.34" stroke="#0056B8" stroke-width="3.5"/>
<path opacity="0.49" d="M586.937 293.422L628.861 335.34" stroke="#0056B8" stroke-width="3.5"/>
<path opacity="0.46" d="M670.785 293.422L628.861 335.34" stroke="#0056B8" stroke-width="3.5"/>
<path opacity="0.42" d="M670.785 293.422L712.709 335.34" stroke="#0056B8" stroke-width="3.5"/>
<path opacity="0.39" d="M754.633 293.422L712.709 335.34" stroke="#0056B8" stroke-width="3.5"/>
<path opacity="0.35" d="M754.633 293.422L796.557 335.34" stroke="#0056B8" stroke-width="3.5"/>
<path opacity="0.31" d="M838.481 293.422L796.557 335.34" stroke="#0056B8" stroke-width="3.5"/>
<path opacity="0.28" d="M838.481 293.422L880.405 335.34" stroke="#0056B8" stroke-width="3.5"/>
<path opacity="0.24" d="M922.329 293.422L880.405 335.34" stroke="#0056B8" stroke-width="3.5"/>
<path opacity="0.21" d="M964.253 293.422L922.329 335.34" stroke="#0056B8" stroke-width="3.5"/>
<path opacity="0.17" d="M964.253 293.422L1006.18 335.34" stroke="#0056B8" stroke-width="3.5"/>
<path opacity="0.13" d="M1048.1 293.422L1006.18 335.34" stroke="#0056B8" stroke-width="3.5"/>
<path opacity="0.1" d="M1048.1 293.422L1090.03 335.34" stroke="#0056B8" stroke-width="3.5"/>
<path opacity="0.06" d="M1131.95 293.422L1090.03 335.34" stroke="#0056B8" stroke-width="3.5"/>
<path d="M41.9241 335.34L0 377.258" stroke="#0056B8" stroke-width="3.5"/>
<path opacity="0.96" d="M41.9241 335.34L83.8481 377.258" stroke="#0056B8" stroke-width="3.5"/>
<path opacity="0.93" d="M83.8481 335.34L125.772 377.258" stroke="#0056B8" stroke-width="3.5"/>
<path opacity="0.89" d="M125.772 335.34L167.696 377.258" stroke="#0056B8" stroke-width="3.5"/>
<path opacity="0.86" d="M167.696 335.34L209.62 377.258" stroke="#0056B8" stroke-width="3.5"/>
<path opacity="0.82" d="M209.62 335.34L251.544 377.258" stroke="#0056B8" stroke-width="3.5"/>
<path opacity="0.78" d="M293.468 335.34L251.544 377.258" stroke="#0056B8" stroke-width="3.5"/>
<path opacity="0.75" d="M293.468 335.34L335.392 377.258" stroke="#0056B8" stroke-width="3.5"/>
<path opacity="0.71" d="M335.392 335.34L377.316 377.258" stroke="#0056B8" stroke-width="3.5"/>
<path opacity="0.68" d="M377.316 335.34L419.24 377.258" stroke="#0056B8" stroke-width="3.5"/>
<path opacity="0.64" d="M419.24 335.34L461.165 377.258" stroke="#0056B8" stroke-width="3.5"/>
<path opacity="0.6" d="M461.165 335.34L503.089 377.258" stroke="#0056B8" stroke-width="3.5"/>
<path opacity="0.57" d="M545.013 335.34L503.089 377.258" stroke="#0056B8" stroke-width="3.5"/>
<path opacity="0.53" d="M586.937 335.34L545.013 377.258" stroke="#0056B8" stroke-width="3.5"/>
<path opacity="0.49" d="M628.861 335.34L586.937 377.258" stroke="#0056B8" stroke-width="3.5"/>
<path opacity="0.46" d="M670.785 335.34L628.861 377.258" stroke="#0056B8" stroke-width="3.5"/>
<path opacity="0.42" d="M712.709 335.34L670.785 377.258" stroke="#0056B8" stroke-width="3.5"/>
<path opacity="0.39" d="M754.633 335.34L712.709 377.258" stroke="#0056B8" stroke-width="3.5"/>
<path opacity="0.35" d="M796.557 335.34L754.633 377.258" stroke="#0056B8" stroke-width="3.5"/>
<path opacity="0.31" d="M838.481 335.34L796.557 377.258" stroke="#0056B8" stroke-width="3.5"/>
<path opacity="0.28" d="M838.481 335.34L880.405 377.258" stroke="#0056B8" stroke-width="3.5"/>
<path opacity="0.24" d="M880.405 335.34L922.329 377.258" stroke="#0056B8" stroke-width="3.5"/>
<path opacity="0.21" d="M922.329 335.34L964.253 377.258" stroke="#0056B8" stroke-width="3.5"/>
<path opacity="0.17" d="M1006.18 335.34L964.253 377.258" stroke="#0056B8" stroke-width="3.5"/>
<path opacity="0.13" d="M1006.18 335.34L1048.1 377.258" stroke="#0056B8" stroke-width="3.5"/>
<path opacity="0.1" d="M1090.03 335.34L1048.1 377.258" stroke="#0056B8" stroke-width="3.5"/>
<path opacity="0.06" d="M1090.03 335.34L1131.95 377.258" stroke="#0056B8" stroke-width="3.5"/>
<path d="M0 377.258L41.9241 419.175" stroke="#0056B8" stroke-width="3.5"/>
<path opacity="0.96" d="M83.8481 377.258L41.9241 419.175" stroke="#0056B8" stroke-width="3.5"/>
<path opacity="0.93" d="M125.772 377.258L83.8481 419.175" stroke="#0056B8" stroke-width="3.5"/>
<path opacity="0.89" d="M125.772 377.258L167.696 419.175" stroke="#0056B8" stroke-width="3.5"/>
<path opacity="0.86" d="M167.696 377.258L209.62 419.175" stroke="#0056B8" stroke-width="3.5"/>
<path opacity="0.82" d="M209.62 377.258L251.544 419.175" stroke="#0056B8" stroke-width="3.5"/>
<path opacity="0.78" d="M293.468 377.258L251.544 419.175" stroke="#0056B8" stroke-width="3.5"/>
<path opacity="0.75" d="M335.392 377.258L293.468 419.175" stroke="#0056B8" stroke-width="3.5"/>
<path opacity="0.71" d="M377.316 377.258L335.392 419.175" stroke="#0056B8" stroke-width="3.5"/>
<path opacity="0.68" d="M419.24 377.258L377.316 419.175" stroke="#0056B8" stroke-width="3.5"/>
<path opacity="0.64" d="M419.24 377.258L461.165 419.175" stroke="#0056B8" stroke-width="3.5"/>
<path opacity="0.6" d="M461.165 377.258L503.089 419.175" stroke="#0056B8" stroke-width="3.5"/>
<path opacity="0.57" d="M503.089 377.258L545.013 419.175" stroke="#0056B8" stroke-width="3.5"/>
<path opacity="0.53" d="M545.013 377.258L586.937 419.175" stroke="#0056B8" stroke-width="3.5"/>
<path opacity="0.49" d="M628.861 377.258L586.937 419.175" stroke="#0056B8" stroke-width="3.5"/>
<path opacity="0.46" d="M628.861 377.258L670.785 419.175" stroke="#0056B8" stroke-width="3.5"/>
<path opacity="0.42" d="M670.785 377.258L712.709 419.175" stroke="#0056B8" stroke-width="3.5"/>
<path opacity="0.39" d="M754.633 377.258L712.709 419.175" stroke="#0056B8" stroke-width="3.5"/>
<path opacity="0.35" d="M754.633 377.258L796.557 419.175" stroke="#0056B8" stroke-width="3.5"/>
<path opacity="0.31" d="M838.481 377.258L796.557 419.175" stroke="#0056B8" stroke-width="3.5"/>
<path opacity="0.28" d="M880.405 377.258L838.481 419.175" stroke="#0056B8" stroke-width="3.5"/>
<path opacity="0.24" d="M880.405 377.258L922.329 419.175" stroke="#0056B8" stroke-width="3.5"/>
<path opacity="0.21" d="M964.253 377.258L922.329 419.175" stroke="#0056B8" stroke-width="3.5"/>
<path opacity="0.17" d="M964.253 377.258L1006.18 419.175" stroke="#0056B8" stroke-width="3.5"/>
<path opacity="0.13" d="M1006.18 377.258L1048.1 419.175" stroke="#0056B8" stroke-width="3.5"/>
<path opacity="0.1" d="M1090.03 377.258L1048.1 419.175" stroke="#0056B8" stroke-width="3.5"/>
<path opacity="0.06" d="M1090.03 377.258L1131.95 419.175" stroke="#0056B8" stroke-width="3.5"/>
<path d="M41.9241 419.175L0 461.093" stroke="#0056B8" stroke-width="3.5"/>
<path opacity="0.96" d="M83.8481 419.175L41.9241 461.093" stroke="#0056B8" stroke-width="3.5"/>
<path opacity="0.93" d="M125.772 419.175L83.8481 461.093" stroke="#0056B8" stroke-width="3.5"/>
<path opacity="0.89" d="M125.772 419.175L167.696 461.093" stroke="#0056B8" stroke-width="3.5"/>
<path opacity="0.86" d="M209.62 419.175L167.696 461.093" stroke="#0056B8" stroke-width="3.5"/>
<path opacity="0.82" d="M209.62 419.175L251.544 461.093" stroke="#0056B8" stroke-width="3.5"/>
<path opacity="0.78" d="M293.468 419.175L251.544 461.093" stroke="#0056B8" stroke-width="3.5"/>
<path opacity="0.75" d="M335.392 419.175L293.468 461.093" stroke="#0056B8" stroke-width="3.5"/>
<path opacity="0.71" d="M335.392 419.175L377.316 461.093" stroke="#0056B8" stroke-width="3.5"/>
<path opacity="0.68" d="M419.24 419.175L377.316 461.093" stroke="#0056B8" stroke-width="3.5"/>
<path opacity="0.64" d="M461.165 419.175L419.24 461.093" stroke="#0056B8" stroke-width="3.5"/>
<path opacity="0.6" d="M461.165 419.175L503.089 461.093" stroke="#0056B8" stroke-width="3.5"/>
<path opacity="0.57" d="M545.013 419.175L503.089 461.093" stroke="#0056B8" stroke-width="3.5"/>
<path opacity="0.53" d="M545.013 419.175L586.937 461.093" stroke="#0056B8" stroke-width="3.5"/>
<path opacity="0.49" d="M586.937 419.175L628.861 461.093" stroke="#0056B8" stroke-width="3.5"/>
<path opacity="0.46" d="M670.785 419.175L628.861 461.093" stroke="#0056B8" stroke-width="3.5"/>
<path opacity="0.42" d="M670.785 419.175L712.709 461.093" stroke="#0056B8" stroke-width="3.5"/>
<path opacity="0.39" d="M712.709 419.175L754.633 461.093" stroke="#0056B8" stroke-width="3.5"/>
<path opacity="0.35" d="M754.633 419.175L796.557 461.093" stroke="#0056B8" stroke-width="3.5"/>
<path opacity="0.31" d="M796.557 419.175L838.481 461.093" stroke="#0056B8" stroke-width="3.5"/>
<path opacity="0.28" d="M838.481 419.175L880.405 461.093" stroke="#0056B8" stroke-width="3.5"/>
<path opacity="0.24" d="M880.405 419.175L922.329 461.093" stroke="#0056B8" stroke-width="3.5"/>
<path opacity="0.21" d="M964.253 419.175L922.329 461.093" stroke="#0056B8" stroke-width="3.5"/>
<path opacity="0.17" d="M964.253 419.175L1006.18 461.093" stroke="#0056B8" stroke-width="3.5"/>
<path opacity="0.13" d="M1048.1 419.175L1006.18 461.093" stroke="#0056B8" stroke-width="3.5"/>
<path opacity="0.1" d="M1048.1 419.175L1090.03 461.093" stroke="#0056B8" stroke-width="3.5"/>
<path opacity="0.06" d="M1090.03 419.175L1131.95 461.093" stroke="#0056B8" stroke-width="3.5"/>
<path d="M0 461.093L41.9241 503.01" stroke="#0056B8" stroke-width="3.5"/>
<path opacity="0.96" d="M83.8481 461.093L41.9241 503.01" stroke="#0056B8" stroke-width="3.5"/>
<path opacity="0.93" d="M125.772 461.093L83.8481 503.01" stroke="#0056B8" stroke-width="3.5"/>
<path opacity="0.89" d="M167.696 461.093L125.772 503.01" stroke="#0056B8" stroke-width="3.5"/>
<path opacity="0.86" d="M209.62 461.093L167.696 503.01" stroke="#0056B8" stroke-width="3.5"/>
<path opacity="0.82" d="M209.62 461.093L251.544 503.01" stroke="#0056B8" stroke-width="3.5"/>
<path opacity="0.78" d="M293.468 461.093L251.544 503.01" stroke="#0056B8" stroke-width="3.5"/>
<path opacity="0.75" d="M335.392 461.093L293.468 503.01" stroke="#0056B8" stroke-width="3.5"/>
<path opacity="0.71" d="M335.392 461.093L377.316 503.01" stroke="#0056B8" stroke-width="3.5"/>
<path opacity="0.68" d="M377.316 461.093L419.24 503.01" stroke="#0056B8" stroke-width="3.5"/>
<path opacity="0.64" d="M461.165 461.093L419.24 503.01" stroke="#0056B8" stroke-width="3.5"/>
<path opacity="0.6" d="M503.089 461.093L461.165 503.01" stroke="#0056B8" stroke-width="3.5"/>
<path opacity="0.57" d="M545.013 461.093L503.089 503.01" stroke="#0056B8" stroke-width="3.5"/>
<path opacity="0.53" d="M545.013 461.093L586.937 503.01" stroke="#0056B8" stroke-width="3.5"/>
<path opacity="0.49" d="M586.937 461.093L628.861 503.01" stroke="#0056B8" stroke-width="3.5"/>
<path opacity="0.46" d="M670.785 461.093L628.861 503.01" stroke="#0056B8" stroke-width="3.5"/>
<path opacity="0.42" d="M670.785 461.093L712.709 503.01" stroke="#0056B8" stroke-width="3.5"/>
<path opacity="0.39" d="M712.709 461.093L754.633 503.01" stroke="#0056B8" stroke-width="3.5"/>
<path opacity="0.35" d="M754.633 461.093L796.557 503.01" stroke="#0056B8" stroke-width="3.5"/>
<path opacity="0.31" d="M838.481 461.093L796.557 503.01" stroke="#0056B8" stroke-width="3.5"/>
<path opacity="0.28" d="M880.405 461.093L838.481 503.01" stroke="#0056B8" stroke-width="3.5"/>
<path opacity="0.24" d="M880.405 461.093L922.329 503.01" stroke="#0056B8" stroke-width="3.5"/>
<path opacity="0.21" d="M922.329 461.093L964.253 503.01" stroke="#0056B8" stroke-width="3.5"/>
<path opacity="0.17" d="M964.253 461.093L1006.18 503.01" stroke="#0056B8" stroke-width="3.5"/>
<path opacity="0.13" d="M1006.18 461.093L1048.1 503.01" stroke="#0056B8" stroke-width="3.5"/>
<path opacity="0.1" d="M1090.03 461.093L1048.1 503.01" stroke="#0056B8" stroke-width="3.5"/>
<path opacity="0.06" d="M1131.95 461.093L1090.03 503.01" stroke="#0056B8" stroke-width="3.5"/>
<path d="M0 503.01L41.9241 544.927" stroke="#0056B8" stroke-width="3.5"/>
<path opacity="0.96" d="M83.8481 503.01L41.9241 544.927" stroke="#0056B8" stroke-width="3.5"/>
<path opacity="0.93" d="M83.8481 503.01L125.772 544.927" stroke="#0056B8" stroke-width="3.5"/>
<path opacity="0.89" d="M125.772 503.01L167.696 544.927" stroke="#0056B8" stroke-width="3.5"/>
<path opacity="0.86" d="M209.62 503.01L167.696 544.927" stroke="#0056B8" stroke-width="3.5"/>
<path opacity="0.82" d="M209.62 503.01L251.544 544.927" stroke="#0056B8" stroke-width="3.5"/>
<path opacity="0.78" d="M251.544 503.01L293.468 544.927" stroke="#0056B8" stroke-width="3.5"/>
<path opacity="0.75" d="M293.468 503.01L335.392 544.927" stroke="#0056B8" stroke-width="3.5"/>
<path opacity="0.71" d="M377.316 503.01L335.392 544.927" stroke="#0056B8" stroke-width="3.5"/>
<path opacity="0.68" d="M419.24 503.01L377.316 544.927" stroke="#0056B8" stroke-width="3.5"/>
<path opacity="0.64" d="M419.24 503.01L461.165 544.927" stroke="#0056B8" stroke-width="3.5"/>
<path opacity="0.6" d="M461.165 503.01L503.089 544.927" stroke="#0056B8" stroke-width="3.5"/>
<path opacity="0.57" d="M545.013 503.01L503.089 544.927" stroke="#0056B8" stroke-width="3.5"/>
<path opacity="0.53" d="M545.013 503.01L586.937 544.927" stroke="#0056B8" stroke-width="3.5"/>
<path opacity="0.49" d="M586.937 503.01L628.861 544.927" stroke="#0056B8" stroke-width="3.5"/>
<path opacity="0.46" d="M670.785 503.01L628.861 544.927" stroke="#0056B8" stroke-width="3.5"/>
<path opacity="0.42" d="M712.709 503.01L670.785 544.927" stroke="#0056B8" stroke-width="3.5"/>
<path opacity="0.39" d="M754.633 503.01L712.709 544.927" stroke="#0056B8" stroke-width="3.5"/>
<path opacity="0.35" d="M754.633 503.01L796.557 544.927" stroke="#0056B8" stroke-width="3.5"/>
<path opacity="0.31" d="M796.557 503.01L838.481 544.927" stroke="#0056B8" stroke-width="3.5"/>
<path opacity="0.28" d="M880.405 503.01L838.481 544.927" stroke="#0056B8" stroke-width="3.5"/>
<path opacity="0.24" d="M880.405 503.01L922.329 544.927" stroke="#0056B8" stroke-width="3.5"/>
<path opacity="0.21" d="M922.329 503.01L964.253 544.927" stroke="#0056B8" stroke-width="3.5"/>
<path opacity="0.17" d="M1006.18 503.01L964.253 544.927" stroke="#0056B8" stroke-width="3.5"/>
<path opacity="0.13" d="M1006.18 503.01L1048.1 544.927" stroke="#0056B8" stroke-width="3.5"/>
<path opacity="0.1" d="M1090.03 503.01L1048.1 544.927" stroke="#0056B8" stroke-width="3.5"/>
<path opacity="0.06" d="M1131.95 503.01L1090.03 544.927" stroke="#0056B8" stroke-width="3.5"/>
<path d="M41.9241 544.927L0 586.845" stroke="#0056B8" stroke-width="3.5"/>
<path opacity="0.96" d="M83.8481 544.927L41.9241 586.845" stroke="#0056B8" stroke-width="3.5"/>
<path opacity="0.93" d="M125.772 544.927L83.8481 586.845" stroke="#0056B8" stroke-width="3.5"/>
<path opacity="0.89" d="M125.772 544.927L167.696 586.845" stroke="#0056B8" stroke-width="3.5"/>
<path opacity="0.86" d="M209.62 544.927L167.696 586.845" stroke="#0056B8" stroke-width="3.5"/>
<path opacity="0.82" d="M209.62 544.927L251.544 586.845" stroke="#0056B8" stroke-width="3.5"/>
<path opacity="0.78" d="M251.544 544.927L293.468 586.845" stroke="#0056B8" stroke-width="3.5"/>
<path opacity="0.75" d="M335.392 544.927L293.468 586.845" stroke="#0056B8" stroke-width="3.5"/>
<path opacity="0.71" d="M335.392 544.927L377.316 586.845" stroke="#0056B8" stroke-width="3.5"/>
<path opacity="0.68" d="M377.316 544.927L419.24 586.845" stroke="#0056B8" stroke-width="3.5"/>
<path opacity="0.64" d="M461.165 544.927L419.24 586.845" stroke="#0056B8" stroke-width="3.5"/>
<path opacity="0.6" d="M503.089 544.927L461.165 586.845" stroke="#0056B8" stroke-width="3.5"/>
<path opacity="0.57" d="M503.089 544.927L545.013 586.845" stroke="#0056B8" stroke-width="3.5"/>
<path opacity="0.53" d="M545.013 544.927L586.937 586.845" stroke="#0056B8" stroke-width="3.5"/>
<path opacity="0.49" d="M586.937 544.927L628.861 586.845" stroke="#0056B8" stroke-width="3.5"/>
<path opacity="0.46" d="M628.861 544.927L670.785 586.845" stroke="#0056B8" stroke-width="3.5"/>
<path opacity="0.42" d="M670.785 544.927L712.709 586.845" stroke="#0056B8" stroke-width="3.5"/>
<path opacity="0.39" d="M754.633 544.927L712.709 586.845" stroke="#0056B8" stroke-width="3.5"/>
<path opacity="0.35" d="M796.557 544.927L754.633 586.845" stroke="#0056B8" stroke-width="3.5"/>
<path opacity="0.31" d="M796.557 544.927L838.481 586.845" stroke="#0056B8" stroke-width="3.5"/>
<path opacity="0.28" d="M838.481 544.927L880.405 586.845" stroke="#0056B8" stroke-width="3.5"/>
<path opacity="0.24" d="M922.329 544.927L880.405 586.845" stroke="#0056B8" stroke-width="3.5"/>
<path opacity="0.21" d="M964.253 544.927L922.329 586.845" stroke="#0056B8" stroke-width="3.5"/>
<path opacity="0.17" d="M1006.18 544.927L964.253 586.845" stroke="#0056B8" stroke-width="3.5"/>
<path opacity="0.13" d="M1048.1 544.927L1006.18 586.845" stroke="#0056B8" stroke-width="3.5"/>
<path opacity="0.1" d="M1090.03 544.927L1048.1 586.845" stroke="#0056B8" stroke-width="3.5"/>
<path opacity="0.06" d="M1090.03 544.927L1131.95 586.845" stroke="#0056B8" stroke-width="3.5"/>
<path d="M0 586.845L41.9241 628.762" stroke="#0056B8" stroke-width="3.5"/>
<path opacity="0.96" d="M41.9241 586.845L83.8481 628.762" stroke="#0056B8" stroke-width="3.5"/>
<path opacity="0.93" d="M83.8481 586.845L125.772 628.762" stroke="#0056B8" stroke-width="3.5"/>
<path opacity="0.89" d="M125.772 586.845L167.696 628.762" stroke="#0056B8" stroke-width="3.5"/>
<path opacity="0.86" d="M209.62 586.845L167.696 628.762" stroke="#0056B8" stroke-width="3.5"/>
<path opacity="0.82" d="M209.62 586.845L251.544 628.762" stroke="#0056B8" stroke-width="3.5"/>
<path opacity="0.78" d="M251.544 586.845L293.468 628.762" stroke="#0056B8" stroke-width="3.5"/>
<path opacity="0.75" d="M335.392 586.845L293.468 628.762" stroke="#0056B8" stroke-width="3.5"/>
<path opacity="0.71" d="M335.392 586.845L377.316 628.762" stroke="#0056B8" stroke-width="3.5"/>
<path opacity="0.68" d="M419.24 586.845L377.316 628.762" stroke="#0056B8" stroke-width="3.5"/>
<path opacity="0.64" d="M461.165 586.845L419.24 628.762" stroke="#0056B8" stroke-width="3.5"/>
<path opacity="0.6" d="M461.165 586.845L503.089 628.762" stroke="#0056B8" stroke-width="3.5"/>
<path opacity="0.57" d="M545.013 586.845L503.089 628.762" stroke="#0056B8" stroke-width="3.5"/>
<path opacity="0.53" d="M586.937 586.845L545.013 628.762" stroke="#0056B8" stroke-width="3.5"/>
<path opacity="0.49" d="M586.937 586.845L628.861 628.762" stroke="#0056B8" stroke-width="3.5"/>
<path opacity="0.46" d="M670.785 586.845L628.861 628.762" stroke="#0056B8" stroke-width="3.5"/>
<path opacity="0.42" d="M670.785 586.845L712.709 628.762" stroke="#0056B8" stroke-width="3.5"/>
<path opacity="0.39" d="M754.633 586.845L712.709 628.762" stroke="#0056B8" stroke-width="3.5"/>
<path opacity="0.35" d="M796.557 586.845L754.633 628.762" stroke="#0056B8" stroke-width="3.5"/>
<path opacity="0.31" d="M796.557 586.845L838.481 628.762" stroke="#0056B8" stroke-width="3.5"/>
<path opacity="0.28" d="M880.405 586.845L838.481 628.762" stroke="#0056B8" stroke-width="3.5"/>
<path opacity="0.24" d="M880.405 586.845L922.329 628.762" stroke="#0056B8" stroke-width="3.5"/>
<path opacity="0.21" d="M922.329 586.845L964.253 628.762" stroke="#0056B8" stroke-width="3.5"/>
<path opacity="0.17" d="M964.253 586.845L1006.18 628.762" stroke="#0056B8" stroke-width="3.5"/>
<path opacity="0.13" d="M1006.18 586.845L1048.1 628.762" stroke="#0056B8" stroke-width="3.5"/>
<path opacity="0.1" d="M1048.1 586.845L1090.03 628.762" stroke="#0056B8" stroke-width="3.5"/>
<path opacity="0.06" d="M1090.03 586.845L1131.95 628.762" stroke="#0056B8" stroke-width="3.5"/>
</g>
<defs>
<clipPath id="clip0_84_417">
<rect width="1104" height="621" fill="white"/>
</clipPath>
</defs>
</svg>
