<svg width="351" height="160" viewBox="0 0 351 160" fill="none" xmlns="http://www.w3.org/2000/svg">
<path d="M24.5158 21.136H25.8064V26.4272H13.1589V21.136H15.0948L14.5786 18.5549H10.1907L9.67445 21.136H11.6103V26.4272H0.57605V21.136H1.8666L7.31919 1.32598H19.0632L24.5158 21.136ZM10.9005 15.1349H13.8687L12.5459 8.71439H12.2233L10.9005 15.1349Z" fill="url(#paint0_linear_167_15)"/>
<path d="M48.1866 21.136V26.4272H37.9912V21.136H39.3463V15.8447C39.3463 15.1349 39.1958 14.6187 38.8946 14.296C38.5935 13.9519 38.1418 13.7798 37.5396 13.7798C36.249 13.7798 35.6037 14.4681 35.6037 15.8447V21.136H36.9588V26.4272H26.7634V21.136H28.183V13.7798H26.7634V8.48855H35.6037V11.0051C37.1524 9.02628 39.0882 8.03685 41.4112 8.03685C43.1965 8.03685 44.5301 8.59609 45.4119 9.71457C46.3153 10.8331 46.767 12.371 46.767 14.3283V21.136H48.1866Z" fill="url(#paint1_linear_167_15)"/>
<path d="M70.6516 21.136V26.4272H60.4562V21.136H61.8113V15.8447C61.8113 15.1349 61.6607 14.6187 61.3596 14.296C61.0585 13.9519 60.6068 13.7798 60.0045 13.7798C58.714 13.7798 58.0687 14.4681 58.0687 15.8447V21.136H59.4238V26.4272H49.2284V21.136H50.648V13.7798H49.2284V8.48855H58.0687V11.0051C59.6173 9.02628 61.5532 8.03685 63.8762 8.03685C65.6614 8.03685 66.995 8.59609 67.8769 9.71457C68.7803 10.8331 69.232 12.371 69.232 14.3283V21.136H70.6516Z" fill="url(#paint2_linear_167_15)"/>
<path d="M92.9229 21.136V26.4272H84.0826V23.9107C82.534 25.8895 80.5981 26.8789 78.2752 26.8789C76.4899 26.8789 75.1456 26.3197 74.2422 25.2012C73.3603 24.0827 72.9194 22.5448 72.9194 20.5875V13.7798H71.4997V8.48855H80.34V19.0711C80.34 19.7809 80.4906 20.3079 80.7917 20.652C81.1144 20.9746 81.5876 21.136 82.2113 21.136C82.8351 21.136 83.2976 20.9746 83.5987 20.652C83.9213 20.3079 84.0826 19.7809 84.0826 19.0711V13.7798H82.3404V8.48855H91.5033V21.136H92.9229Z" fill="url(#paint3_linear_167_15)"/>
<path d="M112.622 21.136V26.4272H104.104V24.2333C103.631 24.9216 102.964 25.5346 102.103 26.0723C101.265 26.6101 100.232 26.8789 99.0062 26.8789C97.393 26.8789 96.1239 26.4487 95.199 25.5884C94.2741 24.728 93.8117 23.5127 93.8117 21.9426C93.8117 17.8773 97.2639 15.7909 104.168 15.6834C104.104 14.9521 103.824 14.4574 103.33 14.1992C102.835 13.9196 101.996 13.7798 100.813 13.7798C99.845 13.7798 98.8018 13.8874 97.6833 14.1025C96.5864 14.296 95.5754 14.5649 94.6506 14.909V8.9725C95.7905 8.69288 97.0273 8.46704 98.3609 8.29496C99.6945 8.12289 100.996 8.03685 102.265 8.03685C105.47 8.03685 107.76 8.6176 109.137 9.7791C110.514 10.9406 111.202 12.7366 111.202 15.1672V21.136H112.622ZM104.104 18.8775C103.136 18.8775 102.383 19.0066 101.845 19.2647C101.329 19.5228 101.071 19.953 101.071 20.5552C101.071 20.9209 101.179 21.222 101.394 21.4586C101.63 21.6737 101.953 21.7812 102.362 21.7812C102.921 21.7812 103.351 21.5446 103.652 21.0714C103.953 20.5982 104.104 19.9315 104.104 19.0711V18.8775Z" fill="url(#paint4_linear_167_15)"/>
<path d="M113.662 26.4595V21.136H115.081V6.61725H113.662V1.32598H122.502V21.136H123.921V26.4595H113.662Z" fill="url(#paint5_linear_167_15)"/>
<path d="M134.679 21.136H136.292V6.61725H134.679V1.32598H149.488C152.262 1.32598 154.381 1.89597 155.844 3.03596C157.306 4.17595 158.038 6.02574 158.038 8.58534C158.038 10.0265 157.747 11.274 157.167 12.3279C156.586 13.3819 155.758 14.1132 154.682 14.5219L154.714 14.8445C156.779 15.1672 157.812 16.4362 157.812 18.6517V21.136H159.328V26.4272H149.101V18.8452C149.101 18.0064 148.971 17.3719 148.713 16.9417C148.477 16.5115 148.09 16.2211 147.552 16.0705C147.036 15.92 146.294 15.8447 145.326 15.8447V21.136H147.455V26.4272H134.679V21.136ZM147.068 11.9085C147.692 11.9085 148.154 11.7472 148.455 11.4246C148.778 11.0804 148.939 10.5534 148.939 9.84363V8.68213C148.939 7.97233 148.778 7.4561 148.455 7.13347C148.154 6.78932 147.692 6.61725 147.068 6.61725H145.326V11.9085H147.068Z" fill="url(#paint6_linear_167_15)"/>
<path d="M170.033 26.8789C166.979 26.8789 164.592 26.0831 162.871 24.4914C161.15 22.8782 160.29 20.5337 160.29 17.4579C160.29 14.3821 161.15 12.0483 162.871 10.4566C164.592 8.84345 166.979 8.03685 170.033 8.03685C173.066 8.03685 175.249 8.83269 176.583 10.4244C177.938 11.9945 178.616 13.9519 178.616 16.2964V18.6194H168.162V18.813C168.162 19.6088 168.399 20.2003 168.872 20.5875C169.345 20.9531 170.13 21.136 171.227 21.136C172.539 21.136 173.787 21.0392 174.97 20.8456C176.153 20.652 177.185 20.4047 178.067 20.1035V25.2657C177.314 25.6744 176.207 26.0508 174.744 26.395C173.303 26.7176 171.733 26.8789 170.033 26.8789ZM171.905 15.0704V14.6832C171.905 13.9519 171.743 13.4249 171.421 13.1023C171.12 12.7796 170.657 12.6183 170.033 12.6183C169.41 12.6183 168.936 12.7904 168.614 13.1345C168.313 13.4572 168.162 13.9734 168.162 14.6832V15.0704H171.905Z" fill="url(#paint7_linear_167_15)"/>
<path d="M179.446 28.2985H180.866V13.7798H179.446V8.48855H188.287V10.6825C188.824 9.99419 189.513 9.38118 190.352 8.84345C191.212 8.30572 192.191 8.03685 193.288 8.03685C195.482 8.03685 197.127 8.8542 198.224 10.4889C199.342 12.1236 199.902 14.4466 199.902 17.4579C199.902 20.4692 199.342 22.7922 198.224 24.4269C197.127 26.0616 195.482 26.8789 193.288 26.8789C192.191 26.8789 191.212 26.6101 190.352 26.0723C189.513 25.5346 188.824 24.9216 188.287 24.2333V28.2985H190.513V33.5898H179.446V28.2985ZM190.158 21.136C190.782 21.136 191.244 20.9746 191.545 20.652C191.868 20.3079 192.029 19.7809 192.029 19.0711V15.8447C192.029 15.1349 191.868 14.6187 191.545 14.296C191.244 13.9519 190.782 13.7798 190.158 13.7798C189.534 13.7798 189.061 13.9519 188.738 14.296C188.437 14.6187 188.287 15.1349 188.287 15.8447V19.0711C188.287 19.7809 188.437 20.3079 188.738 20.652C189.061 20.9746 189.534 21.136 190.158 21.136Z" fill="url(#paint8_linear_167_15)"/>
<path d="M210.426 26.8789C207.372 26.8789 204.984 26.0831 203.264 24.4914C201.543 22.8782 200.683 20.5337 200.683 17.4579C200.683 14.3821 201.543 12.0483 203.264 10.4566C204.984 8.84345 207.372 8.03685 210.426 8.03685C213.524 8.03685 215.922 8.8542 217.621 10.4889C219.32 12.1021 220.17 14.4251 220.17 17.4579C220.17 20.5337 219.31 22.8782 217.589 24.4914C215.868 26.0831 213.481 26.8789 210.426 26.8789ZM210.426 21.136C211.05 21.136 211.512 20.9746 211.814 20.652C212.136 20.3079 212.298 19.7809 212.298 19.0711V15.8447C212.298 15.1349 212.136 14.6187 211.814 14.296C211.512 13.9519 211.05 13.7798 210.426 13.7798C209.803 13.7798 209.329 13.9519 209.007 14.296C208.706 14.6187 208.555 15.1349 208.555 15.8447V19.0711C208.555 19.7809 208.706 20.3079 209.007 20.652C209.329 20.9746 209.803 21.136 210.426 21.136Z" fill="url(#paint9_linear_167_15)"/>
<path d="M234.974 8.03685C235.404 8.03685 235.813 8.07987 236.2 8.16591C236.587 8.25194 236.91 8.35949 237.168 8.48855V14.6509C236.286 14.2853 235.339 14.1025 234.328 14.1025C232.973 14.1025 231.93 14.4574 231.199 15.1672C230.468 15.877 230.102 16.9309 230.102 18.329V21.136H233.006V26.4272H221.262V21.136H222.681V13.7798H221.262V8.48855H230.102V10.8438C230.704 9.94042 231.392 9.25212 232.167 8.77892C232.941 8.28421 233.877 8.03685 234.974 8.03685Z" fill="url(#paint10_linear_167_15)"/>
<path d="M246.18 26.8789C243.9 26.8789 242.18 26.3304 241.018 25.2335C239.878 24.115 239.308 22.2437 239.308 19.6196V13.7798H237.889V8.48855C238.706 8.48855 239.319 8.28421 239.728 7.87553C240.136 7.44535 240.341 6.8646 240.341 6.13329V4.68142H247.181V8.48855H251.536V13.7798H247.181V19.0711C247.181 19.7809 247.331 20.3079 247.632 20.652C247.955 20.9746 248.428 21.136 249.052 21.136C249.869 21.136 250.762 21.0392 251.73 20.8456V25.911C251.128 26.1476 250.31 26.3627 249.278 26.5563C248.267 26.7714 247.234 26.8789 246.18 26.8789Z" fill="url(#paint11_linear_167_15)"/>
<path d="M262.247 23.6525C262.247 21.8028 262.516 20.1681 263.054 18.7484C263.613 17.3288 264.516 15.9953 265.764 14.7477C267.011 13.4787 268.732 12.1666 270.926 10.8115C271.571 10.4029 272.023 10.0587 272.281 9.7791C272.561 9.47797 272.7 9.12307 272.7 8.71439C272.7 7.83252 272.066 7.39158 270.797 7.39158C269.851 7.39158 268.764 7.63893 267.538 8.13364C266.312 8.62836 265.205 9.25212 264.215 10.0049L262.312 3.13275C263.688 2.44446 265.269 1.86371 267.054 1.39051C268.84 0.895794 270.636 0.648438 272.442 0.648438C275.411 0.648438 277.712 1.30447 279.347 2.61653C280.982 3.92859 281.799 5.78914 281.799 8.19817C281.799 9.48873 281.509 10.6287 280.928 11.6181C280.369 12.5861 279.68 13.4034 278.863 14.0702C278.067 14.737 277.024 15.5006 275.733 16.3609C274.292 17.3073 273.227 18.1247 272.539 18.813C271.872 19.4798 271.539 20.2541 271.539 21.136H275.443V19.2969H282.057V26.4272H262.247V23.6525Z" fill="url(#paint12_linear_167_15)"/>
<path d="M294.621 26.8789C290.986 26.8789 288.179 25.8465 286.2 23.7816C284.243 21.7167 283.264 18.4151 283.264 13.8766C283.264 9.33816 284.243 6.0365 286.2 3.97161C288.179 1.90673 290.986 0.874283 294.621 0.874283C298.256 0.874283 301.052 1.90673 303.01 3.97161C304.988 6.0365 305.978 9.33816 305.978 13.8766C305.978 18.0709 305.064 21.2865 303.235 23.5235C301.429 25.7604 298.557 26.8789 294.621 26.8789ZM294.621 21.136C296.084 21.136 296.815 20.3401 296.815 18.7484V9.00477C296.815 7.41309 296.084 6.61725 294.621 6.61725C293.158 6.61725 292.427 7.41309 292.427 9.00477V18.7484C292.427 20.3401 293.158 21.136 294.621 21.136Z" fill="url(#paint13_linear_167_15)"/>
<path d="M306.83 23.6525C306.83 21.8028 307.099 20.1681 307.637 18.7484C308.196 17.3288 309.1 15.9953 310.347 14.7477C311.595 13.4787 313.315 12.1666 315.509 10.8115C316.155 10.4029 316.606 10.0587 316.864 9.7791C317.144 9.47797 317.284 9.12307 317.284 8.71439C317.284 7.83252 316.649 7.39158 315.38 7.39158C314.434 7.39158 313.348 7.63893 312.122 8.13364C310.896 8.62836 309.788 9.25212 308.798 10.0049L306.895 3.13275C308.271 2.44446 309.852 1.86371 311.638 1.39051C313.423 0.895794 315.219 0.648438 317.026 0.648438C319.994 0.648438 322.295 1.30447 323.93 2.61653C325.565 3.92859 326.382 5.78914 326.382 8.19817C326.382 9.48873 326.092 10.6287 325.511 11.6181C324.952 12.5861 324.264 13.4034 323.446 14.0702C322.65 14.737 321.607 15.5006 320.317 16.3609C318.875 17.3073 317.811 18.1247 317.122 18.813C316.456 19.4798 316.122 20.2541 316.122 21.136H320.026V19.2969H326.64V26.4272H306.83V23.6525Z" fill="url(#paint14_linear_167_15)"/>
<path d="M328.815 26.4272V21.136H331.913V6.61725H327.847V2.97143L335.01 1.32598H340.43V21.136H343.14V26.4272H328.815Z" fill="url(#paint15_linear_167_15)"/>
<path d="M345.543 15.9415V10.6502H350.576V15.9415H345.543ZM345.543 26.4272V21.136H350.576V26.4272H345.543Z" fill="url(#paint16_linear_167_15)"/>
<path d="M51.7572 78.1834V74.2149H52.9671V63.3259H51.7572V59.3574H68.0908V66.6652H62.6704V63.3259H59.7425V67.1491H61.8719V69.9077H59.7425V74.2149H62.6704V70.3917H68.0908V78.1834H51.7572Z" fill="url(#paint17_linear_167_15)"/>
<path d="M82.8488 74.2149H83.6231V78.1834H76.0734V74.2149H76.751L75.8072 72.7872H75.5653L74.6215 74.2149H75.2991V78.1834H68.8141V74.2149H69.8304L72.7583 71.6015L69.6852 68.6978H68.9108V64.7293H76.4606V68.6978H75.783L76.7268 70.1013H76.9687L77.9124 68.6978H77.2349V64.7293H83.5264V68.6978H82.51L79.7273 71.2628L82.8488 74.2149Z" fill="url(#paint18_linear_167_15)"/>
<path d="M84.2461 79.5868H85.3108V68.6978H84.2461V64.7293H90.8763V66.3748C91.2796 65.8586 91.7958 65.3988 92.4249 64.9955C93.0702 64.5922 93.8042 64.3906 94.6269 64.3906C96.2724 64.3906 97.5065 65.0036 98.3292 66.2296C99.1681 67.4556 99.5875 69.1979 99.5875 71.4564C99.5875 73.7148 99.1681 75.4571 98.3292 76.6831C97.5065 77.9091 96.2724 78.5221 94.6269 78.5221C93.8042 78.5221 93.0702 78.3205 92.4249 77.9172C91.7958 77.5139 91.2796 77.0541 90.8763 76.5379V79.5868H92.5459V83.5553H84.2461V79.5868ZM92.2797 74.2149C92.7476 74.2149 93.0944 74.0939 93.3203 73.8519C93.5622 73.5938 93.6832 73.1986 93.6832 72.6663V70.2465C93.6832 69.7141 93.5622 69.3269 93.3203 69.085C93.0944 68.8269 92.7476 68.6978 92.2797 68.6978C91.8119 68.6978 91.457 68.8269 91.215 69.085C90.9892 69.3269 90.8763 69.7141 90.8763 70.2465V72.6663C90.8763 73.1986 90.9892 73.5938 91.215 73.8519C91.457 74.0939 91.8119 74.2149 92.2797 74.2149Z" fill="url(#paint19_linear_167_15)"/>
<path d="M114.377 74.2149V78.1834H107.989V76.5379C107.634 77.0541 107.134 77.5139 106.489 77.9172C105.86 78.3205 105.085 78.5221 104.166 78.5221C102.956 78.5221 102.004 78.1995 101.31 77.5542C100.617 76.9089 100.27 75.9975 100.27 74.8199C100.27 71.7709 102.859 70.2061 108.037 70.1255C107.989 69.577 107.779 69.206 107.408 69.0124C107.037 68.8027 106.408 68.6978 105.521 68.6978C104.795 68.6978 104.013 68.7785 103.174 68.9398C102.351 69.085 101.593 69.2866 100.899 69.5447V65.0923C101.754 64.8826 102.682 64.7132 103.682 64.5842C104.682 64.4551 105.658 64.3906 106.61 64.3906C109.013 64.3906 110.731 64.8261 111.764 65.6973C112.796 66.5684 113.313 67.9154 113.313 69.7383V74.2149H114.377ZM107.989 72.5211C107.263 72.5211 106.699 72.6179 106.295 72.8114C105.908 73.005 105.714 73.3277 105.714 73.7794C105.714 74.0536 105.795 74.2794 105.956 74.4569C106.134 74.6182 106.376 74.6989 106.682 74.6989C107.102 74.6989 107.424 74.5214 107.65 74.1665C107.876 73.8116 107.989 73.3115 107.989 72.6663V72.5211Z" fill="url(#paint20_linear_167_15)"/>
<path d="M131.225 74.2149V78.1834H123.578V74.2149H124.594V70.2465C124.594 69.7141 124.482 69.3269 124.256 69.085C124.03 68.8269 123.691 68.6978 123.239 68.6978C122.271 68.6978 121.788 69.214 121.788 70.2465V74.2149H122.804V78.1834H115.157V74.2149H116.222V68.6978H115.157V64.7293H121.788V66.6168C122.949 65.1326 124.401 64.3906 126.143 64.3906C127.482 64.3906 128.482 64.81 129.144 65.6489C129.821 66.4877 130.16 67.6412 130.16 69.1092V74.2149H131.225Z" fill="url(#paint21_linear_167_15)"/>
<path d="M137.886 78.5221C135.853 78.5221 133.893 78.1995 132.006 77.5542V73.9729H135.926V74.2149C135.926 74.9892 136.418 75.3764 137.402 75.3764C138.273 75.3764 138.709 75.078 138.709 74.4811C138.709 74.1585 138.58 73.9165 138.322 73.7552C138.08 73.5938 137.644 73.4567 137.015 73.3438L135.805 73.126C133.272 72.6743 132.006 71.2386 132.006 68.8188C132.006 67.4153 132.538 66.3264 133.603 65.5521C134.668 64.7777 136.104 64.3906 137.91 64.3906C139.927 64.3906 141.629 64.7293 143.016 65.4069V68.7704H139.338V68.5284C139.338 68.2058 139.225 67.9638 138.999 67.8025C138.789 67.625 138.475 67.5363 138.055 67.5363C137.249 67.5363 136.846 67.7944 136.846 68.3106C136.846 68.5849 136.959 68.7946 137.184 68.9398C137.41 69.085 137.822 69.2221 138.418 69.3511L139.798 69.6173C141.233 69.8916 142.258 70.3997 142.871 71.1418C143.484 71.8839 143.79 72.8356 143.79 73.9971C143.79 75.4651 143.274 76.5863 142.242 77.3606C141.225 78.135 139.774 78.5221 137.886 78.5221Z" fill="url(#paint22_linear_167_15)"/>
<path d="M145.715 63.3985V59.3574H150.652V63.3985H145.715ZM144.554 78.1834V74.2149H145.619V68.6978H144.554V64.7293H151.184V74.2149H152.249V78.1834H144.554Z" fill="url(#paint23_linear_167_15)"/>
<path d="M160.13 78.5221C157.839 78.5221 156.049 77.9253 154.758 76.7315C153.468 75.5216 152.822 73.7632 152.822 71.4564C152.822 69.1495 153.468 67.3992 154.758 66.2054C156.049 64.9955 157.839 64.3906 160.13 64.3906C162.453 64.3906 164.252 65.0036 165.526 66.2296C166.801 67.4395 167.438 69.1818 167.438 71.4564C167.438 73.7632 166.793 75.5216 165.502 76.7315C164.212 77.9253 162.421 78.5221 160.13 78.5221ZM160.13 74.2149C160.598 74.2149 160.945 74.0939 161.171 73.8519C161.413 73.5938 161.534 73.1986 161.534 72.6663V70.2465C161.534 69.7141 161.413 69.3269 161.171 69.085C160.945 68.8269 160.598 68.6978 160.13 68.6978C159.662 68.6978 159.307 68.8269 159.065 69.085C158.84 69.3269 158.727 69.7141 158.727 70.2465V72.6663C158.727 73.1986 158.84 73.5938 159.065 73.8519C159.307 74.0939 159.662 74.2149 160.13 74.2149Z" fill="url(#paint24_linear_167_15)"/>
<path d="M184.276 74.2149V78.1834H176.629V74.2149H177.645V70.2465C177.645 69.7141 177.533 69.3269 177.307 69.085C177.081 68.8269 176.742 68.6978 176.29 68.6978C175.322 68.6978 174.839 69.214 174.839 70.2465V74.2149H175.855V78.1834H168.208V74.2149H169.273V68.6978H168.208V64.7293H174.839V66.6168C176 65.1326 177.452 64.3906 179.194 64.3906C180.533 64.3906 181.533 64.81 182.195 65.6489C182.872 66.4877 183.211 67.6412 183.211 69.1092V74.2149H184.276Z" fill="url(#paint25_linear_167_15)"/>
<path d="M185.589 82.0792L186.848 78.1834H185.614V74.2149H189.388V78.1834L187.67 82.0792H185.589Z" fill="url(#paint26_linear_167_15)"/>
<path d="M216.534 72.1338H215.324V76.9734C214.614 77.3767 213.574 77.7396 212.203 78.0623C210.847 78.3688 209.379 78.522 207.799 78.522C204.782 78.522 202.419 77.7316 200.709 76.1506C198.999 74.5536 198.144 72.0935 198.144 68.7703C198.144 65.3665 198.99 62.8902 200.684 61.3416C202.394 59.7929 204.83 59.0186 207.992 59.0186C209.525 59.0186 210.96 59.1799 212.299 59.5025C213.638 59.8252 214.647 60.1881 215.324 60.5914V66.3747H209.275V65.2374C209.275 64.5599 209.129 64.0759 208.839 63.7855C208.565 63.479 208.121 63.3258 207.508 63.3258C206.895 63.3258 206.443 63.479 206.153 63.7855C205.879 64.0759 205.742 64.5599 205.742 65.2374V72.3032C205.742 72.9807 205.879 73.4728 206.153 73.7793C206.443 74.0696 206.895 74.2148 207.508 74.2148C208.121 74.2148 208.565 74.0696 208.839 73.7793C209.129 73.4728 209.275 72.9807 209.275 72.3032V72.1338H207.968V68.5283H216.534V72.1338Z" fill="url(#paint27_linear_167_15)"/>
<path d="M227.501 64.3905C227.824 64.3905 228.13 64.4227 228.421 64.4873C228.711 64.5518 228.953 64.6325 229.147 64.7293V69.351C228.485 69.0768 227.775 68.9397 227.017 68.9397C226.001 68.9397 225.218 69.2059 224.67 69.7382C224.121 70.2706 223.847 71.061 223.847 72.1096V74.2148H226.025V78.1833H217.217V74.2148H218.282V68.6977H217.217V64.7293H223.847V66.4957C224.299 65.8182 224.815 65.3019 225.396 64.947C225.977 64.576 226.678 64.3905 227.501 64.3905Z" fill="url(#paint28_linear_167_15)"/>
<path d="M237.14 78.522C234.849 78.522 233.059 77.9252 231.768 76.7314C230.478 75.5215 229.832 73.7631 229.832 71.4563C229.832 69.1494 230.478 67.3991 231.768 66.2053C233.059 64.9954 234.849 64.3905 237.14 64.3905C239.463 64.3905 241.262 65.0035 242.536 66.2295C243.811 67.4394 244.448 69.1817 244.448 71.4563C244.448 73.7631 243.803 75.5215 242.512 76.7314C241.221 77.9252 239.431 78.522 237.14 78.522ZM237.14 74.2148C237.608 74.2148 237.955 74.0938 238.181 73.8518C238.423 73.5937 238.544 73.1985 238.544 72.6662V70.2464C238.544 69.714 238.423 69.3268 238.181 69.0849C237.955 68.8268 237.608 68.6977 237.14 68.6977C236.672 68.6977 236.317 68.8268 236.075 69.0849C235.85 69.3268 235.737 69.714 235.737 70.2464V72.6662C235.737 73.1985 235.85 73.5937 236.075 73.8518C236.317 74.0938 236.672 74.2148 237.14 74.2148Z" fill="url(#paint29_linear_167_15)"/>
<path d="M249.235 78.1833L246.041 68.6977H245.025V64.7293H252.502V68.6977H251.485L252.357 72.4726H252.599L254.365 64.7293H258.817L260.584 72.4726H260.826L261.673 68.6977H260.656V64.7293H267.674V68.6977H266.658L263.584 78.1833H257.704L256.373 71.4563H256.131L254.801 78.1833H249.235Z" fill="url(#paint30_linear_167_15)"/>
<path d="M274.33 78.522C272.62 78.522 271.329 78.1107 270.458 77.2879C269.603 76.4491 269.175 75.0456 269.175 73.0775V68.6977H268.111V64.7293C268.724 64.7293 269.184 64.576 269.49 64.2695C269.797 63.9469 269.95 63.5113 269.95 62.9628V61.8739H275.08V64.7293H278.346V68.6977H275.08V72.6662C275.08 73.1985 275.193 73.5937 275.419 73.8518C275.66 74.0938 276.015 74.2148 276.483 74.2148C277.096 74.2148 277.766 74.1422 278.492 73.997V77.7961C278.04 77.9736 277.427 78.1349 276.653 78.2801C275.894 78.4414 275.12 78.522 274.33 78.522Z" fill="url(#paint31_linear_167_15)"/>
<path d="M295.338 74.2148V78.1833H287.691V74.2148H288.707V70.2464C288.707 69.714 288.594 69.3268 288.369 69.0849C288.143 68.8268 287.804 68.6977 287.352 68.6977C286.384 68.6977 285.9 69.2139 285.9 70.2464V74.2148H286.917V78.1833H279.27V74.2148H280.335V63.3258H279.27V59.3573H285.9V66.6167C286.497 65.8746 287.142 65.3181 287.836 64.947C288.53 64.576 289.336 64.3905 290.256 64.3905C291.595 64.3905 292.595 64.8099 293.256 65.6488C293.934 66.4876 294.273 67.6411 294.273 69.1091V74.2148H295.338Z" fill="url(#paint32_linear_167_15)"/>
<path d="M296.651 82.0791L297.909 78.1833H296.675V74.2148H300.45V78.1833L298.732 82.0791H296.651Z" fill="url(#paint33_linear_167_15)"/>
<path d="M174.951 120.234C172.065 120.234 169.843 119.705 168.283 118.648C166.742 117.572 165.971 116.093 165.971 114.211C165.971 112.957 166.348 111.872 167.1 110.958C167.853 110.026 168.794 109.327 169.924 108.861C168.92 108.144 168.167 107.409 167.665 106.656C167.163 105.903 166.912 105.025 166.912 104.021C166.912 102.874 167.28 101.888 168.015 101.064C168.749 100.239 169.762 99.621 171.053 99.2088C172.361 98.7786 173.849 98.5635 175.516 98.5635C177.201 98.5635 178.742 98.7696 180.14 99.1819C181.538 99.5941 182.578 100.051 183.259 100.553V105.715H177.613V105.231C177.613 104.586 177.461 104.111 177.156 103.806C176.851 103.502 176.394 103.349 175.785 103.349C174.656 103.349 174.091 103.788 174.091 104.667C174.091 105.007 174.225 105.33 174.494 105.635C174.781 105.939 175.229 106.325 175.839 106.791L180.221 110.098C180.293 109.721 180.329 109.291 180.329 108.807V108.323H186.808V112.813H185.249L185.007 113.701L187.427 115.529L184.146 119.858L182.184 118.352C180.391 119.607 177.981 120.234 174.951 120.234ZM175.65 115.448C176.529 115.448 177.246 115.287 177.801 114.964L174.387 112.329C174.046 112.491 173.777 112.715 173.58 113.002C173.383 113.27 173.284 113.575 173.284 113.916C173.284 114.453 173.481 114.848 173.876 115.099C174.288 115.332 174.88 115.448 175.65 115.448Z" fill="url(#paint34_linear_167_15)"/>
<path d="M92.6624 145.873H88.5003V143.986H86.9517V154.875H88.6455V158.843H78.4824V154.875H80.1763V143.986H78.6276V145.873H74.4656V140.017H92.6624V145.873Z" fill="url(#paint35_linear_167_15)"/>
<path d="M103.776 145.051C104.098 145.051 104.405 145.083 104.695 145.147C104.986 145.212 105.228 145.293 105.421 145.389V150.011C104.76 149.737 104.05 149.6 103.292 149.6C102.276 149.6 101.493 149.866 100.945 150.398C100.396 150.931 100.122 151.721 100.122 152.77V154.875H102.3V158.843H93.4917V154.875H94.5564V149.358H93.4917V145.389H100.122V147.156C100.574 146.478 101.09 145.962 101.671 145.607C102.251 145.236 102.953 145.051 103.776 145.051Z" fill="url(#paint36_linear_167_15)"/>
<path d="M120.311 154.875V158.843H113.923V157.198C113.568 157.714 113.068 158.174 112.423 158.577C111.794 158.981 111.019 159.182 110.1 159.182C108.89 159.182 107.938 158.86 107.244 158.214C106.551 157.569 106.204 156.658 106.204 155.48C106.204 152.431 108.793 150.866 113.971 150.786C113.923 150.237 113.713 149.866 113.342 149.672C112.971 149.463 112.342 149.358 111.455 149.358C110.729 149.358 109.947 149.439 109.108 149.6C108.285 149.745 107.527 149.947 106.833 150.205V145.752C107.688 145.543 108.616 145.373 109.616 145.244C110.616 145.115 111.592 145.051 112.544 145.051C114.947 145.051 116.665 145.486 117.698 146.357C118.73 147.228 119.247 148.575 119.247 150.398V154.875H120.311ZM113.923 153.181C113.197 153.181 112.632 153.278 112.229 153.471C111.842 153.665 111.648 153.988 111.648 154.439C111.648 154.714 111.729 154.94 111.89 155.117C112.068 155.278 112.31 155.359 112.616 155.359C113.036 155.359 113.358 155.181 113.584 154.827C113.81 154.472 113.923 153.972 113.923 153.326V153.181Z" fill="url(#paint37_linear_167_15)"/>
<path d="M137.159 154.875V158.843H129.512V154.875H130.528V150.907C130.528 150.374 130.416 149.987 130.19 149.745C129.964 149.487 129.625 149.358 129.173 149.358C128.205 149.358 127.721 149.874 127.721 150.907V154.875H128.738V158.843H121.091V154.875H122.156V149.358H121.091V145.389H127.721V147.277C128.883 145.793 130.335 145.051 132.077 145.051C133.416 145.051 134.416 145.47 135.078 146.309C135.755 147.148 136.094 148.301 136.094 149.769V154.875H137.159Z" fill="url(#paint38_linear_167_15)"/>
<path d="M143.82 159.182C141.787 159.182 139.827 158.86 137.94 158.214V154.633H141.86V154.875C141.86 155.649 142.352 156.036 143.336 156.036C144.207 156.036 144.643 155.738 144.643 155.141C144.643 154.819 144.514 154.577 144.256 154.415C144.014 154.254 143.578 154.117 142.949 154.004L141.739 153.786C139.206 153.334 137.94 151.899 137.94 149.479C137.94 148.075 138.472 146.986 139.537 146.212C140.602 145.438 142.037 145.051 143.844 145.051C145.861 145.051 147.563 145.389 148.95 146.067V149.43H145.272V149.188C145.272 148.866 145.159 148.624 144.933 148.463C144.723 148.285 144.409 148.196 143.989 148.196C143.183 148.196 142.78 148.454 142.78 148.971C142.78 149.245 142.892 149.455 143.118 149.6C143.344 149.745 143.756 149.882 144.352 150.011L145.732 150.277C147.167 150.552 148.192 151.06 148.805 151.802C149.418 152.544 149.724 153.496 149.724 154.657C149.724 156.125 149.208 157.246 148.176 158.021C147.159 158.795 145.708 159.182 143.82 159.182Z" fill="url(#paint39_linear_167_15)"/>
<path d="M150.488 154.875H151.553V149.358H150.488V145.389H151.601C151.601 143.421 152.077 141.978 153.029 141.058C153.997 140.138 155.4 139.679 157.239 139.679C158.126 139.679 158.917 139.743 159.611 139.872C160.32 140.001 160.837 140.147 161.159 140.308V144.107C160.304 144.026 159.514 143.986 158.788 143.986C158.159 143.986 157.723 144.091 157.481 144.301C157.239 144.51 157.118 144.873 157.118 145.389H159.006V149.358H157.118V154.875H159.006V158.843H150.488V154.875Z" fill="url(#paint40_linear_167_15)"/>
<path d="M166.986 159.182C164.695 159.182 162.904 158.585 161.614 157.392C160.323 156.182 159.678 154.423 159.678 152.116C159.678 149.81 160.323 148.059 161.614 146.865C162.904 145.656 164.695 145.051 166.986 145.051C169.309 145.051 171.107 145.664 172.382 146.89C173.656 148.1 174.294 149.842 174.294 152.116C174.294 154.423 173.648 156.182 172.358 157.392C171.067 158.585 169.276 159.182 166.986 159.182ZM166.986 154.875C167.454 154.875 167.8 154.754 168.026 154.512C168.268 154.254 168.389 153.859 168.389 153.326V150.907C168.389 150.374 168.268 149.987 168.026 149.745C167.8 149.487 167.454 149.358 166.986 149.358C166.518 149.358 166.163 149.487 165.921 149.745C165.695 149.987 165.582 150.374 165.582 150.907V153.326C165.582 153.859 165.695 154.254 165.921 154.512C166.163 154.754 166.518 154.875 166.986 154.875Z" fill="url(#paint41_linear_167_15)"/>
<path d="M185.396 145.051C185.719 145.051 186.026 145.083 186.316 145.147C186.606 145.212 186.848 145.293 187.042 145.389V150.011C186.38 149.737 185.671 149.6 184.912 149.6C183.896 149.6 183.114 149.866 182.565 150.398C182.017 150.931 181.742 151.721 181.742 152.77V154.875H183.92V158.843H175.112V154.875H176.177V149.358H175.112V145.389H181.742V147.156C182.194 146.478 182.71 145.962 183.291 145.607C183.872 145.236 184.574 145.051 185.396 145.051Z" fill="url(#paint42_linear_167_15)"/>
<path d="M212.264 154.875V158.843H204.618V154.875H205.634V150.907C205.634 150.374 205.521 149.987 205.295 149.745C205.069 149.487 204.731 149.358 204.279 149.358C203.311 149.358 202.827 149.874 202.827 150.907V154.875H203.843V158.843H196.245V154.875H197.262V150.907C197.262 150.374 197.149 149.987 196.923 149.745C196.697 149.487 196.358 149.358 195.907 149.358C194.939 149.358 194.455 149.874 194.455 150.907V154.875H195.471V158.843H187.824V154.875H188.889V149.358H187.824V145.389H194.455V147.277C195.616 145.793 197.068 145.051 198.81 145.051C199.794 145.051 200.593 145.285 201.206 145.752C201.835 146.204 202.279 146.849 202.537 147.688C203.118 146.849 203.779 146.204 204.521 145.752C205.279 145.301 206.166 145.075 207.183 145.075C208.522 145.075 209.522 145.494 210.183 146.333C210.861 147.172 211.2 148.325 211.2 149.793V154.875H212.264Z" fill="url(#paint43_linear_167_15)"/>
<path d="M227.146 154.875V158.843H220.758V157.198C220.403 157.714 219.903 158.174 219.257 158.577C218.628 158.981 217.854 159.182 216.934 159.182C215.724 159.182 214.773 158.86 214.079 158.214C213.385 157.569 213.038 156.658 213.038 155.48C213.038 152.431 215.628 150.866 220.806 150.786C220.758 150.237 220.548 149.866 220.177 149.672C219.806 149.463 219.177 149.358 218.289 149.358C217.563 149.358 216.781 149.439 215.942 149.6C215.119 149.745 214.361 149.947 213.668 150.205V145.752C214.523 145.543 215.45 145.373 216.45 145.244C217.451 145.115 218.427 145.051 219.378 145.051C221.782 145.051 223.5 145.486 224.532 146.357C225.565 147.228 226.081 148.575 226.081 150.398V154.875H227.146ZM220.758 153.181C220.032 153.181 219.467 153.278 219.064 153.471C218.677 153.665 218.483 153.988 218.483 154.439C218.483 154.714 218.564 154.94 218.725 155.117C218.902 155.278 219.144 155.359 219.451 155.359C219.87 155.359 220.193 155.181 220.419 154.827C220.645 154.472 220.758 153.972 220.758 153.326V153.181Z" fill="url(#paint44_linear_167_15)"/>
<path d="M233.903 159.182C232.193 159.182 230.902 158.771 230.031 157.948C229.176 157.109 228.749 155.706 228.749 153.738V149.358H227.684V145.389C228.297 145.389 228.757 145.236 229.063 144.93C229.37 144.607 229.523 144.171 229.523 143.623V142.534H234.653V145.389H237.92V149.358H234.653V153.326C234.653 153.859 234.766 154.254 234.992 154.512C235.234 154.754 235.588 154.875 236.056 154.875C236.669 154.875 237.339 154.802 238.065 154.657V158.456C237.613 158.634 237 158.795 236.226 158.94C235.467 159.102 234.693 159.182 233.903 159.182Z" fill="url(#paint45_linear_167_15)"/>
<path d="M240.005 144.059V140.017H244.941V144.059H240.005ZM238.843 158.843V154.875H239.908V149.358H238.843V145.389H245.473V154.875H246.538V158.843H238.843Z" fill="url(#paint46_linear_167_15)"/>
<path d="M254.419 159.182C252.129 159.182 250.338 158.585 249.048 157.392C247.757 156.182 247.112 154.423 247.112 152.116C247.112 149.81 247.757 148.059 249.048 146.865C250.338 145.656 252.129 145.051 254.419 145.051C256.742 145.051 258.541 145.664 259.816 146.89C261.09 148.1 261.727 149.842 261.727 152.116C261.727 154.423 261.082 156.182 259.791 157.392C258.501 158.585 256.71 159.182 254.419 159.182ZM254.419 154.875C254.887 154.875 255.234 154.754 255.46 154.512C255.702 154.254 255.823 153.859 255.823 153.326V150.907C255.823 150.374 255.702 149.987 255.46 149.745C255.234 149.487 254.887 149.358 254.419 149.358C253.952 149.358 253.597 149.487 253.355 149.745C253.129 149.987 253.016 150.374 253.016 150.907V153.326C253.016 153.859 253.129 154.254 253.355 154.512C253.597 154.754 253.952 154.875 254.419 154.875Z" fill="url(#paint47_linear_167_15)"/>
<path d="M278.565 154.875V158.843H270.918V154.875H271.935V150.907C271.935 150.374 271.822 149.987 271.596 149.745C271.37 149.487 271.031 149.358 270.58 149.358C269.612 149.358 269.128 149.874 269.128 150.907V154.875H270.144V158.843H262.498V154.875H263.562V149.358H262.498V145.389H269.128V147.277C270.289 145.793 271.741 145.051 273.483 145.051C274.822 145.051 275.823 145.47 276.484 146.309C277.161 147.148 277.5 148.301 277.5 149.769V154.875H278.565Z" fill="url(#paint48_linear_167_15)"/>
<defs>
<linearGradient id="paint0_linear_167_15" x1="0.188855" y1="1.28801" x2="352.408" y2="37.1274" gradientUnits="userSpaceOnUse">
<stop stop-color="#216AD9"/>
<stop offset="1" stop-color="#079372"/>
</linearGradient>
<linearGradient id="paint1_linear_167_15" x1="0.188855" y1="1.28801" x2="352.408" y2="37.1274" gradientUnits="userSpaceOnUse">
<stop stop-color="#216AD9"/>
<stop offset="1" stop-color="#079372"/>
</linearGradient>
<linearGradient id="paint2_linear_167_15" x1="0.188855" y1="1.28801" x2="352.408" y2="37.1274" gradientUnits="userSpaceOnUse">
<stop stop-color="#216AD9"/>
<stop offset="1" stop-color="#079372"/>
</linearGradient>
<linearGradient id="paint3_linear_167_15" x1="0.188855" y1="1.28801" x2="352.408" y2="37.1274" gradientUnits="userSpaceOnUse">
<stop stop-color="#216AD9"/>
<stop offset="1" stop-color="#079372"/>
</linearGradient>
<linearGradient id="paint4_linear_167_15" x1="0.188855" y1="1.28801" x2="352.408" y2="37.1274" gradientUnits="userSpaceOnUse">
<stop stop-color="#216AD9"/>
<stop offset="1" stop-color="#079372"/>
</linearGradient>
<linearGradient id="paint5_linear_167_15" x1="0.188855" y1="1.28801" x2="352.408" y2="37.1274" gradientUnits="userSpaceOnUse">
<stop stop-color="#216AD9"/>
<stop offset="1" stop-color="#079372"/>
</linearGradient>
<linearGradient id="paint6_linear_167_15" x1="0.188855" y1="1.28801" x2="352.408" y2="37.1274" gradientUnits="userSpaceOnUse">
<stop stop-color="#216AD9"/>
<stop offset="1" stop-color="#079372"/>
</linearGradient>
<linearGradient id="paint7_linear_167_15" x1="0.188855" y1="1.28801" x2="352.408" y2="37.1274" gradientUnits="userSpaceOnUse">
<stop stop-color="#216AD9"/>
<stop offset="1" stop-color="#079372"/>
</linearGradient>
<linearGradient id="paint8_linear_167_15" x1="0.188855" y1="1.28801" x2="352.408" y2="37.1274" gradientUnits="userSpaceOnUse">
<stop stop-color="#216AD9"/>
<stop offset="1" stop-color="#079372"/>
</linearGradient>
<linearGradient id="paint9_linear_167_15" x1="0.188855" y1="1.28801" x2="352.408" y2="37.1274" gradientUnits="userSpaceOnUse">
<stop stop-color="#216AD9"/>
<stop offset="1" stop-color="#079372"/>
</linearGradient>
<linearGradient id="paint10_linear_167_15" x1="0.188855" y1="1.28801" x2="352.408" y2="37.1274" gradientUnits="userSpaceOnUse">
<stop stop-color="#216AD9"/>
<stop offset="1" stop-color="#079372"/>
</linearGradient>
<linearGradient id="paint11_linear_167_15" x1="0.188855" y1="1.28801" x2="352.408" y2="37.1274" gradientUnits="userSpaceOnUse">
<stop stop-color="#216AD9"/>
<stop offset="1" stop-color="#079372"/>
</linearGradient>
<linearGradient id="paint12_linear_167_15" x1="0.188855" y1="1.28801" x2="352.408" y2="37.1274" gradientUnits="userSpaceOnUse">
<stop stop-color="#216AD9"/>
<stop offset="1" stop-color="#079372"/>
</linearGradient>
<linearGradient id="paint13_linear_167_15" x1="0.188855" y1="1.28801" x2="352.408" y2="37.1274" gradientUnits="userSpaceOnUse">
<stop stop-color="#216AD9"/>
<stop offset="1" stop-color="#079372"/>
</linearGradient>
<linearGradient id="paint14_linear_167_15" x1="0.188855" y1="1.28801" x2="352.408" y2="37.1274" gradientUnits="userSpaceOnUse">
<stop stop-color="#216AD9"/>
<stop offset="1" stop-color="#079372"/>
</linearGradient>
<linearGradient id="paint15_linear_167_15" x1="0.188855" y1="1.28801" x2="352.408" y2="37.1274" gradientUnits="userSpaceOnUse">
<stop stop-color="#216AD9"/>
<stop offset="1" stop-color="#079372"/>
</linearGradient>
<linearGradient id="paint16_linear_167_15" x1="0.188855" y1="1.28801" x2="352.408" y2="37.1274" gradientUnits="userSpaceOnUse">
<stop stop-color="#216AD9"/>
<stop offset="1" stop-color="#079372"/>
</linearGradient>
<linearGradient id="paint17_linear_167_15" x1="51.2733" y1="61.3975" x2="190.989" y2="86.7663" gradientUnits="userSpaceOnUse">
<stop stop-color="#216AD9"/>
<stop offset="1" stop-color="#079372"/>
</linearGradient>
<linearGradient id="paint18_linear_167_15" x1="51.2733" y1="61.3975" x2="190.989" y2="86.7663" gradientUnits="userSpaceOnUse">
<stop stop-color="#216AD9"/>
<stop offset="1" stop-color="#079372"/>
</linearGradient>
<linearGradient id="paint19_linear_167_15" x1="51.2733" y1="61.3975" x2="190.989" y2="86.7663" gradientUnits="userSpaceOnUse">
<stop stop-color="#216AD9"/>
<stop offset="1" stop-color="#079372"/>
</linearGradient>
<linearGradient id="paint20_linear_167_15" x1="51.2733" y1="61.3975" x2="190.989" y2="86.7663" gradientUnits="userSpaceOnUse">
<stop stop-color="#216AD9"/>
<stop offset="1" stop-color="#079372"/>
</linearGradient>
<linearGradient id="paint21_linear_167_15" x1="51.2733" y1="61.3975" x2="190.989" y2="86.7663" gradientUnits="userSpaceOnUse">
<stop stop-color="#216AD9"/>
<stop offset="1" stop-color="#079372"/>
</linearGradient>
<linearGradient id="paint22_linear_167_15" x1="51.2733" y1="61.3975" x2="190.989" y2="86.7663" gradientUnits="userSpaceOnUse">
<stop stop-color="#216AD9"/>
<stop offset="1" stop-color="#079372"/>
</linearGradient>
<linearGradient id="paint23_linear_167_15" x1="51.2733" y1="61.3975" x2="190.989" y2="86.7663" gradientUnits="userSpaceOnUse">
<stop stop-color="#216AD9"/>
<stop offset="1" stop-color="#079372"/>
</linearGradient>
<linearGradient id="paint24_linear_167_15" x1="51.2733" y1="61.3975" x2="190.989" y2="86.7663" gradientUnits="userSpaceOnUse">
<stop stop-color="#216AD9"/>
<stop offset="1" stop-color="#079372"/>
</linearGradient>
<linearGradient id="paint25_linear_167_15" x1="51.2733" y1="61.3975" x2="190.989" y2="86.7663" gradientUnits="userSpaceOnUse">
<stop stop-color="#216AD9"/>
<stop offset="1" stop-color="#079372"/>
</linearGradient>
<linearGradient id="paint26_linear_167_15" x1="51.2733" y1="61.3975" x2="190.989" y2="86.7663" gradientUnits="userSpaceOnUse">
<stop stop-color="#216AD9"/>
<stop offset="1" stop-color="#079372"/>
</linearGradient>
<linearGradient id="paint27_linear_167_15" x1="197.805" y1="63.4933" x2="301.94" y2="78.8034" gradientUnits="userSpaceOnUse">
<stop stop-color="#216AD9"/>
<stop offset="1" stop-color="#079372"/>
</linearGradient>
<linearGradient id="paint28_linear_167_15" x1="197.805" y1="63.4933" x2="301.94" y2="78.8034" gradientUnits="userSpaceOnUse">
<stop stop-color="#216AD9"/>
<stop offset="1" stop-color="#079372"/>
</linearGradient>
<linearGradient id="paint29_linear_167_15" x1="197.805" y1="63.4933" x2="301.94" y2="78.8034" gradientUnits="userSpaceOnUse">
<stop stop-color="#216AD9"/>
<stop offset="1" stop-color="#079372"/>
</linearGradient>
<linearGradient id="paint30_linear_167_15" x1="197.805" y1="63.4933" x2="301.94" y2="78.8034" gradientUnits="userSpaceOnUse">
<stop stop-color="#216AD9"/>
<stop offset="1" stop-color="#079372"/>
</linearGradient>
<linearGradient id="paint31_linear_167_15" x1="197.805" y1="63.4933" x2="301.94" y2="78.8034" gradientUnits="userSpaceOnUse">
<stop stop-color="#216AD9"/>
<stop offset="1" stop-color="#079372"/>
</linearGradient>
<linearGradient id="paint32_linear_167_15" x1="197.805" y1="63.4933" x2="301.94" y2="78.8034" gradientUnits="userSpaceOnUse">
<stop stop-color="#216AD9"/>
<stop offset="1" stop-color="#079372"/>
</linearGradient>
<linearGradient id="paint33_linear_167_15" x1="197.805" y1="63.4933" x2="301.94" y2="78.8034" gradientUnits="userSpaceOnUse">
<stop stop-color="#216AD9"/>
<stop offset="1" stop-color="#079372"/>
</linearGradient>
<linearGradient id="paint34_linear_167_15" x1="159.492" y1="94.9874" x2="188.395" y2="119.857" gradientUnits="userSpaceOnUse">
<stop stop-color="#216AD9"/>
<stop offset="1" stop-color="#079372"/>
</linearGradient>
<linearGradient id="paint35_linear_167_15" x1="74.1268" y1="133.973" x2="279.075" y2="159.616" gradientUnits="userSpaceOnUse">
<stop stop-color="#216AD9"/>
<stop offset="1" stop-color="#079372"/>
</linearGradient>
<linearGradient id="paint36_linear_167_15" x1="74.1268" y1="133.973" x2="279.075" y2="159.616" gradientUnits="userSpaceOnUse">
<stop stop-color="#216AD9"/>
<stop offset="1" stop-color="#079372"/>
</linearGradient>
<linearGradient id="paint37_linear_167_15" x1="74.1268" y1="133.973" x2="279.075" y2="159.616" gradientUnits="userSpaceOnUse">
<stop stop-color="#216AD9"/>
<stop offset="1" stop-color="#079372"/>
</linearGradient>
<linearGradient id="paint38_linear_167_15" x1="74.1268" y1="133.973" x2="279.075" y2="159.616" gradientUnits="userSpaceOnUse">
<stop stop-color="#216AD9"/>
<stop offset="1" stop-color="#079372"/>
</linearGradient>
<linearGradient id="paint39_linear_167_15" x1="74.1268" y1="133.973" x2="279.075" y2="159.616" gradientUnits="userSpaceOnUse">
<stop stop-color="#216AD9"/>
<stop offset="1" stop-color="#079372"/>
</linearGradient>
<linearGradient id="paint40_linear_167_15" x1="74.1268" y1="133.973" x2="279.075" y2="159.616" gradientUnits="userSpaceOnUse">
<stop stop-color="#216AD9"/>
<stop offset="1" stop-color="#079372"/>
</linearGradient>
<linearGradient id="paint41_linear_167_15" x1="74.1268" y1="133.973" x2="279.075" y2="159.616" gradientUnits="userSpaceOnUse">
<stop stop-color="#216AD9"/>
<stop offset="1" stop-color="#079372"/>
</linearGradient>
<linearGradient id="paint42_linear_167_15" x1="74.1268" y1="133.973" x2="279.075" y2="159.616" gradientUnits="userSpaceOnUse">
<stop stop-color="#216AD9"/>
<stop offset="1" stop-color="#079372"/>
</linearGradient>
<linearGradient id="paint43_linear_167_15" x1="74.1268" y1="133.973" x2="279.075" y2="159.616" gradientUnits="userSpaceOnUse">
<stop stop-color="#216AD9"/>
<stop offset="1" stop-color="#079372"/>
</linearGradient>
<linearGradient id="paint44_linear_167_15" x1="74.1268" y1="133.973" x2="279.075" y2="159.616" gradientUnits="userSpaceOnUse">
<stop stop-color="#216AD9"/>
<stop offset="1" stop-color="#079372"/>
</linearGradient>
<linearGradient id="paint45_linear_167_15" x1="74.1268" y1="133.973" x2="279.075" y2="159.616" gradientUnits="userSpaceOnUse">
<stop stop-color="#216AD9"/>
<stop offset="1" stop-color="#079372"/>
</linearGradient>
<linearGradient id="paint46_linear_167_15" x1="74.1268" y1="133.973" x2="279.075" y2="159.616" gradientUnits="userSpaceOnUse">
<stop stop-color="#216AD9"/>
<stop offset="1" stop-color="#079372"/>
</linearGradient>
<linearGradient id="paint47_linear_167_15" x1="74.1268" y1="133.973" x2="279.075" y2="159.616" gradientUnits="userSpaceOnUse">
<stop stop-color="#216AD9"/>
<stop offset="1" stop-color="#079372"/>
</linearGradient>
<linearGradient id="paint48_linear_167_15" x1="74.1268" y1="133.973" x2="279.075" y2="159.616" gradientUnits="userSpaceOnUse">
<stop stop-color="#216AD9"/>
<stop offset="1" stop-color="#079372"/>
</linearGradient>
</defs>
</svg>
