<svg width="507" height="457" viewBox="0 0 507 457" fill="none" xmlns="http://www.w3.org/2000/svg">
<path d="M0.720001 42.8396C0.720001 39.3996 1.22 36.3596 2.22 33.7196C3.26 31.0796 4.94 28.5996 7.26 26.2796C9.58 23.9196 12.78 21.4796 16.86 18.9596C18.06 18.1996 18.9 17.5596 19.38 17.0396C19.9 16.4796 20.16 15.8196 20.16 15.0596C20.16 13.4196 18.98 12.5996 16.62 12.5996C14.86 12.5996 12.84 13.0596 10.56 13.9796C8.28 14.8996 6.22 16.0596 4.38 17.4596L0.840001 4.67957C3.4 3.39957 6.34 2.31957 9.66 1.43957C12.98 0.51957 16.32 0.0595703 19.68 0.0595703C25.2 0.0595703 29.48 1.27957 32.52 3.71957C35.56 6.15957 37.08 9.61957 37.08 14.0996C37.08 16.4996 36.54 18.6196 35.46 20.4596C34.42 22.2596 33.14 23.7796 31.62 25.0196C30.14 26.2596 28.2 27.6796 25.8 29.2796C23.12 31.0396 21.14 32.5596 19.86 33.8396C18.62 35.0796 18 36.5196 18 38.1596H25.26V34.7396H37.56V47.9996H0.720001V42.8396Z" fill="url(#paint0_linear_134_258)"/>
<path d="M60.9248 48.8396C54.1648 48.8396 48.9448 46.9196 45.2648 43.0796C41.6248 39.2396 39.8048 33.0996 39.8048 24.6596C39.8048 16.2196 41.6248 10.0796 45.2648 6.23957C48.9448 2.39957 54.1648 0.479568 60.9248 0.479568C67.6848 0.479568 72.8848 2.39957 76.5248 6.23957C80.2048 10.0796 82.0448 16.2196 82.0448 24.6596C82.0448 32.4596 80.3448 38.4396 76.9448 42.5996C73.5848 46.7596 68.2448 48.8396 60.9248 48.8396ZM60.9248 38.1596C63.6448 38.1596 65.0048 36.6796 65.0048 33.7196V15.5996C65.0048 12.6396 63.6448 11.1596 60.9248 11.1596C58.2048 11.1596 56.8448 12.6396 56.8448 15.5996V33.7196C56.8448 36.6796 58.2048 38.1596 60.9248 38.1596Z" fill="url(#paint1_linear_134_258)"/>
<path d="M83.6302 42.8396C83.6302 39.3996 84.1302 36.3596 85.1302 33.7196C86.1702 31.0796 87.8502 28.5996 90.1702 26.2796C92.4902 23.9196 95.6902 21.4796 99.7702 18.9596C100.97 18.1996 101.81 17.5596 102.29 17.0396C102.81 16.4796 103.07 15.8196 103.07 15.0596C103.07 13.4196 101.89 12.5996 99.5302 12.5996C97.7702 12.5996 95.7502 13.0596 93.4702 13.9796C91.1902 14.8996 89.1301 16.0596 87.2902 17.4596L83.7502 4.67957C86.3102 3.39957 89.2502 2.31957 92.5702 1.43957C95.8902 0.51957 99.2302 0.0595703 102.59 0.0595703C108.11 0.0595703 112.39 1.27957 115.43 3.71957C118.47 6.15957 119.99 9.61957 119.99 14.0996C119.99 16.4996 119.45 18.6196 118.37 20.4596C117.33 22.2596 116.05 23.7796 114.53 25.0196C113.05 26.2596 111.11 27.6796 108.71 29.2796C106.03 31.0396 104.05 32.5596 102.77 33.8396C101.53 35.0796 100.91 36.5196 100.91 38.1596H108.17V34.7396H120.47V47.9996H83.6302V42.8396Z" fill="url(#paint2_linear_134_258)"/>
<path d="M124.515 47.9996V38.1596H130.275V11.1596H122.715V4.37957L136.035 1.31957H146.115V38.1596H151.155V47.9996H124.515Z" fill="url(#paint3_linear_134_258)"/>
<path d="M155.623 28.4996V18.6596H164.983V28.4996H155.623ZM155.623 47.9996V38.1596H164.983V47.9996H155.623Z" fill="url(#paint4_linear_134_258)"/>
<path d="M1.20001 150V140.16H4.20001V113.16H1.20001V103.32H41.7V121.44H28.26V113.16H21V122.64H26.28V129.48H21V140.16H28.26V130.68H41.7V150H1.20001Z" fill="url(#paint5_linear_134_258)"/>
<path d="M78.2935 140.16H80.2135V150H61.4935V140.16H63.1735L60.8335 136.62H60.2334L57.8934 140.16H59.5734V150H43.4935V140.16H46.0135L53.2734 133.68L45.6535 126.48H43.7334V116.64H62.4534V126.48H60.7734L63.1134 129.96H63.7134L66.0535 126.48H64.3734V116.64H79.9734V126.48H77.4535L70.5535 132.84L78.2935 140.16Z" fill="url(#paint6_linear_134_258)"/>
<path d="M81.758 153.48H84.398V126.48H81.758V116.64H98.198V120.72C99.198 119.44 100.478 118.3 102.038 117.3C103.638 116.3 105.458 115.8 107.498 115.8C111.578 115.8 114.638 117.32 116.678 120.36C118.758 123.4 119.798 127.72 119.798 133.32C119.798 138.92 118.758 143.24 116.678 146.28C114.638 149.32 111.578 150.84 107.498 150.84C105.458 150.84 103.638 150.34 102.038 149.34C100.478 148.34 99.198 147.2 98.198 145.92V153.48H102.338V163.32H81.758V153.48ZM101.678 140.16C102.838 140.16 103.698 139.86 104.258 139.26C104.858 138.62 105.158 137.64 105.158 136.32V130.32C105.158 129 104.858 128.04 104.258 127.44C103.698 126.8 102.838 126.48 101.678 126.48C100.518 126.48 99.638 126.8 99.038 127.44C98.478 128.04 98.198 129 98.198 130.32V136.32C98.198 137.64 98.478 138.62 99.038 139.26C99.638 139.86 100.518 140.16 101.678 140.16Z" fill="url(#paint7_linear_134_258)"/>
<path d="M156.47 140.16V150H140.63V145.92C139.75 147.2 138.51 148.34 136.91 149.34C135.35 150.34 133.43 150.84 131.15 150.84C128.15 150.84 125.79 150.04 124.07 148.44C122.35 146.84 121.49 144.58 121.49 141.66C121.49 134.1 127.91 130.22 140.75 130.02C140.63 128.66 140.11 127.74 139.19 127.26C138.27 126.74 136.71 126.48 134.51 126.48C132.71 126.48 130.77 126.68 128.69 127.08C126.65 127.44 124.77 127.94 123.05 128.58V117.54C125.17 117.02 127.47 116.6 129.95 116.28C132.43 115.96 134.85 115.8 137.21 115.8C143.17 115.8 147.43 116.88 149.99 119.04C152.55 121.2 153.83 124.54 153.83 129.06V140.16H156.47ZM140.63 135.96C138.83 135.96 137.43 136.2 136.43 136.68C135.47 137.16 134.99 137.96 134.99 139.08C134.99 139.76 135.19 140.32 135.59 140.76C136.03 141.16 136.63 141.36 137.39 141.36C138.43 141.36 139.23 140.92 139.79 140.04C140.35 139.16 140.63 137.92 140.63 136.32V135.96Z" fill="url(#paint8_linear_134_258)"/>
<path d="M198.244 140.16V150H179.284V140.16H181.804V130.32C181.804 129 181.524 128.04 180.964 127.44C180.404 126.8 179.564 126.48 178.444 126.48C176.044 126.48 174.844 127.76 174.844 130.32V140.16H177.364V150H158.404V140.16H161.044V126.48H158.404V116.64H174.844V121.32C177.724 117.64 181.324 115.8 185.644 115.8C188.964 115.8 191.444 116.84 193.084 118.92C194.764 121 195.604 123.86 195.604 127.5V140.16H198.244Z" fill="url(#paint9_linear_134_258)"/>
<path d="M214.762 150.84C209.722 150.84 204.862 150.04 200.182 148.44V139.56H209.902V140.16C209.902 142.08 211.122 143.04 213.562 143.04C215.722 143.04 216.802 142.3 216.802 140.82C216.802 140.02 216.482 139.42 215.842 139.02C215.242 138.62 214.162 138.28 212.602 138L209.602 137.46C203.322 136.34 200.182 132.78 200.182 126.78C200.182 123.3 201.502 120.6 204.142 118.68C206.782 116.76 210.342 115.8 214.822 115.8C219.822 115.8 224.042 116.64 227.482 118.32V126.66H218.362V126.06C218.362 125.26 218.082 124.66 217.522 124.26C217.002 123.82 216.222 123.6 215.182 123.6C213.182 123.6 212.182 124.24 212.182 125.52C212.182 126.2 212.462 126.72 213.022 127.08C213.582 127.44 214.602 127.78 216.082 128.1L219.502 128.76C223.062 129.44 225.602 130.7 227.122 132.54C228.642 134.38 229.402 136.74 229.402 139.62C229.402 143.26 228.122 146.04 225.562 147.96C223.042 149.88 219.442 150.84 214.762 150.84Z" fill="url(#paint10_linear_134_258)"/>
<path d="M234.175 113.34V103.32H246.415V113.34H234.175ZM231.295 150V140.16H233.935V126.48H231.295V116.64H247.735V140.16H250.375V150H231.295Z" fill="url(#paint11_linear_134_258)"/>
<path d="M269.917 150.84C264.237 150.84 259.797 149.36 256.597 146.4C253.397 143.4 251.797 139.04 251.797 133.32C251.797 127.6 253.397 123.26 256.597 120.3C259.797 117.3 264.237 115.8 269.917 115.8C275.677 115.8 280.137 117.32 283.297 120.36C286.457 123.36 288.037 127.68 288.037 133.32C288.037 139.04 286.437 143.4 283.237 146.4C280.037 149.36 275.597 150.84 269.917 150.84ZM269.917 140.16C271.077 140.16 271.937 139.86 272.497 139.26C273.097 138.62 273.397 137.64 273.397 136.32V130.32C273.397 129 273.097 128.04 272.497 127.44C271.937 126.8 271.077 126.48 269.917 126.48C268.757 126.48 267.877 126.8 267.277 127.44C266.717 128.04 266.437 129 266.437 130.32V136.32C266.437 137.64 266.717 138.62 267.277 139.26C267.877 139.86 268.757 140.16 269.917 140.16Z" fill="url(#paint12_linear_134_258)"/>
<path d="M329.787 140.16V150H310.827V140.16H313.347V130.32C313.347 129 313.067 128.04 312.507 127.44C311.947 126.8 311.107 126.48 309.987 126.48C307.587 126.48 306.387 127.76 306.387 130.32V140.16H308.907V150H289.947V140.16H292.587V126.48H289.947V116.64H306.387V121.32C309.267 117.64 312.867 115.8 317.187 115.8C320.507 115.8 322.987 116.84 324.627 118.92C326.307 121 327.147 123.86 327.147 127.5V140.16H329.787Z" fill="url(#paint13_linear_134_258)"/>
<path d="M333.045 159.66L336.165 150H333.105V140.16H342.465V150L338.205 159.66H333.045Z" fill="url(#paint14_linear_134_258)"/>
<path d="M46.44 237H43.44V249C41.68 250 39.1 250.9 35.7 251.7C32.34 252.46 28.7 252.84 24.78 252.84C17.3 252.84 11.44 250.88 7.2 246.96C2.96 243 0.839996 236.9 0.839996 228.66C0.839996 220.22 2.94 214.08 7.14 210.24C11.38 206.4 17.42 204.48 25.26 204.48C29.06 204.48 32.62 204.88 35.94 205.68C39.26 206.48 41.76 207.38 43.44 208.38V222.72H28.44V219.9C28.44 218.22 28.08 217.02 27.36 216.3C26.68 215.54 25.58 215.16 24.06 215.16C22.54 215.16 21.42 215.54 20.7 216.3C20.02 217.02 19.68 218.22 19.68 219.9V237.42C19.68 239.1 20.02 240.32 20.7 241.08C21.42 241.8 22.54 242.16 24.06 242.16C25.58 242.16 26.68 241.8 27.36 241.08C28.08 240.32 28.44 239.1 28.44 237.42V237H25.2V228.06H46.44V237Z" fill="url(#paint15_linear_134_258)"/>
<path d="M73.6336 217.8C74.4336 217.8 75.1936 217.88 75.9136 218.04C76.6336 218.2 77.2336 218.4 77.7136 218.64V230.1C76.0736 229.42 74.3136 229.08 72.4336 229.08C69.9136 229.08 67.9736 229.74 66.6136 231.06C65.2536 232.38 64.5736 234.34 64.5736 236.94V242.16H69.9736V252H48.1336V242.16H50.7736V228.48H48.1336V218.64H64.5736V223.02C65.6936 221.34 66.9736 220.06 68.4136 219.18C69.8536 218.26 71.5936 217.8 73.6336 217.8Z" fill="url(#paint16_linear_134_258)"/>
<path d="M97.5342 252.84C91.8542 252.84 87.4142 251.36 84.2142 248.4C81.0142 245.4 79.4142 241.04 79.4142 235.32C79.4142 229.6 81.0142 225.26 84.2142 222.3C87.4142 219.3 91.8542 217.8 97.5342 217.8C103.294 217.8 107.754 219.32 110.914 222.36C114.074 225.36 115.654 229.68 115.654 235.32C115.654 241.04 114.054 245.4 110.854 248.4C107.654 251.36 103.214 252.84 97.5342 252.84ZM97.5342 242.16C98.6942 242.16 99.5542 241.86 100.114 241.26C100.714 240.62 101.014 239.64 101.014 238.32V232.32C101.014 231 100.714 230.04 100.114 229.44C99.5542 228.8 98.6942 228.48 97.5342 228.48C96.3742 228.48 95.4942 228.8 94.8942 229.44C94.3342 230.04 94.0542 231 94.0542 232.32V238.32C94.0542 239.64 94.3342 240.62 94.8942 241.26C95.4942 241.86 96.3742 242.16 97.5342 242.16Z" fill="url(#paint17_linear_134_258)"/>
<path d="M127.524 252L119.604 228.48H117.084V218.64H135.624V228.48H133.104L135.264 237.84H135.864L140.244 218.64H151.284L155.664 237.84H156.264L158.364 228.48H155.844V218.64H173.244V228.48H170.724L163.104 252H148.524L145.224 235.32H144.624L141.324 252H127.524Z" fill="url(#paint18_linear_134_258)"/>
<path d="M189.748 252.84C185.508 252.84 182.308 251.82 180.148 249.78C178.028 247.7 176.968 244.22 176.968 239.34V228.48H174.328V218.64C175.848 218.64 176.988 218.26 177.748 217.5C178.508 216.7 178.888 215.62 178.888 214.26V211.56H191.608V218.64H199.708V228.48H191.608V238.32C191.608 239.64 191.888 240.62 192.448 241.26C193.048 241.86 193.928 242.16 195.088 242.16C196.608 242.16 198.268 241.98 200.068 241.62V251.04C198.948 251.48 197.428 251.88 195.508 252.24C193.628 252.64 191.708 252.84 189.748 252.84Z" fill="url(#paint19_linear_134_258)"/>
<path d="M241.838 242.16V252H222.878V242.16H225.398V232.32C225.398 231 225.118 230.04 224.558 229.44C223.998 228.8 223.158 228.48 222.038 228.48C219.638 228.48 218.438 229.76 218.438 232.32V242.16H220.958V252H201.998V242.16H204.638V215.16H201.998V205.32H218.438V223.32C219.918 221.48 221.518 220.1 223.238 219.18C224.958 218.26 226.958 217.8 229.238 217.8C232.558 217.8 235.038 218.84 236.678 220.92C238.358 223 239.198 225.86 239.198 229.5V242.16H241.838Z" fill="url(#paint20_linear_134_258)"/>
<path d="M245.095 261.66L248.215 252H245.155V242.16H254.515V252L250.255 261.66H245.095Z" fill="url(#paint21_linear_134_258)"/>
<path d="M21 354.84C14.56 354.84 9.59999 353.66 6.11999 351.3C2.67999 348.9 0.959991 345.6 0.959991 341.4C0.959991 338.6 1.79999 336.18 3.47999 334.14C5.15999 332.06 7.25999 330.5 9.77999 329.46C7.53999 327.86 5.85999 326.22 4.73999 324.54C3.61999 322.86 3.05999 320.9 3.05999 318.66C3.05999 316.1 3.87999 313.9 5.51999 312.06C7.15999 310.22 9.41999 308.84 12.3 307.92C15.22 306.96 18.54 306.48 22.26 306.48C26.02 306.48 29.46 306.94 32.58 307.86C35.7 308.78 38.02 309.8 39.54 310.92V322.44H26.94V321.36C26.94 319.92 26.6 318.86 25.92 318.18C25.24 317.5 24.22 317.16 22.86 317.16C20.34 317.16 19.08 318.14 19.08 320.1C19.08 320.86 19.38 321.58 19.98 322.26C20.62 322.94 21.62 323.8 22.98 324.84L32.76 332.22C32.92 331.38 33 330.42 33 329.34V328.26H47.46V338.28H43.98L43.44 340.26L48.84 344.34L41.52 354L37.14 350.64C33.14 353.44 27.76 354.84 21 354.84ZM22.56 344.16C24.52 344.16 26.12 343.8 27.36 343.08L19.74 337.2C18.98 337.56 18.38 338.06 17.94 338.7C17.5 339.3 17.28 339.98 17.28 340.74C17.28 341.94 17.72 342.82 18.6 343.38C19.52 343.9 20.84 344.16 22.56 344.16Z" fill="url(#paint22_linear_134_258)"/>
<path d="M45.96 423.84H35.64V419.16H31.8V446.16H36V456H10.8V446.16H15V419.16H11.16V423.84H0.839996V409.32H45.96V423.84Z" fill="url(#paint23_linear_134_258)"/>
<path d="M73.5164 421.8C74.3164 421.8 75.0764 421.88 75.7964 422.04C76.5164 422.2 77.1164 422.4 77.5964 422.64V434.1C75.9564 433.42 74.1964 433.08 72.3164 433.08C69.7964 433.08 67.8564 433.74 66.4964 435.06C65.1364 436.38 64.4564 438.34 64.4564 440.94V446.16H69.8564V456H48.0164V446.16H50.6564V432.48H48.0164V422.64H64.4564V427.02C65.5764 425.34 66.8564 424.06 68.2964 423.18C69.7364 422.26 71.4764 421.8 73.5164 421.8Z" fill="url(#paint24_linear_134_258)"/>
<path d="M114.517 446.16V456H98.677V451.92C97.797 453.2 96.557 454.34 94.957 455.34C93.397 456.34 91.477 456.84 89.197 456.84C86.197 456.84 83.837 456.04 82.117 454.44C80.397 452.84 79.537 450.58 79.537 447.66C79.537 440.1 85.957 436.22 98.797 436.02C98.677 434.66 98.157 433.74 97.237 433.26C96.317 432.74 94.757 432.48 92.557 432.48C90.757 432.48 88.817 432.68 86.737 433.08C84.697 433.44 82.817 433.94 81.097 434.58V423.54C83.217 423.02 85.517 422.6 87.997 422.28C90.477 421.96 92.897 421.8 95.257 421.8C101.217 421.8 105.477 422.88 108.037 425.04C110.597 427.2 111.877 430.54 111.877 435.06V446.16H114.517ZM98.677 441.96C96.877 441.96 95.477 442.2 94.477 442.68C93.517 443.16 93.037 443.96 93.037 445.08C93.037 445.76 93.237 446.32 93.637 446.76C94.077 447.16 94.677 447.36 95.437 447.36C96.477 447.36 97.277 446.92 97.837 446.04C98.397 445.16 98.677 443.92 98.677 442.32V441.96Z" fill="url(#paint25_linear_134_258)"/>
<path d="M156.291 446.16V456H137.331V446.16H139.851V436.32C139.851 435 139.571 434.04 139.011 433.44C138.451 432.8 137.611 432.48 136.491 432.48C134.091 432.48 132.891 433.76 132.891 436.32V446.16H135.411V456H116.451V446.16H119.091V432.48H116.451V422.64H132.891V427.32C135.771 423.64 139.371 421.8 143.691 421.8C147.011 421.8 149.491 422.84 151.131 424.92C152.811 427 153.651 429.86 153.651 433.5V446.16H156.291Z" fill="url(#paint26_linear_134_258)"/>
<path d="M172.808 456.84C167.768 456.84 162.908 456.04 158.228 454.44V445.56H167.948V446.16C167.948 448.08 169.168 449.04 171.608 449.04C173.768 449.04 174.848 448.3 174.848 446.82C174.848 446.02 174.528 445.42 173.888 445.02C173.288 444.62 172.208 444.28 170.648 444L167.648 443.46C161.368 442.34 158.228 438.78 158.228 432.78C158.228 429.3 159.548 426.6 162.188 424.68C164.828 422.76 168.388 421.8 172.868 421.8C177.868 421.8 182.088 422.64 185.528 424.32V432.66H176.408V432.06C176.408 431.26 176.128 430.66 175.568 430.26C175.048 429.82 174.268 429.6 173.228 429.6C171.228 429.6 170.228 430.24 170.228 431.52C170.228 432.2 170.508 432.72 171.068 433.08C171.628 433.44 172.648 433.78 174.128 434.1L177.548 434.76C181.108 435.44 183.648 436.7 185.168 438.54C186.688 440.38 187.448 442.74 187.448 445.62C187.448 449.26 186.168 452.04 183.608 453.96C181.088 455.88 177.488 456.84 172.808 456.84Z" fill="url(#paint27_linear_134_258)"/>
<path d="M189.342 446.16H191.982V432.48H189.342V422.64H192.102C192.102 417.76 193.282 414.18 195.642 411.9C198.042 409.62 201.522 408.48 206.082 408.48C208.282 408.48 210.242 408.64 211.962 408.96C213.722 409.28 215.002 409.64 215.802 410.04V419.46C213.682 419.26 211.722 419.16 209.922 419.16C208.362 419.16 207.282 419.42 206.682 419.94C206.082 420.46 205.782 421.36 205.782 422.64H210.462V432.48H205.782V446.16H210.462V456H189.342V446.16Z" fill="url(#paint28_linear_134_258)"/>
<path d="M230.249 456.84C224.569 456.84 220.129 455.36 216.929 452.4C213.729 449.4 212.129 445.04 212.129 439.32C212.129 433.6 213.729 429.26 216.929 426.3C220.129 423.3 224.569 421.8 230.249 421.8C236.009 421.8 240.469 423.32 243.629 426.36C246.789 429.36 248.369 433.68 248.369 439.32C248.369 445.04 246.769 449.4 243.569 452.4C240.369 455.36 235.929 456.84 230.249 456.84ZM230.249 446.16C231.409 446.16 232.269 445.86 232.829 445.26C233.429 444.62 233.729 443.64 233.729 442.32V436.32C233.729 435 233.429 434.04 232.829 433.44C232.269 432.8 231.409 432.48 230.249 432.48C229.089 432.48 228.209 432.8 227.609 433.44C227.049 434.04 226.769 435 226.769 436.32V442.32C226.769 443.64 227.049 444.62 227.609 445.26C228.209 445.86 229.089 446.16 230.249 446.16Z" fill="url(#paint29_linear_134_258)"/>
<path d="M275.899 421.8C276.699 421.8 277.459 421.88 278.179 422.04C278.899 422.2 279.499 422.4 279.979 422.64V434.1C278.339 433.42 276.579 433.08 274.699 433.08C272.179 433.08 270.239 433.74 268.879 435.06C267.519 436.38 266.839 438.34 266.839 440.94V446.16H272.239V456H250.399V446.16H253.039V432.48H250.399V422.64H266.839V427.02C267.959 425.34 269.239 424.06 270.679 423.18C272.119 422.26 273.859 421.8 275.899 421.8Z" fill="url(#paint30_linear_134_258)"/>
<path d="M342.52 446.16V456H323.56V446.16H326.08V436.32C326.08 435 325.8 434.04 325.24 433.44C324.68 432.8 323.84 432.48 322.72 432.48C320.32 432.48 319.12 433.76 319.12 436.32V446.16H321.64V456H302.8V446.16H305.32V436.32C305.32 435 305.04 434.04 304.48 433.44C303.92 432.8 303.08 432.48 301.96 432.48C299.56 432.48 298.36 433.76 298.36 436.32V446.16H300.88V456H281.92V446.16H284.56V432.48H281.92V422.64H298.36V427.32C301.24 423.64 304.84 421.8 309.16 421.8C311.6 421.8 313.58 422.38 315.1 423.54C316.66 424.66 317.76 426.26 318.4 428.34C319.84 426.26 321.48 424.66 323.32 423.54C325.2 422.42 327.4 421.86 329.92 421.86C333.24 421.86 335.72 422.9 337.36 424.98C339.04 427.06 339.88 429.92 339.88 433.56V446.16H342.52Z" fill="url(#paint31_linear_134_258)"/>
<path d="M379.419 446.16V456H363.579V451.92C362.699 453.2 361.459 454.34 359.859 455.34C358.299 456.34 356.379 456.84 354.099 456.84C351.099 456.84 348.739 456.04 347.019 454.44C345.299 452.84 344.439 450.58 344.439 447.66C344.439 440.1 350.859 436.22 363.699 436.02C363.579 434.66 363.059 433.74 362.139 433.26C361.219 432.74 359.659 432.48 357.459 432.48C355.659 432.48 353.719 432.68 351.639 433.08C349.599 433.44 347.719 433.94 345.999 434.58V423.54C348.119 423.02 350.419 422.6 352.899 422.28C355.379 421.96 357.799 421.8 360.159 421.8C366.119 421.8 370.379 422.88 372.939 425.04C375.499 427.2 376.779 430.54 376.779 435.06V446.16H379.419ZM363.579 441.96C361.779 441.96 360.379 442.2 359.379 442.68C358.419 443.16 357.939 443.96 357.939 445.08C357.939 445.76 358.139 446.32 358.539 446.76C358.979 447.16 359.579 447.36 360.339 447.36C361.379 447.36 362.179 446.92 362.739 446.04C363.299 445.16 363.579 443.92 363.579 442.32V441.96Z" fill="url(#paint32_linear_134_258)"/>
<path d="M396.173 456.84C391.933 456.84 388.733 455.82 386.573 453.78C384.453 451.7 383.393 448.22 383.393 443.34V432.48H380.753V422.64C382.273 422.64 383.413 422.26 384.173 421.5C384.933 420.7 385.313 419.62 385.313 418.26V415.56H398.033V422.64H406.133V432.48H398.033V442.32C398.033 443.64 398.313 444.62 398.873 445.26C399.473 445.86 400.353 446.16 401.513 446.16C403.033 446.16 404.693 445.98 406.493 445.62V455.04C405.373 455.48 403.853 455.88 401.933 456.24C400.053 456.64 398.133 456.84 396.173 456.84Z" fill="url(#paint33_linear_134_258)"/>
<path d="M411.304 419.34V409.32H423.544V419.34H411.304ZM408.424 456V446.16H411.064V432.48H408.424V422.64H424.864V446.16H427.504V456H408.424Z" fill="url(#paint34_linear_134_258)"/>
<path d="M447.046 456.84C441.366 456.84 436.926 455.36 433.726 452.4C430.526 449.4 428.926 445.04 428.926 439.32C428.926 433.6 430.526 429.26 433.726 426.3C436.926 423.3 441.366 421.8 447.046 421.8C452.806 421.8 457.266 423.32 460.426 426.36C463.586 429.36 465.166 433.68 465.166 439.32C465.166 445.04 463.566 449.4 460.366 452.4C457.166 455.36 452.726 456.84 447.046 456.84ZM447.046 446.16C448.206 446.16 449.066 445.86 449.626 445.26C450.226 444.62 450.526 443.64 450.526 442.32V436.32C450.526 435 450.226 434.04 449.626 433.44C449.066 432.8 448.206 432.48 447.046 432.48C445.886 432.48 445.006 432.8 444.406 433.44C443.846 434.04 443.566 435 443.566 436.32V442.32C443.566 443.64 443.846 444.62 444.406 445.26C445.006 445.86 445.886 446.16 447.046 446.16Z" fill="url(#paint35_linear_134_258)"/>
<path d="M506.916 446.16V456H487.956V446.16H490.476V436.32C490.476 435 490.196 434.04 489.636 433.44C489.076 432.8 488.236 432.48 487.116 432.48C484.716 432.48 483.516 433.76 483.516 436.32V446.16H486.036V456H467.076V446.16H469.716V432.48H467.076V422.64H483.516V427.32C486.396 423.64 489.996 421.8 494.316 421.8C497.636 421.8 500.116 422.84 501.756 424.92C503.436 427 504.276 429.86 504.276 433.5V446.16H506.916Z" fill="url(#paint36_linear_134_258)"/>
<defs>
<linearGradient id="paint0_linear_134_258" x1="1.19393e-06" y1="1.52998" x2="168.169" y2="2.14763" gradientUnits="userSpaceOnUse">
<stop stop-color="#2563EB"/>
<stop offset="1" stop-color="#059669"/>
</linearGradient>
<linearGradient id="paint1_linear_134_258" x1="1.19393e-06" y1="1.52998" x2="168.169" y2="2.14763" gradientUnits="userSpaceOnUse">
<stop stop-color="#2563EB"/>
<stop offset="1" stop-color="#059669"/>
</linearGradient>
<linearGradient id="paint2_linear_134_258" x1="1.19393e-06" y1="1.52998" x2="168.169" y2="2.14763" gradientUnits="userSpaceOnUse">
<stop stop-color="#2563EB"/>
<stop offset="1" stop-color="#059669"/>
</linearGradient>
<linearGradient id="paint3_linear_134_258" x1="1.19393e-06" y1="1.52998" x2="168.169" y2="2.14763" gradientUnits="userSpaceOnUse">
<stop stop-color="#2563EB"/>
<stop offset="1" stop-color="#059669"/>
</linearGradient>
<linearGradient id="paint4_linear_134_258" x1="1.19393e-06" y1="1.52998" x2="168.169" y2="2.14763" gradientUnits="userSpaceOnUse">
<stop stop-color="#2563EB"/>
<stop offset="1" stop-color="#059669"/>
</linearGradient>
<linearGradient id="paint5_linear_134_258" x1="1.42963e-06" y1="103.53" x2="346.333" y2="106.15" gradientUnits="userSpaceOnUse">
<stop stop-color="#2563EB"/>
<stop offset="1" stop-color="#059669"/>
</linearGradient>
<linearGradient id="paint6_linear_134_258" x1="1.42963e-06" y1="103.53" x2="346.333" y2="106.15" gradientUnits="userSpaceOnUse">
<stop stop-color="#2563EB"/>
<stop offset="1" stop-color="#059669"/>
</linearGradient>
<linearGradient id="paint7_linear_134_258" x1="1.42963e-06" y1="103.53" x2="346.333" y2="106.15" gradientUnits="userSpaceOnUse">
<stop stop-color="#2563EB"/>
<stop offset="1" stop-color="#059669"/>
</linearGradient>
<linearGradient id="paint8_linear_134_258" x1="1.42963e-06" y1="103.53" x2="346.333" y2="106.15" gradientUnits="userSpaceOnUse">
<stop stop-color="#2563EB"/>
<stop offset="1" stop-color="#059669"/>
</linearGradient>
<linearGradient id="paint9_linear_134_258" x1="1.42963e-06" y1="103.53" x2="346.333" y2="106.15" gradientUnits="userSpaceOnUse">
<stop stop-color="#2563EB"/>
<stop offset="1" stop-color="#059669"/>
</linearGradient>
<linearGradient id="paint10_linear_134_258" x1="1.42963e-06" y1="103.53" x2="346.333" y2="106.15" gradientUnits="userSpaceOnUse">
<stop stop-color="#2563EB"/>
<stop offset="1" stop-color="#059669"/>
</linearGradient>
<linearGradient id="paint11_linear_134_258" x1="1.42963e-06" y1="103.53" x2="346.333" y2="106.15" gradientUnits="userSpaceOnUse">
<stop stop-color="#2563EB"/>
<stop offset="1" stop-color="#059669"/>
</linearGradient>
<linearGradient id="paint12_linear_134_258" x1="1.42963e-06" y1="103.53" x2="346.333" y2="106.15" gradientUnits="userSpaceOnUse">
<stop stop-color="#2563EB"/>
<stop offset="1" stop-color="#059669"/>
</linearGradient>
<linearGradient id="paint13_linear_134_258" x1="1.42963e-06" y1="103.53" x2="346.333" y2="106.15" gradientUnits="userSpaceOnUse">
<stop stop-color="#2563EB"/>
<stop offset="1" stop-color="#059669"/>
</linearGradient>
<linearGradient id="paint14_linear_134_258" x1="1.42963e-06" y1="103.53" x2="346.333" y2="106.15" gradientUnits="userSpaceOnUse">
<stop stop-color="#2563EB"/>
<stop offset="1" stop-color="#059669"/>
</linearGradient>
<linearGradient id="paint15_linear_134_258" x1="2.8985e-06" y1="205.53" x2="258.255" y2="206.986" gradientUnits="userSpaceOnUse">
<stop stop-color="#2563EB"/>
<stop offset="1" stop-color="#059669"/>
</linearGradient>
<linearGradient id="paint16_linear_134_258" x1="2.8985e-06" y1="205.53" x2="258.255" y2="206.986" gradientUnits="userSpaceOnUse">
<stop stop-color="#2563EB"/>
<stop offset="1" stop-color="#059669"/>
</linearGradient>
<linearGradient id="paint17_linear_134_258" x1="2.8985e-06" y1="205.53" x2="258.255" y2="206.986" gradientUnits="userSpaceOnUse">
<stop stop-color="#2563EB"/>
<stop offset="1" stop-color="#059669"/>
</linearGradient>
<linearGradient id="paint18_linear_134_258" x1="2.8985e-06" y1="205.53" x2="258.255" y2="206.986" gradientUnits="userSpaceOnUse">
<stop stop-color="#2563EB"/>
<stop offset="1" stop-color="#059669"/>
</linearGradient>
<linearGradient id="paint19_linear_134_258" x1="2.8985e-06" y1="205.53" x2="258.255" y2="206.986" gradientUnits="userSpaceOnUse">
<stop stop-color="#2563EB"/>
<stop offset="1" stop-color="#059669"/>
</linearGradient>
<linearGradient id="paint20_linear_134_258" x1="2.8985e-06" y1="205.53" x2="258.255" y2="206.986" gradientUnits="userSpaceOnUse">
<stop stop-color="#2563EB"/>
<stop offset="1" stop-color="#059669"/>
</linearGradient>
<linearGradient id="paint21_linear_134_258" x1="2.8985e-06" y1="205.53" x2="258.255" y2="206.986" gradientUnits="userSpaceOnUse">
<stop stop-color="#2563EB"/>
<stop offset="1" stop-color="#059669"/>
</linearGradient>
<linearGradient id="paint22_linear_134_258" x1="-2.08073e-07" y1="307.53" x2="50.0509" y2="307.585" gradientUnits="userSpaceOnUse">
<stop stop-color="#2563EB"/>
<stop offset="1" stop-color="#059669"/>
</linearGradient>
<linearGradient id="paint23_linear_134_258" x1="3.31881e-06" y1="409.53" x2="508.455" y2="415.177" gradientUnits="userSpaceOnUse">
<stop stop-color="#2563EB"/>
<stop offset="1" stop-color="#059669"/>
</linearGradient>
<linearGradient id="paint24_linear_134_258" x1="3.31881e-06" y1="409.53" x2="508.455" y2="415.177" gradientUnits="userSpaceOnUse">
<stop stop-color="#2563EB"/>
<stop offset="1" stop-color="#059669"/>
</linearGradient>
<linearGradient id="paint25_linear_134_258" x1="3.31881e-06" y1="409.53" x2="508.455" y2="415.177" gradientUnits="userSpaceOnUse">
<stop stop-color="#2563EB"/>
<stop offset="1" stop-color="#059669"/>
</linearGradient>
<linearGradient id="paint26_linear_134_258" x1="3.31881e-06" y1="409.53" x2="508.455" y2="415.177" gradientUnits="userSpaceOnUse">
<stop stop-color="#2563EB"/>
<stop offset="1" stop-color="#059669"/>
</linearGradient>
<linearGradient id="paint27_linear_134_258" x1="3.31881e-06" y1="409.53" x2="508.455" y2="415.177" gradientUnits="userSpaceOnUse">
<stop stop-color="#2563EB"/>
<stop offset="1" stop-color="#059669"/>
</linearGradient>
<linearGradient id="paint28_linear_134_258" x1="3.31881e-06" y1="409.53" x2="508.455" y2="415.177" gradientUnits="userSpaceOnUse">
<stop stop-color="#2563EB"/>
<stop offset="1" stop-color="#059669"/>
</linearGradient>
<linearGradient id="paint29_linear_134_258" x1="3.31881e-06" y1="409.53" x2="508.455" y2="415.177" gradientUnits="userSpaceOnUse">
<stop stop-color="#2563EB"/>
<stop offset="1" stop-color="#059669"/>
</linearGradient>
<linearGradient id="paint30_linear_134_258" x1="3.31881e-06" y1="409.53" x2="508.455" y2="415.177" gradientUnits="userSpaceOnUse">
<stop stop-color="#2563EB"/>
<stop offset="1" stop-color="#059669"/>
</linearGradient>
<linearGradient id="paint31_linear_134_258" x1="3.31881e-06" y1="409.53" x2="508.455" y2="415.177" gradientUnits="userSpaceOnUse">
<stop stop-color="#2563EB"/>
<stop offset="1" stop-color="#059669"/>
</linearGradient>
<linearGradient id="paint32_linear_134_258" x1="3.31881e-06" y1="409.53" x2="508.455" y2="415.177" gradientUnits="userSpaceOnUse">
<stop stop-color="#2563EB"/>
<stop offset="1" stop-color="#059669"/>
</linearGradient>
<linearGradient id="paint33_linear_134_258" x1="3.31881e-06" y1="409.53" x2="508.455" y2="415.177" gradientUnits="userSpaceOnUse">
<stop stop-color="#2563EB"/>
<stop offset="1" stop-color="#059669"/>
</linearGradient>
<linearGradient id="paint34_linear_134_258" x1="3.31881e-06" y1="409.53" x2="508.455" y2="415.177" gradientUnits="userSpaceOnUse">
<stop stop-color="#2563EB"/>
<stop offset="1" stop-color="#059669"/>
</linearGradient>
<linearGradient id="paint35_linear_134_258" x1="3.31881e-06" y1="409.53" x2="508.455" y2="415.177" gradientUnits="userSpaceOnUse">
<stop stop-color="#2563EB"/>
<stop offset="1" stop-color="#059669"/>
</linearGradient>
<linearGradient id="paint36_linear_134_258" x1="3.31881e-06" y1="409.53" x2="508.455" y2="415.177" gradientUnits="userSpaceOnUse">
<stop stop-color="#2563EB"/>
<stop offset="1" stop-color="#059669"/>
</linearGradient>
</defs>
</svg>
