<svg width="500" height="500" viewBox="0 0 500 500" fill="none" xmlns="http://www.w3.org/2000/svg">
<g clip-path="url(#clip0_80_306)">
<line opacity="0.010101" x1="283.293" y1="771.293" x2="796.293" y2="258.293" stroke="#0056B8" stroke-width="2"/>
<line opacity="0.020202" x1="277.293" y1="766.293" x2="790.293" y2="253.293" stroke="#0056B8" stroke-width="2"/>
<line opacity="0.030303" x1="271.293" y1="761.293" x2="784.293" y2="248.293" stroke="#0056B8" stroke-width="2"/>
<line opacity="0.040404" x1="265.293" y1="756.293" x2="778.293" y2="243.293" stroke="#0056B8" stroke-width="2"/>
<line opacity="0.050505" x1="259.293" y1="751.293" x2="772.293" y2="238.293" stroke="#0056B8" stroke-width="2"/>
<line opacity="0.0606061" x1="253.293" y1="746.293" x2="766.293" y2="233.293" stroke="#0056B8" stroke-width="2"/>
<line opacity="0.0707071" x1="247.293" y1="741.293" x2="760.293" y2="228.293" stroke="#0056B8" stroke-width="2"/>
<line opacity="0.0808081" x1="241.293" y1="736.293" x2="754.293" y2="223.293" stroke="#0056B8" stroke-width="2"/>
<line opacity="0.0909091" x1="235.293" y1="731.293" x2="748.293" y2="218.293" stroke="#0056B8" stroke-width="2"/>
<line opacity="0.10101" x1="229.293" y1="726.293" x2="742.293" y2="213.293" stroke="#0056B8" stroke-width="2"/>
<line opacity="0.111111" x1="223.293" y1="721.293" x2="736.293" y2="208.293" stroke="#0056B8" stroke-width="2"/>
<line opacity="0.121212" x1="217.293" y1="716.293" x2="730.293" y2="203.293" stroke="#0056B8" stroke-width="2"/>
<line opacity="0.131313" x1="211.293" y1="711.293" x2="724.293" y2="198.293" stroke="#0056B8" stroke-width="2"/>
<line opacity="0.141414" x1="205.293" y1="706.293" x2="718.293" y2="193.293" stroke="#0056B8" stroke-width="2"/>
<line opacity="0.151515" x1="199.293" y1="701.293" x2="712.293" y2="188.293" stroke="#0056B8" stroke-width="2"/>
<line opacity="0.161616" x1="193.293" y1="696.293" x2="706.293" y2="183.293" stroke="#0056B8" stroke-width="2"/>
<line opacity="0.171717" x1="187.293" y1="691.293" x2="700.293" y2="178.293" stroke="#0056B8" stroke-width="2"/>
<line opacity="0.181818" x1="181.293" y1="686.293" x2="694.293" y2="173.293" stroke="#0056B8" stroke-width="2"/>
<line opacity="0.191919" x1="175.293" y1="681.293" x2="688.293" y2="168.293" stroke="#0056B8" stroke-width="2"/>
<line opacity="0.20202" x1="169.293" y1="676.293" x2="682.293" y2="163.293" stroke="#0056B8" stroke-width="2"/>
<line opacity="0.212121" x1="163.293" y1="671.293" x2="676.293" y2="158.293" stroke="#0056B8" stroke-width="2"/>
<line opacity="0.222222" x1="157.293" y1="666.293" x2="670.293" y2="153.293" stroke="#0056B8" stroke-width="2"/>
<line opacity="0.232323" x1="151.293" y1="661.293" x2="664.293" y2="148.293" stroke="#0056B8" stroke-width="2"/>
<line opacity="0.242424" x1="145.293" y1="656.293" x2="658.293" y2="143.293" stroke="#0056B8" stroke-width="2"/>
<line opacity="0.252525" x1="139.293" y1="651.293" x2="652.293" y2="138.293" stroke="#0056B8" stroke-width="2"/>
<line opacity="0.262626" x1="133.293" y1="646.293" x2="646.293" y2="133.293" stroke="#0056B8" stroke-width="2"/>
<line opacity="0.272727" x1="127.293" y1="641.293" x2="640.293" y2="128.293" stroke="#0056B8" stroke-width="2"/>
<line opacity="0.282828" x1="121.293" y1="636.293" x2="634.293" y2="123.293" stroke="#0056B8" stroke-width="2"/>
<line opacity="0.292929" x1="115.293" y1="631.293" x2="628.293" y2="118.293" stroke="#0056B8" stroke-width="2"/>
<line opacity="0.30303" x1="109.293" y1="626.293" x2="622.293" y2="113.293" stroke="#0056B8" stroke-width="2"/>
<line opacity="0.313131" x1="103.293" y1="621.293" x2="616.293" y2="108.293" stroke="#0056B8" stroke-width="2"/>
<line opacity="0.323232" x1="97.2929" y1="616.293" x2="610.293" y2="103.293" stroke="#0056B8" stroke-width="2"/>
<line opacity="0.333333" x1="91.2929" y1="611.293" x2="604.293" y2="98.2928" stroke="#0056B8" stroke-width="2"/>
<line opacity="0.343434" x1="85.2929" y1="606.293" x2="598.293" y2="93.2928" stroke="#0056B8" stroke-width="2"/>
<line opacity="0.353535" x1="79.2929" y1="601.293" x2="592.293" y2="88.2928" stroke="#0056B8" stroke-width="2"/>
<line opacity="0.363636" x1="73.2929" y1="596.293" x2="586.293" y2="83.2928" stroke="#0056B8" stroke-width="2"/>
<line opacity="0.373737" x1="67.2929" y1="591.293" x2="580.293" y2="78.2928" stroke="#0056B8" stroke-width="2"/>
<line opacity="0.383838" x1="61.2929" y1="586.293" x2="574.293" y2="73.2928" stroke="#0056B8" stroke-width="2"/>
<line opacity="0.393939" x1="55.2929" y1="581.293" x2="568.293" y2="68.2928" stroke="#0056B8" stroke-width="2"/>
<line opacity="0.40404" x1="49.2929" y1="576.293" x2="562.293" y2="63.2928" stroke="#0056B8" stroke-width="2"/>
<line opacity="0.414141" x1="43.2929" y1="571.293" x2="556.293" y2="58.2928" stroke="#0056B8" stroke-width="2"/>
<line opacity="0.424242" x1="37.2929" y1="566.293" x2="550.293" y2="53.2928" stroke="#0056B8" stroke-width="2"/>
<line opacity="0.434343" x1="31.2929" y1="561.293" x2="544.293" y2="48.2928" stroke="#0056B8" stroke-width="2"/>
<line opacity="0.444444" x1="25.2929" y1="556.293" x2="538.293" y2="43.2928" stroke="#0056B8" stroke-width="2"/>
<line opacity="0.454545" x1="19.2929" y1="551.293" x2="532.293" y2="38.2928" stroke="#0056B8" stroke-width="2"/>
<line opacity="0.464646" x1="13.2929" y1="546.293" x2="526.293" y2="33.2928" stroke="#0056B8" stroke-width="2"/>
<line opacity="0.474747" x1="7.29289" y1="541.293" x2="520.293" y2="28.2928" stroke="#0056B8" stroke-width="2"/>
<line opacity="0.484848" x1="1.29289" y1="536.293" x2="514.293" y2="23.2928" stroke="#0056B8" stroke-width="2"/>
<line opacity="0.494949" x1="-4.70711" y1="531.293" x2="508.293" y2="18.2928" stroke="#0056B8" stroke-width="2"/>
<line opacity="0.50505" x1="-10.7071" y1="526.293" x2="502.293" y2="13.2928" stroke="#0056B8" stroke-width="2"/>
<line opacity="0.515152" x1="-16.7071" y1="521.293" x2="496.293" y2="8.29284" stroke="#0056B8" stroke-width="2"/>
<line opacity="0.525253" x1="-22.7071" y1="516.293" x2="490.293" y2="3.29284" stroke="#0056B8" stroke-width="2"/>
<line opacity="0.535354" x1="-28.7071" y1="511.293" x2="484.293" y2="-1.70716" stroke="#0056B8" stroke-width="2"/>
<line opacity="0.545455" x1="-34.7071" y1="506.293" x2="478.293" y2="-6.70716" stroke="#0056B8" stroke-width="2"/>
<line opacity="0.555556" x1="-40.7071" y1="501.293" x2="472.293" y2="-11.7072" stroke="#0056B8" stroke-width="2"/>
<line opacity="0.565657" x1="-46.7071" y1="496.293" x2="466.293" y2="-16.7072" stroke="#0056B8" stroke-width="2"/>
<line opacity="0.575758" x1="-52.7071" y1="491.293" x2="460.293" y2="-21.7072" stroke="#0056B8" stroke-width="2"/>
<line opacity="0.585859" x1="-58.7071" y1="486.293" x2="454.293" y2="-26.7072" stroke="#0056B8" stroke-width="2"/>
<line opacity="0.59596" x1="-64.7071" y1="481.293" x2="448.293" y2="-31.7072" stroke="#0056B8" stroke-width="2"/>
<line opacity="0.606061" x1="-70.7071" y1="476.293" x2="442.293" y2="-36.7072" stroke="#0056B8" stroke-width="2"/>
<line opacity="0.616162" x1="-76.7071" y1="471.293" x2="436.293" y2="-41.7072" stroke="#0056B8" stroke-width="2"/>
<line opacity="0.626263" x1="-82.7071" y1="466.293" x2="430.293" y2="-46.7072" stroke="#0056B8" stroke-width="2"/>
<line opacity="0.636364" x1="-88.7071" y1="461.293" x2="424.293" y2="-51.7072" stroke="#0056B8" stroke-width="2"/>
<line opacity="0.646465" x1="-94.7071" y1="456.293" x2="418.293" y2="-56.7072" stroke="#0056B8" stroke-width="2"/>
<line opacity="0.656566" x1="-100.707" y1="451.293" x2="412.293" y2="-61.7072" stroke="#0056B8" stroke-width="2"/>
<line opacity="0.666667" x1="-106.707" y1="446.293" x2="406.293" y2="-66.7072" stroke="#0056B8" stroke-width="2"/>
<line opacity="0.676768" x1="-112.707" y1="441.293" x2="400.293" y2="-71.7072" stroke="#0056B8" stroke-width="2"/>
<line opacity="0.686869" x1="-118.707" y1="436.293" x2="394.293" y2="-76.7072" stroke="#0056B8" stroke-width="2"/>
<line opacity="0.69697" x1="-124.707" y1="431.293" x2="388.293" y2="-81.7072" stroke="#0056B8" stroke-width="2"/>
<line opacity="0.707071" x1="-130.707" y1="426.293" x2="382.293" y2="-86.7072" stroke="#0056B8" stroke-width="2"/>
<line opacity="0.717172" x1="-136.707" y1="421.293" x2="376.293" y2="-91.7072" stroke="#0056B8" stroke-width="2"/>
<line opacity="0.727273" x1="-142.707" y1="416.293" x2="370.293" y2="-96.7072" stroke="#0056B8" stroke-width="2"/>
<line opacity="0.737374" x1="-148.707" y1="411.293" x2="364.293" y2="-101.707" stroke="#0056B8" stroke-width="2"/>
<line opacity="0.747475" x1="-154.707" y1="406.293" x2="358.293" y2="-106.707" stroke="#0056B8" stroke-width="2"/>
<line opacity="0.757576" x1="-160.707" y1="401.293" x2="352.293" y2="-111.707" stroke="#0056B8" stroke-width="2"/>
<line opacity="0.767677" x1="-166.707" y1="396.293" x2="346.293" y2="-116.707" stroke="#0056B8" stroke-width="2"/>
<line opacity="0.777778" x1="-172.707" y1="391.293" x2="340.293" y2="-121.707" stroke="#0056B8" stroke-width="2"/>
<line opacity="0.787879" x1="-178.707" y1="386.293" x2="334.293" y2="-126.707" stroke="#0056B8" stroke-width="2"/>
<line opacity="0.79798" x1="-184.707" y1="381.293" x2="328.293" y2="-131.707" stroke="#0056B8" stroke-width="2"/>
<line opacity="0.808081" x1="-190.707" y1="376.293" x2="322.293" y2="-136.707" stroke="#0056B8" stroke-width="2"/>
<line opacity="0.818182" x1="-196.707" y1="371.293" x2="316.293" y2="-141.707" stroke="#0056B8" stroke-width="2"/>
<line opacity="0.828283" x1="-202.707" y1="366.293" x2="310.293" y2="-146.707" stroke="#0056B8" stroke-width="2"/>
<line opacity="0.838384" x1="-208.707" y1="361.293" x2="304.293" y2="-151.707" stroke="#0056B8" stroke-width="2"/>
<line opacity="0.848485" x1="-214.707" y1="356.293" x2="298.293" y2="-156.707" stroke="#0056B8" stroke-width="2"/>
<line opacity="0.858586" x1="-220.707" y1="351.293" x2="292.293" y2="-161.707" stroke="#0056B8" stroke-width="2"/>
<line opacity="0.868687" x1="-226.707" y1="346.293" x2="286.293" y2="-166.707" stroke="#0056B8" stroke-width="2"/>
<line opacity="0.878788" x1="-232.707" y1="341.293" x2="280.293" y2="-171.707" stroke="#0056B8" stroke-width="2"/>
<line opacity="0.888889" x1="-238.707" y1="336.293" x2="274.293" y2="-176.707" stroke="#0056B8" stroke-width="2"/>
<line opacity="0.89899" x1="-244.707" y1="331.293" x2="268.293" y2="-181.707" stroke="#0056B8" stroke-width="2"/>
<line opacity="0.909091" x1="-250.707" y1="326.293" x2="262.293" y2="-186.707" stroke="#0056B8" stroke-width="2"/>
<line opacity="0.919192" x1="-256.707" y1="321.293" x2="256.293" y2="-191.707" stroke="#0056B8" stroke-width="2"/>
<line opacity="0.929293" x1="-262.707" y1="316.293" x2="250.293" y2="-196.707" stroke="#0056B8" stroke-width="2"/>
<line opacity="0.939394" x1="-268.707" y1="311.293" x2="244.293" y2="-201.707" stroke="#0056B8" stroke-width="2"/>
<line opacity="0.949495" x1="-274.707" y1="306.293" x2="238.293" y2="-206.707" stroke="#0056B8" stroke-width="2"/>
<line opacity="0.959596" x1="-280.707" y1="301.293" x2="232.293" y2="-211.707" stroke="#0056B8" stroke-width="2"/>
<line opacity="0.969697" x1="-286.707" y1="296.293" x2="226.293" y2="-216.707" stroke="#0056B8" stroke-width="2"/>
<line opacity="0.979798" x1="-292.707" y1="291.293" x2="220.293" y2="-221.707" stroke="#0056B8" stroke-width="2"/>
<line opacity="0.989899" x1="-298.707" y1="286.293" x2="214.293" y2="-226.707" stroke="#0056B8" stroke-width="2"/>
<line x1="-304.707" y1="281.293" x2="208.293" y2="-231.707" stroke="#0056B8" stroke-width="2"/>
</g>
<defs>
<clipPath id="clip0_80_306">
<rect width="500" height="500" rx="10" fill="white"/>
</clipPath>
</defs>
</svg>
