<svg width="271" height="164" viewBox="0 0 271 164" fill="none" xmlns="http://www.w3.org/2000/svg">
<path d="M229.083 115.844H110.787C110.204 115.844 109.737 116.311 109.737 116.895V154.881C109.737 155.465 110.204 155.932 110.787 155.932H229.083C229.666 155.932 230.133 155.465 230.133 154.881V116.895C230.133 116.311 229.666 115.844 229.083 115.844ZM124.612 135.917C124.612 132.766 127.178 130.199 130.328 130.199C133.478 130.199 136.045 132.766 136.045 135.917C136.045 139.068 133.478 141.636 130.328 141.636C127.178 141.636 124.612 139.068 124.612 135.917ZM148.644 135.917C148.644 132.766 151.211 130.199 154.361 130.199C157.51 130.199 160.077 132.766 160.077 135.917C160.077 139.068 157.51 141.636 154.361 141.636C151.211 141.636 148.644 139.068 148.644 135.917Z" stroke="#313131" stroke-width="4" stroke-miterlimit="10"/>
<path d="M215.317 47.5146C215.317 47.5735 215.317 47.5735 215.317 47.6323V47.5146ZM215.317 47.5146C215.317 47.5735 215.317 47.5146 215.317 47.5146Z" stroke="#313131" stroke-width="4" stroke-miterlimit="10"/>
<path d="M110.846 15.6543C110.263 15.6543 109.796 16.1211 109.796 16.7046V54.6915C109.796 55.275 110.263 55.7418 110.846 55.7418H178.627C178.569 55.3917 178.51 55.0416 178.452 54.6915C178.394 54.3414 178.335 53.9913 178.277 53.6412C176.877 43.6631 179.035 33.5099 184.402 24.5237C185.86 22.073 187.552 19.7973 189.418 17.755C189.71 17.4048 190.06 17.0547 190.41 16.7046C190.76 16.3545 191.052 16.0044 191.46 15.6543H110.846V15.6543ZM130.329 41.4457C127.179 41.4457 124.612 38.8782 124.612 35.7272C124.612 32.5763 127.179 30.0088 130.329 30.0088C133.478 30.0088 136.045 32.5763 136.045 35.7272C136.103 38.8782 133.478 41.4457 130.329 41.4457ZM154.361 41.4457C151.211 41.4457 148.645 38.8782 148.645 35.7272C148.645 32.5763 151.211 30.0088 154.361 30.0088C157.511 30.0088 160.078 32.5763 160.078 35.7272C160.136 38.8782 157.511 41.4457 154.361 41.4457Z" stroke="#313131" stroke-width="4" stroke-miterlimit="10"/>
<path d="M229.083 90.8119C228.733 90.8702 228.383 90.9286 228.033 90.9869C226.05 91.2203 224.008 91.3954 222.025 91.3954C214.442 91.3954 206.742 89.5281 199.801 85.5602C192.393 81.3589 186.56 75.2904 182.768 67.9381C182.593 67.588 182.418 67.2378 182.243 66.8877C182.068 66.5376 181.893 66.1875 181.718 65.8374H110.787C110.204 65.8374 109.737 66.3042 109.737 66.8877V104.875C109.737 105.458 110.204 105.925 110.787 105.925H229.083C229.666 105.925 230.133 105.458 230.133 104.875V90.6952C229.783 90.6952 229.433 90.7535 229.083 90.8119ZM130.97 91.5121C130.736 91.5121 130.561 91.5704 130.328 91.5704C127.178 91.5704 124.612 89.003 124.612 85.852C124.612 84.4516 125.137 83.1678 125.953 82.1758C127.003 80.9505 128.578 80.1335 130.328 80.1335C133.478 80.1335 136.045 82.701 136.045 85.852C136.103 88.7696 133.828 91.2203 130.97 91.5121Z" stroke="#313131" stroke-width="4" stroke-miterlimit="10"/>
<path d="M130.328 141.635C133.485 141.635 136.045 139.075 136.045 135.917C136.045 132.758 133.485 130.198 130.328 130.198C127.171 130.198 124.612 132.758 124.612 135.917C124.612 139.075 127.171 141.635 130.328 141.635Z" stroke="#313131" stroke-width="4" stroke-miterlimit="10"/>
<path d="M154.361 141.635C157.518 141.635 160.077 139.075 160.077 135.917C160.077 132.758 157.518 130.198 154.361 130.198C151.204 130.198 148.644 132.758 148.644 135.917C148.644 139.075 151.204 141.635 154.361 141.635Z" stroke="#313131" stroke-width="4" stroke-miterlimit="10"/>
<path d="M130.328 41.4452C133.485 41.4452 136.045 38.885 136.045 35.7268C136.045 32.5685 133.485 30.0083 130.328 30.0083C127.171 30.0083 124.612 32.5685 124.612 35.7268C124.612 38.885 127.171 41.4452 130.328 41.4452Z" stroke="#313131" stroke-width="4" stroke-miterlimit="10"/>
<path d="M154.361 41.4452C157.518 41.4452 160.077 38.885 160.077 35.7268C160.077 32.5685 157.518 30.0083 154.361 30.0083C151.204 30.0083 148.644 32.5685 148.644 35.7268C148.644 38.885 151.204 41.4452 154.361 41.4452Z" stroke="#313131" stroke-width="4" stroke-miterlimit="10"/>
<path d="M215.317 47.5146C215.317 47.5735 215.317 47.5735 215.317 47.6323V47.5146ZM215.317 47.5146C215.317 47.5735 215.317 47.5146 215.317 47.5146Z" stroke="#313131" stroke-width="4" stroke-miterlimit="10"/>
<path d="M237.6 3.98438C238.941 4.39284 240.283 4.85965 241.566 5.38481C240.283 4.85965 238.941 4.39284 237.6 3.98438ZM267.349 55.9756C267.582 54.9836 267.816 53.9917 267.932 52.9997C267.816 53.9917 267.641 55.042 267.349 55.9756Z" stroke="#313131" stroke-width="4" stroke-miterlimit="10"/>
<path d="M268.573 46.7547C268.573 47.5132 268.515 48.2135 268.457 48.972C268.398 49.5556 268.34 50.1391 268.282 50.7226C268.282 50.8976 268.224 51.0727 268.224 51.2477C268.165 51.8313 268.049 52.4731 267.932 53.0567C267.757 54.0486 267.582 55.0406 267.349 56.0326C267.115 57.0246 266.823 58.0165 266.532 58.9502C266.415 59.3003 266.299 59.592 266.182 59.9421C266.124 60.1755 266.065 60.3506 265.949 60.5257C265.774 61.0508 265.599 61.576 265.365 62.1011C265.132 62.6263 264.957 63.1515 264.724 63.6183C264.607 63.8517 264.49 64.1434 264.374 64.3769C264.257 64.6103 264.14 64.902 264.024 65.1354C263.79 65.6606 263.499 66.2441 263.207 66.7693C262.857 67.4695 262.449 68.1697 262.04 68.8116C261.749 69.2784 261.457 69.7452 261.107 70.2704C260.99 70.4454 260.874 70.6205 260.757 70.7955C259.999 71.9042 259.24 72.9545 258.424 73.9465C258.249 74.1799 258.074 74.4133 257.899 74.5884L257.841 74.6467C257.549 74.9968 257.315 75.2886 257.024 75.6387C256.732 75.9305 256.499 76.2222 256.207 76.514C255.974 76.7474 255.741 76.9808 255.507 77.2726C255.449 77.3893 255.332 77.4476 255.274 77.506C254.982 77.7977 254.749 78.0311 254.457 78.3229C254.399 78.3812 254.341 78.4396 254.282 78.4979C254.107 78.6146 253.991 78.7897 253.816 78.9064C252.824 79.84 251.774 80.7153 250.724 81.5322C250.724 81.5322 250.724 81.5322 250.666 81.5322C244.599 86.2003 237.541 89.293 230.133 90.6351C229.783 90.6934 229.433 90.7518 229.083 90.8101C228.733 90.8685 228.383 90.9268 228.033 90.9852C226.05 91.2186 224.008 91.3936 222.025 91.3936C214.442 91.3936 206.742 89.5264 199.801 85.5585C192.393 81.3572 186.56 75.2886 182.768 67.9363C182.593 67.5862 182.418 67.2361 182.243 66.886C182.068 66.5359 181.893 66.1858 181.718 65.8356C180.726 63.6183 179.91 61.2842 179.268 58.8335C179.035 57.8415 178.801 56.8495 178.626 55.7992C178.568 55.4491 178.51 55.099 178.451 54.7488C178.393 54.3987 178.335 54.0486 178.276 53.6985C176.876 43.7204 179.035 33.5672 184.401 24.5811C185.859 22.1303 187.551 19.8546 189.418 17.8123C189.709 17.4622 190.059 17.1121 190.409 16.762C190.759 16.4119 191.051 16.0618 191.459 15.7116C200.326 6.90055 212.342 2.11572 224.475 2.11572C224.592 2.11572 224.708 2.11572 224.825 2.11572C224.417 2.17407 224.125 2.52418 224.008 2.93265C224.008 2.991 224.008 3.1077 223.95 3.16605C223.892 3.51616 223.775 3.86627 223.717 4.21638C222.9 8.06758 222.2 11.9188 221.442 15.7116C221.383 15.945 221.325 16.1785 221.267 16.4702C221.267 16.5869 221.208 16.7036 221.208 16.8203C221.15 17.1704 221.092 17.5205 220.975 17.8706C220.625 19.7963 220.217 21.7219 219.867 23.6475C218.233 31.875 216.717 40.0442 215.317 47.63V47.6883V47.7467V47.805C215.317 47.8634 215.317 47.9801 215.317 48.0384C215.317 48.0968 215.317 48.1551 215.375 48.2718C215.375 48.3302 215.375 48.3302 215.434 48.3885C215.492 48.4469 215.492 48.5052 215.55 48.5636C215.609 48.6219 215.667 48.6803 215.725 48.7386C215.9 48.8553 216.134 48.9137 216.367 48.9137C216.542 48.9137 216.717 48.8553 216.892 48.797C216.95 48.7386 217.067 48.6803 217.184 48.6219C217.475 48.4469 217.825 48.2718 218.117 48.0968C221.442 46.2295 224.767 44.3623 228.033 42.6117C228.383 42.4367 228.733 42.2616 229.083 42.0282C229.433 41.8531 229.783 41.6781 230.133 41.4447C232.525 40.2193 234.858 38.9939 237.191 37.8269C243.724 34.5592 250.374 31.3499 257.082 28.3739L257.957 27.9655C259.182 27.4403 260.407 26.8568 261.632 26.3316C261.924 26.2149 262.215 26.0982 262.507 25.9232C262.565 25.9232 262.565 25.9232 262.565 25.8648C262.799 25.7481 262.974 25.5147 263.09 25.2813C263.207 24.9895 263.149 24.6978 263.032 24.406C263.44 25.1646 263.849 25.8648 264.199 26.6234C264.374 26.9151 264.49 27.2069 264.607 27.4987C264.782 27.7904 264.899 28.0822 265.015 28.3739C265.132 28.6657 265.249 28.9574 265.365 29.2492C265.715 30.1245 266.065 30.9998 266.357 31.9334C266.648 32.867 266.94 33.7423 267.174 34.6759C267.699 36.7182 268.049 38.7605 268.34 40.8028C268.34 40.8612 268.34 40.8612 268.34 40.9195C268.398 41.2113 268.398 41.503 268.398 41.7948C268.457 42.1449 268.457 42.5534 268.515 42.9035C268.632 44.1289 268.632 45.4709 268.573 46.7547Z" stroke="#313131" stroke-width="4" stroke-miterlimit="10"/>
<path d="M215.317 47.5718V47.6302V47.5718ZM215.317 47.5718C215.317 47.5135 215.317 47.5718 215.317 47.5718ZM266.357 31.8169C266.648 32.7505 266.94 33.6258 267.173 34.5594C267.698 36.6017 268.048 38.644 268.34 40.6863C267.99 37.7104 267.348 34.7345 266.357 31.8169Z" stroke="#313131" stroke-width="4" stroke-miterlimit="10"/>
<path d="M225 2C224.942 2 224.825 2 224.767 2C226.05 2 227.392 2.05835 228.675 2.17505C227.45 2.1167 226.225 2 225 2Z" stroke="#313131" stroke-width="4" stroke-miterlimit="10"/>
<path d="M263.032 24.2903C262.857 23.9402 262.682 23.6484 262.449 23.2983C262.274 23.0066 262.099 22.7148 261.924 22.423C261.866 22.3647 261.807 22.248 261.749 22.1896C261.574 21.8979 261.399 21.6645 261.224 21.4311C261.049 21.1393 260.874 20.9059 260.641 20.6141C260.349 20.2057 260.057 19.7389 259.708 19.3304C259.124 18.5718 258.541 17.8133 257.899 17.1131C257.549 16.7629 257.258 16.3545 256.908 16.0044C256.616 15.7126 256.324 15.3625 256.033 15.0707C255.974 15.0124 255.858 14.8957 255.799 14.8373C255.449 14.4872 255.099 14.1955 254.749 13.8454C254.399 13.4953 254.049 13.2035 253.641 12.8534C251.483 10.9278 249.091 9.23559 246.525 7.83516C245.708 7.36834 244.891 6.95988 244.016 6.49307C243.141 6.08461 242.325 5.67615 241.45 5.32604C240.108 4.80087 238.825 4.33406 237.483 3.9256C237.017 3.75054 236.55 3.63384 236.083 3.51714C235.85 3.45879 235.617 3.40043 235.325 3.34208C234.858 3.22538 234.392 3.10868 233.925 3.05033C233.633 2.99197 233.283 2.93363 232.992 2.87527C232.292 2.75857 231.65 2.64186 230.95 2.52516C230.658 2.46681 230.367 2.46681 230.134 2.40846C230.075 2.40846 229.958 2.35011 229.9 2.35011C229.433 2.29176 229.025 2.2334 228.617 2.17505C227.334 2.05835 225.992 2 224.709 2C224.3 2.05835 224.009 2.40846 223.892 2.81692C223.892 2.87527 223.892 2.99197 223.834 3.05033C223.775 3.40043 223.659 3.75055 223.6 4.10066C222.784 7.95186 222.084 11.8031 221.325 15.5959C221.267 15.8293 221.209 16.0627 221.15 16.3545C221.15 16.4712 221.092 16.5879 221.092 16.7046C221.034 17.0547 220.975 17.4048 220.859 17.7549C220.509 19.6805 220.101 21.6061 219.751 23.5317C218.117 31.7593 216.601 39.9285 215.201 47.5142V47.5726C215.201 47.6309 215.201 47.6309 215.201 47.6893C215.201 47.7476 215.201 47.8643 215.201 47.9227C215.201 47.981 215.201 48.0394 215.259 48.1561C215.259 48.2144 215.259 48.2144 215.317 48.2728C215.376 48.3311 215.376 48.3895 215.434 48.4478C215.492 48.5062 215.551 48.5645 215.609 48.6229C215.784 48.7396 216.017 48.798 216.251 48.798C216.426 48.798 216.601 48.7396 216.776 48.6813C216.834 48.6229 216.951 48.5645 217.067 48.5062C217.359 48.3311 217.709 48.1561 218.001 47.981C221.325 46.1138 224.65 44.2465 227.917 42.496C228.267 42.3209 228.617 42.1459 228.967 41.9125C229.317 41.7374 229.667 41.5624 230.017 41.329C232.409 40.1036 234.742 38.8782 237.075 37.7112C243.608 34.4435 250.258 31.2341 256.966 28.2582L257.841 27.8497C259.066 27.3246 260.291 26.7411 261.516 26.2159C261.807 26.0992 262.099 25.9825 262.391 25.8074C262.449 25.8074 262.449 25.8074 262.449 25.7491C262.682 25.6324 262.857 25.399 262.974 25.1656C263.207 24.8738 263.207 24.5821 263.032 24.2903Z" stroke="#313131" stroke-width="4" stroke-miterlimit="10"/>
<path d="M215.551 48.0389L193.677 15.187" stroke="#313131" stroke-width="4" stroke-miterlimit="10"/>
<path d="M126.771 155.931C116.563 162.058 101.222 161.766 83.8391 161.416C79.5809 161.358 75.2061 161.241 70.7729 161.241C64.9981 161.241 59.4565 161.416 54.0316 161.65C49.2485 161.825 44.582 162 40.2071 162C27.4909 162 16.8163 160.599 9.93314 154.006C4.62497 148.871 2 141.051 2 130.081C2 102.189 19.4412 65.3695 45.3987 55.0413C45.6904 54.9246 46.0403 54.8662 46.3903 54.8662H95.1553C95.5053 54.8662 95.7971 54.9246 96.1471 55.0413C102.272 57.492 107.813 61.1682 112.772 65.778M84.1307 102.131C83.2558 101.664 82.0309 101.197 80.3976 100.555C77.5977 99.4468 73.7477 97.9297 70.9478 96.1208C69.8978 95.4206 69.4895 94.4286 69.6645 93.7867C69.8978 92.9698 71.0062 92.7364 71.6479 92.7364C76.4311 92.3863 83.8391 94.837 83.8975 94.8954C84.5975 95.1288 85.4141 95.0704 86.0557 94.662C86.6974 94.3119 87.164 93.67 87.339 92.9114L89.3222 84.1587C89.5555 83.05 89.0889 81.9413 88.1556 81.3578C85.589 79.724 80.8642 78.9071 77.8893 78.5569V73.7721C77.8893 72.3133 76.7226 71.0879 75.206 71.0879H67.0396C65.5813 71.0879 64.4147 72.255 64.4147 73.7721V79.8407C54.9067 82.5249 50.2985 89.0019 51.3485 98.1631C52.5151 108.258 65.9314 112.576 68.5563 113.334C74.0978 114.91 73.9227 115.844 73.6311 117.127C73.3394 118.528 68.6729 119.403 64.1814 118.469C60.3899 117.652 57.0066 115.902 56.9482 115.844C56.2482 115.493 55.4317 115.435 54.6734 115.727C53.915 116.019 53.39 116.602 53.1567 117.361L50.0652 126.93C49.7152 128.097 50.1235 129.381 51.1735 130.023C55.1983 132.532 61.0898 133.524 64.4731 133.933V139.301C64.4731 140.76 65.6397 141.927 67.098 141.927H75.2644C75.9644 141.927 76.6643 141.635 77.131 141.168C77.656 140.643 77.8893 140.001 77.8893 139.243L77.8309 133.057C84.2474 131.54 90.6055 126.055 91.4222 117.652C91.4805 116.952 91.5388 116.31 91.5388 115.669C91.6555 106.624 85.414 102.831 84.1307 102.131ZM138.496 115.844C137.971 112.518 137.212 109.192 136.279 105.865L138.496 115.844Z" stroke="#313131" stroke-width="4" stroke-miterlimit="10"/>
<path d="M136.104 85.7924C136.104 88.7683 133.888 91.1608 130.971 91.5109C130.738 91.5109 130.563 91.5692 130.329 91.5692C127.179 91.5692 124.613 89.0018 124.613 85.8508C124.613 84.4503 125.138 83.1666 125.954 82.1746C127.004 80.9492 128.579 80.1323 130.329 80.1323C133.479 80.074 136.104 82.6414 136.104 85.7924Z" stroke="#313131" stroke-width="4" stroke-miterlimit="10"/>
<path d="M105.713 12.3863C105.713 23.9399 101.047 40.9202 93.2885 49.2062C92.7635 49.7313 92.0635 50.0231 91.3635 50.0231H49.5983C48.84 50.0231 48.14 49.7313 47.6734 49.2062C39.9153 40.9202 35.2488 23.9983 35.2488 12.3863C35.2488 10.9275 36.4155 9.70215 37.9321 9.70215H103.088C104.546 9.70215 105.713 10.8692 105.713 12.3863Z" stroke="#313131" stroke-width="4" stroke-miterlimit="10"/>
<path d="M91.6557 115.669C91.6557 116.311 91.5974 116.953 91.539 117.653C90.7224 126.056 84.3643 131.482 77.9478 133.058L78.0062 139.243C78.0062 139.943 77.7145 140.643 77.2479 141.169C76.7229 141.694 76.0813 141.927 75.3813 141.927H67.215C65.7567 141.927 64.5317 140.76 64.5317 139.243V133.875C61.2068 133.466 55.3154 132.474 51.2323 129.965C50.1823 129.323 49.7156 128.04 50.1239 126.872L53.2155 117.361C53.4488 116.603 54.0322 116.019 54.7321 115.727C55.4904 115.436 56.307 115.494 57.007 115.844C57.007 115.844 60.3901 117.653 64.24 118.47C68.7315 119.403 73.3398 118.47 73.6898 117.128C73.9814 115.844 74.1563 114.91 68.6148 113.335C65.9316 112.576 52.5738 108.258 51.4071 98.1635C50.3572 89.0023 54.9654 82.5253 64.415 79.8411V73.7726C64.415 72.3138 65.5817 71.0884 67.0983 71.0884H75.2647C76.723 71.0884 77.9478 72.3138 77.9478 73.7726V78.5574C80.9227 78.9075 85.6476 79.7244 88.2142 81.3583C89.1475 81.9418 89.6141 83.1088 89.3808 84.2175L87.3976 92.9702C87.2226 93.7288 86.7558 94.3123 86.1142 94.7208C85.4726 95.0709 84.6559 95.1876 83.956 94.9542C83.8976 94.9542 76.4896 92.5034 71.7064 92.8535C71.0648 92.9119 69.9565 93.0869 69.7232 93.9038C69.5482 94.5457 69.9565 95.5377 71.0065 96.2379C73.8064 98.0468 77.6562 99.5639 80.4561 100.673C82.031 101.314 83.3144 101.781 84.1894 102.248C85.4143 102.832 91.6557 106.624 91.6557 115.669Z" stroke="#313131" stroke-width="4" stroke-miterlimit="10"/>
</svg>
