<svg width="607" height="76" viewBox="0 0 607 76" fill="none" xmlns="http://www.w3.org/2000/svg">
<path d="M3.22412 37.7836C19.8908 -4.54973 36.5575 -4.54973 53.2241 37.7836C69.9564 80.4503 86.6231 80.4503 103.224 37.7836C119.891 -4.88307 136.557 -4.88307 153.224 37.7836C168.133 71.4503 184.8 71.4503 203.224 37.7836C219.891 4.11693 236.557 4.11693 253.224 37.7836C271.458 77.7836 288.125 77.7836 303.224 37.7836C319.891 -2.2164 336.557 -2.2164 353.224 37.7836C370.655 81.4503 387.321 81.4503 403.224 37.7836C419.891 -5.88307 436.557 -5.88307 453.224 37.7836C470.336 83.7836 487.003 83.7836 503.224 37.7836C519.891 -8.2164 536.557 -8.2164 553.224 37.7836C569.166 79.7836 585.833 79.7836 603.224 37.7836" stroke="url(#paint0_linear_130_7)" stroke-width="6" stroke-linecap="round"/>
<defs>
<linearGradient id="paint0_linear_130_7" x1="3.00001" y1="2.99992" x2="618" y2="72" gradientUnits="userSpaceOnUse">
<stop stop-color="#34D399"/>
<stop offset="1" stop-color="#2563EB"/>
</linearGradient>
</defs>
</svg>
