<svg width="606" height="75" viewBox="0 0 606 75" fill="none" xmlns="http://www.w3.org/2000/svg">
<path d="M3 37.5C19.6667 -4.83333 36.3333 -4.83333 53 37.5C69.7323 80.1667 86.399 80.1667 103 37.5C119.667 -5.16667 136.333 -5.16667 153 37.5C167.909 71.1667 184.576 71.1667 203 37.5C219.667 3.83333 236.333 3.83333 253 37.5C271.234 77.5 287.901 77.5 303 37.5C319.667 -2.5 336.333 -2.5 353 37.5C370.431 81.1667 387.097 81.1667 403 37.5C419.667 -6.16667 436.333 -6.16667 453 37.5C470.112 83.5 486.779 83.5 503 37.5C519.667 -8.5 536.333 -8.5 553 37.5C568.942 79.5 585.609 79.5 603 37.5" stroke="url(#paint0_linear_130_8)" stroke-width="6" stroke-linecap="round"/>
<defs>
<linearGradient id="paint0_linear_130_8" x1="2.77589" y1="2.71632" x2="617.776" y2="71.7164" gradientUnits="userSpaceOnUse">
<stop stop-color="#2563EB"/>
<stop offset="1" stop-color="#34D399"/>
</linearGradient>
</defs>
</svg>
