<svg width="56" height="84" viewBox="0 0 56 84" fill="none" xmlns="http://www.w3.org/2000/svg">
<path d="M39.4605 2H7.94852C4.67308 2 2 4.67924 2 7.96226V14H45.3713V7.96226C45.3713 4.64151 42.7359 2 39.4605 2ZM27.6012 9.43396H19.7702C19.2808 9.43396 18.8667 9.01887 18.8667 8.5283C18.8667 8.03773 19.2808 7.62264 19.7702 7.62264H27.6012C28.0906 7.62264 28.5047 8.03773 28.5047 8.5283C28.5047 9.01887 28.1282 9.43396 27.6012 9.43396Z" stroke="#1E1E1E" stroke-width="3" stroke-miterlimit="10"/>
<path d="M28.5048 8.52828C28.5048 9.01885 28.0906 9.43394 27.6012 9.43394H19.7702C19.2808 9.43394 18.8667 9.01885 18.8667 8.52828C18.8667 8.03771 19.2808 7.62262 19.7702 7.62262H27.6012C28.1283 7.62262 28.5048 8.03771 28.5048 8.52828Z" stroke="#1E1E1E" stroke-width="3" stroke-miterlimit="10"/>
<path d="M25.4175 75.434C25.4175 75.9246 25.0034 76.3396 24.5139 76.3396H22.895C22.4056 76.3396 21.9915 75.9246 21.9915 75.434C21.9915 74.9434 22.4056 74.5283 22.895 74.5283H24.5139C25.0034 74.5283 25.4175 74.9434 25.4175 75.434Z" stroke="#1E1E1E" stroke-width="3" stroke-miterlimit="10"/>
<path d="M45.3716 53.3585V53.4717L45.3337 53.4339C45.3716 53.3962 45.3716 53.3962 45.3716 53.3585Z" stroke="#1E1E1E" stroke-width="3" stroke-miterlimit="10"/>
<path d="M40.7782 27.3584L42.2465 23.3207L36.3356 21.1698L34.8673 25.2075C33.9261 25.0566 32.9849 24.9434 31.9683 24.9434C30.9518 24.9434 30.0106 25.0188 29.0694 25.2075L27.6011 21.1698L21.6903 23.3207L23.1585 27.3584C21.502 28.3396 19.9961 29.5849 18.7536 31.0566L15.0264 28.9056L11.9016 34.3773L15.5911 36.5283C14.9511 38.3018 14.6123 40.2264 14.6123 42.2264L10.3956 42.9811L11.4874 49.1698L15.7041 48.415C16.3818 50.2641 17.3606 51.9245 18.603 53.4339L15.8547 56.7169L20.6737 60.7547L23.4221 57.4716C25.0786 58.415 26.9234 59.0943 28.8435 59.4339V63.7358H35.1309V59.4339C37.0886 59.0943 38.8957 58.415 40.5523 57.4716L43.3006 60.7547L45.409 58.9811V70.8301H2.0376V13.9622H45.409V30.9434L45.183 31.0566C43.9406 29.5849 42.4347 28.3396 40.7782 27.3584Z" stroke="#1E1E1E" stroke-width="3" stroke-miterlimit="10"/>
<path d="M2 70.8302V76.0377C2 79.3208 4.67308 82 7.94852 82H39.4605C42.736 82 45.409 79.3208 45.409 76.0377V70.8302H2ZM24.514 76.3396H22.8951C22.4056 76.3396 21.9915 75.9245 21.9915 75.434C21.9915 74.9434 22.4056 74.5283 22.8951 74.5283H24.514C25.0034 74.5283 25.4175 74.9434 25.4175 75.434C25.4175 75.9245 25.0034 76.3396 24.514 76.3396Z" stroke="#1E1E1E" stroke-width="3" stroke-miterlimit="10"/>
<path d="M53.541 42.9434L52.4492 49.132L48.2326 48.3773C47.5549 50.1886 46.576 51.849 45.3712 53.3207L45.3336 53.3584L45.3712 53.3962L48.082 56.6415L45.3712 58.9056L43.2629 60.6792L40.5146 57.3962C38.858 58.3396 37.0509 59.0188 35.0931 59.3584V63.6603H28.8058V59.3584C26.8857 59.0188 25.0409 58.3396 23.3844 57.3962L20.636 60.6792L15.817 56.6415L18.5653 53.3584C17.3229 51.8868 16.3441 50.1886 15.6664 48.3396L11.4497 49.0943L10.3579 42.9056L14.5746 42.1509C14.5746 40.1509 14.9511 38.2264 15.5535 36.4528L11.8639 34.3018L14.9887 28.8301L18.716 30.9811C19.9584 29.5094 21.4643 28.2641 23.1208 27.283L21.6525 23.2452L27.5634 21.0943L29.0317 25.132C29.9729 24.9811 30.9518 24.8679 31.9306 24.8679C32.9095 24.8679 33.8884 24.9434 34.8296 25.132L36.2979 21.0943L42.2088 23.2452L40.7405 27.283C42.397 28.2641 43.9029 29.5094 45.1453 30.9811L45.3712 30.8679L48.8726 28.8301L51.9974 34.3018L48.3078 36.4528C48.9479 38.2264 49.2867 40.1509 49.3243 42.1509L53.541 42.9434Z" stroke="#1E1E1E" stroke-width="3" stroke-miterlimit="10"/>
<path d="M42.3216 36.3396C43.3758 38.1132 43.9782 40.2264 43.9782 42.4528C43.9782 49.0943 38.5944 54.4906 31.9682 54.4906C25.342 54.4906 19.9583 49.0943 19.9583 42.4528C19.9583 35.8113 25.342 30.4151 31.9682 30.4151C34.1519 30.4151 36.2225 31.0189 37.992 32.0377" stroke="#1E1E1E" stroke-width="3" stroke-miterlimit="10"/>
<path d="M29.0696 47.7359C29.7096 48.4528 30.6508 48.9057 31.6673 48.9057C33.6251 48.9057 35.2063 47.3208 35.2063 45.3585C35.2063 44.4151 34.7922 43.5095 34.1145 42.8302C33.2486 42 31.9309 41.8491 30.839 41.3962C29.6719 40.9057 28.7307 39.9623 28.7307 38.6038C28.7307 36.8302 30.1614 35.3962 31.9309 35.3962C32.7968 35.3962 33.5874 35.7359 34.1898 36.3396" stroke="#1E1E1E" stroke-width="3" stroke-miterlimit="10"/>
<path d="M31.9307 35.434V33.2453" stroke="#1E1E1E" stroke-width="3" stroke-miterlimit="10"/>
<path d="M31.9307 51.6226V49.0189" stroke="#1E1E1E" stroke-width="3" stroke-miterlimit="10"/>
</svg>
