<svg width="104" height="104" viewBox="0 0 104 104" fill="none" xmlns="http://www.w3.org/2000/svg">
<path d="M40.4514 11.3679C45.482 9.40718 50.9939 8.36147 56.7244 8.36147C62.9361 8.36147 68.8854 9.62504 74.266 11.8908" stroke="#1E1E1E" stroke-width="3" stroke-miterlimit="10"/>
<path d="M86.1643 19.2544L72.866 20.1694C71.6412 20.2565 70.7663 18.993 71.335 17.9037L74.3096 11.8908L77.1967 5.96503C77.7216 4.87574 79.2527 4.74502 79.9526 5.79074L87.3892 16.8144C88.0891 17.8165 87.3892 19.1672 86.1643 19.2544Z" stroke="#1E1E1E" stroke-width="3" stroke-miterlimit="10"/>
<path d="M14.1171 38.208C12.4111 42.9573 11.4924 48.0552 11.4924 53.4145C11.4924 61.7367 13.7672 69.5796 17.7479 76.2461" stroke="#1E1E1E" stroke-width="3" stroke-miterlimit="10"/>
<path d="M95.7446 30.583C99.6816 37.293 102 45.0924 102 53.4145C102 78.294 81.7464 98.4676 56.7683 98.4676C50.6003 98.4676 44.6948 97.2476 39.3142 94.9819" stroke="#1E1E1E" stroke-width="3" stroke-miterlimit="10"/>
<path d="M26.0594 90.2762L33.496 101.3C34.1959 102.302 35.727 102.215 36.2519 101.126L42.1136 89.1869C42.6386 88.0976 41.8074 86.834 40.5826 86.9212L27.2843 87.8362C26.0594 87.8797 25.4033 89.2305 26.0594 90.2762Z" stroke="#1E1E1E" stroke-width="3" stroke-miterlimit="10"/>
<path d="M51.5626 62.8696C52.6999 64.1332 54.3622 64.9175 56.1995 64.9175C59.6553 64.9175 62.4987 62.1289 62.4987 58.6432C62.4987 56.9874 61.755 55.3317 60.5739 54.1988C58.9991 52.7174 56.7244 52.4996 54.7559 51.6717C52.6562 50.8003 50.9939 49.1445 50.9939 46.7481C50.9939 43.6545 53.5311 41.1273 56.6369 41.1273C58.2117 41.1273 59.6115 41.7374 60.6177 42.7831" stroke="#1E1E1E" stroke-width="3" stroke-miterlimit="10"/>
<path d="M56.637 41.1273V37.293" stroke="#1E1E1E" stroke-width="3" stroke-miterlimit="10"/>
<path d="M56.637 69.7539V65.0918" stroke="#1E1E1E" stroke-width="3" stroke-miterlimit="10"/>
<path d="M56.7243 80.9518C71.9206 80.9518 84.2396 68.6815 84.2396 53.5453C84.2396 38.409 71.9206 26.1387 56.7243 26.1387C41.528 26.1387 29.209 38.409 29.209 53.5453C29.209 68.6815 41.528 80.9518 56.7243 80.9518Z" stroke="#1E1E1E" stroke-width="3" stroke-miterlimit="10"/>
<path d="M29.6465 17.3372C29.8215 18.0779 29.909 18.9058 29.909 19.6901C29.909 25.1801 25.4471 29.668 19.8915 29.668C19.3666 29.668 18.8416 29.6244 18.3605 29.5373M34.371 19.4722C34.371 17.8165 34.0648 16.2479 33.5398 14.7665L35.9895 13.3286L36.6019 12.9801L34.021 8.49218L33.6711 8.71004L33.6273 8.66646L30.9151 10.235C29.8653 9.01504 28.6404 7.96932 27.2406 7.14146L28.4655 3.78644L23.5661 2L22.3412 5.35502C21.5538 5.2243 20.7664 5.13716 19.9353 5.13716C19.1041 5.13716 18.3167 5.2243 17.5293 5.35502L16.3045 2L11.4051 3.78644L12.6299 7.14146C11.2301 7.96932 10.0052 9.01504 8.95537 10.235L5.84952 8.44861L3.22484 12.9801L6.3307 14.7665C5.80576 16.2479 5.49957 17.8165 5.49957 19.4722L2 20.0822L2.91863 25.2237L6.41819 24.6137C6.98687 26.1387 7.81802 27.533 8.82414 28.753L6.54942 31.498L10.5739 34.853L12.8486 32.108C13.8985 32.718 15.0359 33.1537 16.217 33.5023C16.6107 33.5895 16.9606 33.6766 17.3543 33.7637V37.3366H22.6037V33.7637C24.2222 33.4587 25.7533 32.8923 27.1094 32.108L29.3841 34.853L33.4086 31.498L31.1339 28.753C32.14 27.533 32.9711 26.1387 33.5398 24.6137L37.0394 25.2237L37.958 20.0822L34.371 19.4722Z" stroke="#1E1E1E" stroke-width="3" stroke-miterlimit="10"/>
<path d="M29.6467 17.3372C29.8216 18.0779 29.9092 18.9058 29.9092 19.6901C29.9092 25.1801 25.4472 29.668 19.8917 29.668C19.3667 29.668 18.8418 29.6244 18.3606 29.5373" stroke="#1E1E1E" stroke-width="3" stroke-miterlimit="10"/>
<path d="M34.0651 8.53574L33.6712 8.7536L33.6274 8.71003L34.0214 8.49217L34.0651 8.53574Z" stroke="#1E1E1E" stroke-width="3" stroke-miterlimit="10"/>
<path d="M18.3604 29.5373C13.5923 28.7966 9.91772 24.6572 9.91772 19.6901C9.91772 14.2001 14.3797 9.71217 19.9352 9.71217C21.7725 9.71217 23.4785 10.1915 24.9221 11.0629" stroke="#1E1E1E" stroke-width="3" stroke-miterlimit="10"/>
<path d="M28.5527 14.6358C29.0339 15.4636 29.4276 16.3787 29.6463 17.3372" stroke="#1E1E1E" stroke-width="3" stroke-miterlimit="10"/>
</svg>
