<svg width="47" height="84" viewBox="0 0 47 84" fill="none" xmlns="http://www.w3.org/2000/svg">
<path d="M39.4605 2H7.94851C4.67307 2 2 4.67924 2 7.96226V14H45.3714V7.96226C45.409 4.64151 42.7359 2 39.4605 2ZM27.6388 9.43396H19.8079C19.3184 9.43396 18.9043 9.01887 18.9043 8.5283C18.9043 8.03773 19.3184 7.62264 19.8079 7.62264H27.6388C28.1282 7.62264 28.5424 8.03773 28.5424 8.5283C28.5424 9.01887 28.1282 9.43396 27.6388 9.43396Z" stroke="#1E1E1E" stroke-width="3" stroke-miterlimit="10"/>
<path d="M28.5424 8.52831C28.5424 9.01888 28.1282 9.43397 27.6388 9.43397H19.8079C19.3184 9.43397 18.9043 9.01888 18.9043 8.52831C18.9043 8.03775 19.3184 7.62265 19.8079 7.62265H27.6388C28.1282 7.62265 28.5424 8.03775 28.5424 8.52831Z" stroke="#1E1E1E" stroke-width="3" stroke-miterlimit="10"/>
<path d="M25.4177 75.434C25.4177 75.9246 25.0036 76.3396 24.5141 76.3396H22.9329C22.4434 76.3396 22.0293 75.9246 22.0293 75.434C22.0293 74.9434 22.4434 74.5283 22.9329 74.5283H24.5518C25.0412 74.5283 25.4177 74.9434 25.4177 75.434Z" stroke="#1E1E1E" stroke-width="3" stroke-miterlimit="10"/>
<path d="M45.409 14H2.0376V70.8679H45.409V14Z" stroke="#1E1E1E" stroke-width="3" stroke-miterlimit="10"/>
<path d="M2.0376 70.8302V76.0377C2.0376 79.3208 4.71066 82 7.9861 82H39.4981C42.7736 82 45.4466 79.3208 45.4466 76.0377V70.8302H2.0376ZM24.5139 76.3396H22.9327C22.4432 76.3396 22.0291 75.9245 22.0291 75.434C22.0291 74.9434 22.4432 74.5283 22.9327 74.5283H24.5516C25.041 74.5283 25.4551 74.9434 25.4551 75.434C25.4551 75.9245 25.041 76.3396 24.5139 76.3396Z" stroke="#1E1E1E" stroke-width="3" stroke-miterlimit="10"/>
<path d="M41.5312 46.717V51.8113C41.5312 52.0377 41.3429 52.2264 41.117 52.2264C40.9664 52.2264 40.8535 52.2264 40.7029 52.2264C37.9922 52.0377 35.8462 49.8491 35.658 47.1698C35.658 47.0566 35.658 46.9057 35.658 46.7547C35.658 46.5283 35.8462 46.3396 36.0721 46.3396H41.1547C41.3429 46.3396 41.5312 46.4906 41.5312 46.717Z" stroke="#1E1E1E" stroke-width="3" stroke-miterlimit="10"/>
<path d="M11.8263 46.717C11.8263 46.8679 11.8263 46.9811 11.8263 47.1321C11.6381 49.8491 9.45447 52 6.7814 52.1887C6.66846 52.1887 6.51786 52.1887 6.36726 52.1887C6.14137 52.1887 5.95312 52 5.95312 51.7736V46.6793C5.95312 46.4528 6.14137 46.2642 6.36726 46.2642H11.4498C11.6381 46.3396 11.8263 46.4906 11.8263 46.717Z" stroke="#1E1E1E" stroke-width="3" stroke-miterlimit="10"/>
<path d="M11.8264 66.3774C11.8264 66.6038 11.6381 66.7925 11.4122 66.7925H6.32967C6.10377 66.7925 5.91553 66.6038 5.91553 66.3774V61.283C5.91553 61.0566 6.10377 60.868 6.32967 60.868C6.48026 60.868 6.59321 60.868 6.7438 60.868C9.45451 61.0566 11.6005 63.2453 11.8264 65.9623C11.8264 66.0755 11.8264 66.151 11.8264 66.2642C11.8264 66.3019 11.8264 66.3397 11.8264 66.3774Z" stroke="#1E1E1E" stroke-width="3" stroke-miterlimit="10"/>
<path d="M41.5312 61.283V66.3774C41.5312 66.6038 41.343 66.7925 41.1171 66.7925H36.0345C35.8086 66.7925 35.6204 66.6038 35.6204 66.3774C35.6204 66.2264 35.6204 66.1132 35.6204 65.9623C35.8086 63.2453 37.9922 61.0944 40.6653 60.9057C40.7782 60.9057 40.9288 60.9057 41.0794 60.9057C41.343 60.8679 41.5312 61.0566 41.5312 61.283Z" stroke="#1E1E1E" stroke-width="3" stroke-miterlimit="10"/>
<path d="M41.1172 52.2264C40.9667 52.2264 40.8537 52.2264 40.7031 52.2264C37.9924 52.0377 35.8464 49.8491 35.6582 47.1698C35.6582 47.0566 35.6582 46.9057 35.6582 46.7547C35.6582 46.5283 35.8464 46.3396 36.0723 46.3396H11.45C11.6759 46.3396 11.8642 46.5283 11.8642 46.7547C11.8642 46.9057 11.8642 47.0189 11.8642 47.1698C11.6759 49.8868 9.49231 52.0377 6.81924 52.2264C6.7063 52.2264 6.5557 52.2264 6.40511 52.2264C6.17921 52.2264 5.99097 52.0377 5.99097 51.8113V61.283C5.99097 61.0566 6.17921 60.8679 6.40511 60.8679C6.5557 60.8679 6.66865 60.8679 6.81924 60.8679C9.52995 61.0566 11.6759 63.2453 11.9018 65.9623C11.9018 66.0755 11.9018 66.1509 11.9018 66.2642C11.9018 66.3019 11.9018 66.3396 11.9018 66.3774C11.9018 66.6038 11.7136 66.7925 11.4877 66.7925H36.0723C35.8464 66.7925 35.6582 66.6038 35.6582 66.3774C35.6582 66.2264 35.6582 66.1132 35.6582 65.9623C35.8464 63.2453 38.0301 61.0943 40.7031 60.9057C40.8161 60.9057 40.9667 60.9057 41.1172 60.9057C41.3431 60.9057 41.5314 61.0943 41.5314 61.3208V51.8491C41.5314 52.0377 41.3431 52.2264 41.1172 52.2264ZM23.7235 62.7925C20.2975 62.7925 17.5115 60 17.5115 56.566C17.5115 53.1321 20.2975 50.3396 23.7235 50.3396C27.1496 50.3396 29.9356 53.1321 29.9356 56.566C29.9356 60 27.1496 62.7925 23.7235 62.7925Z" stroke="#1E1E1E" stroke-width="3" stroke-miterlimit="10"/>
<path d="M29.9353 56.566C29.9353 60 27.1493 62.7925 23.7233 62.7925C20.2972 62.7925 17.5112 60 17.5112 56.566C17.5112 53.1321 20.2972 50.3396 23.7233 50.3396C27.1493 50.3396 29.9353 53.1321 29.9353 56.566Z" stroke="#1E1E1E" stroke-width="3" stroke-miterlimit="10"/>
<path d="M37.3147 40.4906C35.3193 42.4906 32.4956 43.5094 28.8813 43.5094C27.4507 43.5094 25.9448 43.3585 24.3259 43.0189C24.2882 43.0189 24.2506 42.9811 24.2129 42.9811L24.1753 42.9434C24.1753 42.9434 24.1753 42.9434 24.1376 42.9434C24.1 42.9057 24.1 42.9057 24.0623 42.8679C24.0247 42.8302 24.0247 42.7925 24.0247 42.7547C23.987 42.4906 23.9117 42.2642 23.8741 42C23.5352 40.1132 23.4599 38.3396 23.5729 36.7547C23.6482 35.6981 23.8364 34.6793 24.1376 33.7736C24.627 32.1887 25.4177 30.8679 26.5095 29.7736C28.5049 27.7736 31.3662 26.7547 34.9428 26.7547C36.3734 26.7547 37.917 26.9057 39.5359 27.2453C39.6865 27.283 39.8371 27.3962 39.8371 27.5472C40.9666 33.1698 40.1007 37.6981 37.3147 40.4906Z" stroke="#1E1E1E" stroke-width="3" stroke-miterlimit="10"/>
<path d="M23.8364 41.9245C23.7987 42.2642 23.7234 42.6038 23.6481 42.9434C23.6105 43.0943 23.4975 43.2453 23.3469 43.2453H23.3093C22.2175 43.4717 21.1633 43.5849 20.1845 43.5849C17.6996 43.5849 15.7043 42.8679 14.3113 41.4717C12.3535 39.5472 11.7511 36.4151 12.5418 32.4151C12.5794 32.2642 12.6924 32.1132 12.843 32.1132C13.9724 31.8868 15.0266 31.7736 16.0054 31.7736C18.4903 31.7736 20.4856 32.4906 21.8787 33.8868C22.481 34.4906 22.9328 35.2076 23.2716 36C23.3469 36.2264 23.4599 36.4151 23.4975 36.6415C23.4222 38.2642 23.4975 40 23.8364 41.9245Z" stroke="#1E1E1E" stroke-width="3" stroke-miterlimit="10"/>
<path d="M10.923 30.4906C10.923 31.5094 10.0947 32.3396 9.0782 32.3396C8.06168 32.3396 7.2334 31.5094 7.2334 30.4906C7.2334 29.4717 8.06168 28.6415 9.0782 28.6415C10.0947 28.6415 10.923 29.4717 10.923 30.4906Z" stroke="#1E1E1E" stroke-width="3" stroke-miterlimit="10"/>
<path d="M40.1759 20.2642C40.1759 21.283 39.3476 22.1132 38.3311 22.1132C37.3146 22.1132 36.4863 21.283 36.4863 20.2642C36.4863 19.2453 37.3146 18.4151 38.3311 18.4151C39.3476 18.3774 40.1759 19.2076 40.1759 20.2642Z" stroke="#1E1E1E" stroke-width="3" stroke-miterlimit="10"/>
<path d="M24.2129 25.3962C24.2129 25.4717 23.987 25.6981 23.9117 25.6981C23.7235 25.7359 23.5352 25.7736 23.347 25.8113C22.7446 25.8868 22.1799 25.9623 21.6151 25.9623C19.7703 25.9623 18.3397 25.434 17.2855 24.4151C15.8549 22.9811 15.4031 20.6793 15.9678 17.7736C16.0055 17.6227 16.1184 17.4717 16.269 17.4717C19.1679 16.9057 21.4645 17.3585 22.8952 18.7925C24.3258 20.1887 24.7776 22.4906 24.2129 25.3962Z" stroke="#1E1E1E" stroke-width="3" stroke-miterlimit="10"/>
<path d="M23.4975 46.3396L23.6104 41.9245L24.0998 24.9811L19.0925 20.6038" stroke="#1E1E1E" stroke-width="3" stroke-miterlimit="10"/>
<path d="M23.9871 42.6793L33.1733 33.4717" stroke="#1E1E1E" stroke-width="3" stroke-miterlimit="10"/>
<path d="M23.4976 40.5283L16.3066 35.9623" stroke="#1E1E1E" stroke-width="3" stroke-miterlimit="10"/>
<path d="M27.9778 38.6415L34.4157 37.8491" stroke="#1E1E1E" stroke-width="3" stroke-miterlimit="10"/>
<path d="M31.2908 35.3208L31.9312 30.3019" stroke="#1E1E1E" stroke-width="3" stroke-miterlimit="10"/>
<path d="M19.6197 38.0755L16.3066 38.4528" stroke="#1E1E1E" stroke-width="3" stroke-miterlimit="10"/>
<path d="M22.3305 58.6792C22.594 58.9434 22.9328 59.1321 23.347 59.1321C24.0999 59.1321 24.74 58.4906 24.74 57.7358C24.74 57.3585 24.5894 57.0189 24.3258 56.7547C23.987 56.4151 23.4599 56.3774 23.0458 56.1887C22.594 56 22.2175 55.6226 22.2175 55.0943C22.2175 54.4151 22.7822 53.8491 23.4599 53.8491C23.7987 53.8491 24.0999 54 24.3258 54.2264" stroke="#1E1E1E" stroke-width="3" stroke-miterlimit="10"/>
<path d="M23.46 53.8113V52.9811" stroke="#1E1E1E" stroke-width="3" stroke-miterlimit="10"/>
<path d="M23.46 60.1887V59.1698" stroke="#1E1E1E" stroke-width="3" stroke-miterlimit="10"/>
</svg>
