<svg width="223" height="204" viewBox="0 0 223 204" fill="none" xmlns="http://www.w3.org/2000/svg">
<path d="M85.6768 59.4619C85.7275 59.4619 85.7782 59.4619 85.829 59.4619H112.165H85.6768Z" stroke="#313131" stroke-width="4" stroke-miterlimit="10"/>
<path d="M119.574 40.6295C119.574 45.9594 115.21 50.3249 109.882 50.3249C104.553 50.3249 100.189 45.9594 100.189 40.6295C100.189 35.2488 104.553 30.8833 109.882 30.8833C115.21 30.8833 119.574 35.2488 119.574 40.6295Z" stroke="#313131" stroke-width="4" stroke-miterlimit="10"/>
<path d="M112.216 59.4619C111.759 62.3553 110.389 65.0457 108.258 67.1776C107.243 68.1929 106.126 69.0051 104.908 69.6142C108.714 67.5837 111.454 63.8274 112.216 59.4619Z" stroke="#313131" stroke-width="4" stroke-miterlimit="10"/>
<path d="M153.927 73.0658C153.927 73.9287 153.42 74.6901 152.658 75.0962L102.929 98.5987C102.777 98.6495 102.625 98.7003 102.473 98.751L44.0158 111.594C43.8636 111.644 43.7114 111.644 43.5084 111.644H31.0762C31.1777 111.238 31.1776 110.883 31.1776 110.477V76.416L58.6808 59.4109H85.6765C85.7273 59.4109 85.778 59.4109 85.8287 59.4109H112.165C111.454 63.8272 108.714 67.5328 104.908 69.5632C104.807 69.614 104.655 69.7155 104.553 69.7663C104.401 69.8678 104.198 69.9693 103.995 70.0201C102.27 70.7815 100.342 71.2383 98.3117 71.2383H64.2626C63.0448 71.2383 62.0299 72.2536 62.0299 73.4718C62.0299 74.6901 63.0448 75.7054 64.2626 75.7054H94.4045L94.4552 75.7561L94.5567 75.7054L102.828 72.4566L112.977 68.4972H113.027C112.977 68.548 112.977 68.5988 112.926 68.5988L133.528 60.4262L134.644 59.9693C135.761 59.5125 136.877 59.2079 138.044 59.1064C141.393 58.6495 144.895 59.4617 147.736 61.4414C151.593 64.0302 153.927 68.3957 153.927 73.0658Z" stroke="#313131" stroke-width="4" stroke-miterlimit="10"/>
<path d="M133.528 60.376L112.926 68.5486C112.977 68.4978 112.977 68.4978 113.028 68.447L133.528 60.376Z" stroke="#313131" stroke-width="4" stroke-miterlimit="10"/>
<path d="M86.1333 71.2386H98.3118C100.342 71.2386 102.27 70.8325 103.995 70.0203C104.198 69.9695 104.35 69.868 104.553 69.7665C104.706 69.7157 104.807 69.6142 104.909 69.5635C106.126 68.9543 107.243 68.0914 108.258 67.0762C110.389 64.9442 111.759 62.3046 112.216 59.3604H85.6766C84.9154 59.3096 84.205 58.8528 83.8498 58.1421C83.4439 57.3807 83.5454 56.5178 84.0021 55.8071L84.6617 54.8934L84.9154 54.5381C85.1692 54.1827 85.2199 53.7767 85.0169 53.4213C84.2558 51.9492 83.6468 50.4772 83.1901 48.9543C83.0886 48.599 82.7335 48.2944 82.226 48.2437L75.9338 47.2792C73.2443 46.8731 71.2146 44.4873 71.2146 41.7462V39.3604C71.2146 36.6193 73.1936 34.2843 75.9338 33.8782L82.2767 32.8629C82.6827 32.8122 83.0379 32.5076 83.1394 32.1523C83.5961 30.6294 84.2558 29.1066 85.0169 27.6853C85.1692 27.3807 85.1184 26.9239 84.8647 26.6193L81.1096 21.3909C79.4858 19.2081 79.6888 16.1624 81.6171 14.1827L83.3424 12.4569C85.2199 10.5279 88.4168 10.2741 90.5988 11.8985L95.7746 15.6548C96.1806 15.9594 96.5358 15.9594 96.891 15.8071C98.3118 15.0964 99.7834 14.4873 101.356 13.9289C101.762 13.7767 102.016 13.4721 102.067 13.066L103.082 6.72081C103.488 3.9797 105.822 2 108.562 2H110.947C113.687 2 116.072 4.03046 116.478 6.72081C116.833 8.85279 117.239 11.3401 117.493 13.066C117.544 13.4213 117.848 13.8274 118.254 13.9289C119.776 14.3858 121.299 15.0457 122.77 15.8071C123.126 15.9594 123.582 15.9086 123.887 15.6548L129.063 11.8985C131.295 10.3249 134.391 10.5787 136.319 12.4569L137.993 14.132C139.922 16.0609 140.175 19.1066 138.602 21.3401L134.797 26.5178C134.543 26.8731 134.492 27.2792 134.695 27.6345C135.456 29.0558 136.065 30.5279 136.573 32.1015C136.674 32.5076 137.029 32.7614 137.435 32.8122L143.778 33.8274C146.468 34.2335 148.497 36.5685 148.497 39.3096V41.6954C148.497 44.4366 146.468 46.8223 143.778 47.2284L137.435 48.2944C137.029 48.3452 136.674 48.6498 136.573 48.9543C136.065 50.5787 135.456 52 134.695 53.4721C134.492 53.8782 134.543 54.2843 134.746 54.5888L137.993 59.0558C136.826 59.2081 135.71 59.5127 134.594 59.9188L133.477 60.3756L112.977 68.4467H112.926L102.777 72.4061L94.506 75.6548H94.3538M109.881 50.2741C104.553 50.2741 100.189 45.9086 100.189 40.5787C100.189 35.198 104.553 30.8325 109.881 30.8325C115.21 30.8325 119.573 35.198 119.573 40.5787C119.573 45.9594 115.21 50.2741 109.881 50.2741Z" stroke="#313131" stroke-width="4" stroke-miterlimit="10"/>
<path d="M86.1333 71.2388H64.2627C63.0449 71.2388 62.03 72.254 62.03 73.4723C62.03 74.6906 63.0449 75.7058 64.2627 75.7058H94.4046" stroke="#313131" stroke-width="4" stroke-miterlimit="10"/>
<path d="M112.216 59.4619C111.759 62.3553 110.389 65.0457 108.258 67.1776C107.243 68.1929 106.126 69.0051 104.908 69.6142C108.714 67.5837 111.454 63.8274 112.216 59.4619Z" stroke="#313131" stroke-width="4" stroke-miterlimit="10"/>
<path d="M24.9362 63.1167H8.29225C4.84167 63.1167 2 65.9593 2 69.4111V110.477C2 113.98 4.84167 116.772 8.29225 116.772H24.9362C27.9809 116.772 30.5688 114.538 31.127 111.645C31.2285 111.239 31.2285 110.883 31.2285 110.477V69.4111C31.2285 65.9593 28.3868 63.1167 24.9362 63.1167ZM19.9126 107.888C16.2591 107.888 13.2651 104.893 13.2651 101.239C13.2651 97.5329 16.2591 94.5888 19.9126 94.5888C23.6169 94.5888 26.6108 97.5837 26.6108 101.239C26.56 104.893 23.5662 107.888 19.9126 107.888Z" stroke="#313131" stroke-width="4" stroke-miterlimit="10"/>
<path d="M26.56 101.188C26.56 104.843 23.5661 107.838 19.8618 107.838C16.2082 107.838 13.2144 104.843 13.2144 101.188C13.2144 97.4823 16.2082 94.5381 19.8618 94.5381C23.5661 94.5381 26.56 97.533 26.56 101.188Z" stroke="#313131" stroke-width="4" stroke-miterlimit="10"/>
<path d="M115.666 153.523C115.565 153.472 115.463 153.371 115.362 153.269C115.463 153.371 115.615 153.472 115.717 153.574C115.666 153.523 115.666 153.523 115.666 153.523Z" stroke="#313131" stroke-width="4" stroke-miterlimit="10"/>
<path d="M114.651 152.66C114.55 152.558 114.448 152.456 114.347 152.355C114.296 152.304 114.296 152.304 114.245 152.253C114.347 152.406 114.499 152.507 114.651 152.66Z" stroke="#313131" stroke-width="4" stroke-miterlimit="10"/>
<path d="M111.353 147.989C111.2 147.634 111.048 147.228 110.896 146.822C111.048 147.228 111.2 147.634 111.353 147.989Z" stroke="#313131" stroke-width="4" stroke-miterlimit="10"/>
<path d="M191.477 196.873H179.045C178.893 196.873 178.741 196.873 178.588 196.822L120.132 183.979C119.979 183.929 119.827 183.878 119.675 183.827L69.9458 160.274C69.1847 159.919 68.6772 159.106 68.6772 158.243C68.6772 153.573 70.9607 149.208 74.868 146.568C78.2171 144.284 82.4288 143.573 86.2854 144.589C86.8435 144.741 87.4017 144.893 87.9599 145.147L92.0701 146.771L98.5654 149.36L105.771 152.203L108.359 153.218L109.628 153.726L116.123 156.314L127.591 160.883L127.743 160.934L127.845 160.883H158.24C159.458 160.883 160.473 159.868 160.473 158.649C160.473 157.431 159.458 156.416 158.24 156.416H124.242C120.994 156.416 118.051 155.299 115.666 153.472C115.666 153.421 115.615 153.421 115.615 153.421C115.514 153.37 115.412 153.269 115.311 153.167C115.209 153.116 115.159 153.015 115.057 152.964C114.905 152.863 114.803 152.71 114.651 152.609C114.499 152.457 114.347 152.304 114.245 152.203C114.093 152.05 113.991 151.898 113.839 151.746C113.738 151.644 113.636 151.492 113.535 151.391C113.433 151.238 113.332 151.137 113.23 150.985C113.027 150.731 112.824 150.426 112.621 150.172C112.469 149.969 112.368 149.766 112.215 149.563C112.114 149.462 112.063 149.309 112.012 149.208C111.86 148.954 111.759 148.7 111.607 148.396C111.556 148.243 111.454 148.091 111.404 147.939C111.251 147.583 111.099 147.177 110.947 146.771C110.693 146.061 110.541 145.35 110.439 144.589H163.873L191.376 161.594V195.705C191.376 196.111 191.376 196.518 191.477 196.873Z" stroke="#313131" stroke-width="4" stroke-miterlimit="10"/>
<path d="M108.41 153.269L105.822 152.253L108.41 153.269Z" stroke="#313131" stroke-width="4" stroke-miterlimit="10"/>
<path d="M111.353 147.989C111.2 147.634 111.048 147.228 110.896 146.822C111.048 147.228 111.2 147.634 111.353 147.989Z" stroke="#313131" stroke-width="4" stroke-miterlimit="10"/>
<path d="M114.651 152.66C114.55 152.558 114.448 152.456 114.347 152.355C114.296 152.304 114.296 152.304 114.245 152.253C114.347 152.406 114.499 152.507 114.651 152.66Z" stroke="#313131" stroke-width="4" stroke-miterlimit="10"/>
<path d="M158.341 156.467H124.242C120.994 156.467 118.051 155.35 115.666 153.523C115.564 153.421 115.412 153.319 115.311 153.218C115.209 153.167 115.158 153.066 115.057 153.015C114.905 152.913 114.803 152.761 114.651 152.66C114.55 152.558 114.448 152.457 114.347 152.355C114.296 152.304 114.296 152.304 114.245 152.253C114.093 152.101 113.941 151.949 113.839 151.797C113.738 151.695 113.636 151.543 113.535 151.441C113.433 151.289 113.332 151.187 113.23 151.035C113.027 150.781 112.824 150.477 112.621 150.223C112.469 150.02 112.368 149.817 112.215 149.614C112.114 149.512 112.063 149.36 112.012 149.259C111.86 149.005 111.759 148.751 111.606 148.446C111.556 148.294 111.454 148.142 111.403 147.99C111.251 147.634 111.099 147.228 110.947 146.822C110.693 146.111 110.541 145.401 110.439 144.639H140.987C141.596 144.639 142.154 144.385 142.611 143.929C143.017 143.472 143.271 142.863 143.22 142.253C143.22 142.152 143.22 142 143.321 141.746C143.575 141.238 143.778 140.68 143.981 140.121C144.336 139.208 144.641 138.294 144.894 137.38C144.996 136.924 145.453 136.619 145.96 136.619H148.548C151.643 136.619 154.13 134.132 154.13 131.035V129.715C154.13 126.619 151.643 124.132 148.548 124.132H145.96C145.453 124.132 144.996 123.776 144.894 123.269C144.438 121.644 143.93 120.172 143.321 118.954C143.118 118.497 143.22 117.939 143.575 117.634L145.503 116.01C147.838 114.03 148.142 110.477 146.214 108.142L145.3 107.025C143.372 104.741 139.617 104.487 137.435 106.365L135.557 107.939C134.949 108.446 134.543 108.243 134.187 108.04C132.97 107.177 131.599 106.365 130.128 105.654C129.671 105.451 129.468 104.944 129.519 104.487L129.925 102.152C130.432 99.157 128.453 96.2636 125.358 95.6545L123.988 95.4514C120.893 94.8931 118.051 97.025 117.543 99.9692L116.985 103.015C115.158 103.116 113.281 103.421 111.454 103.929C110.947 104.081 110.389 103.827 110.135 103.421L109.018 101.492C107.496 98.954 104.046 97.9388 101.407 99.4616L100.24 100.172C97.5503 101.695 96.6369 105.147 98.1592 107.837L99.2249 109.715C99.4786 110.172 99.4279 110.68 99.0727 111.035C97.9055 112.203 96.8399 113.472 95.8758 114.842C95.6221 115.248 95.0131 115.35 94.6072 115.248L92.6282 114.538C89.8373 113.523 86.4882 115.096 85.4733 117.888L85.0166 119.208C83.951 122.101 85.4733 125.35 88.3657 126.365L90.2939 127.076C90.8014 127.279 91.1058 127.736 91.0551 128.294C91.0044 129.056 90.9536 129.817 90.9536 130.629C90.9536 131.492 91.0044 132.355 91.1059 133.116C91.1566 133.675 90.8521 134.182 90.3954 134.335L88.4672 135.045C85.5748 136.111 84.1032 139.309 85.1688 142.203L85.6255 143.523C85.7778 144.03 86.0315 144.487 86.3867 144.893C86.9449 145.045 87.503 145.198 88.0612 145.451L92.1715 147.076L98.6667 149.665L105.872 152.507L108.46 153.523L109.729 154.03L116.224 156.619L127.692 161.187H158.341C159.559 161.187 160.574 160.172 160.574 158.954C160.574 157.482 159.559 156.467 158.341 156.467Z" stroke="#313131" stroke-width="4" stroke-miterlimit="10"/>
<path d="M111.353 147.989C111.2 147.634 111.048 147.228 110.896 146.822C111.048 147.228 111.2 147.634 111.353 147.989Z" stroke="#313131" stroke-width="4" stroke-miterlimit="10"/>
<path d="M220.604 154.639V195.705C220.604 199.157 217.763 202 214.312 202H197.668C194.573 202 192.036 199.766 191.477 196.873C191.427 196.467 191.376 196.111 191.376 195.705V154.639C191.376 151.137 194.218 148.345 197.668 148.345H214.312C217.813 148.345 220.604 151.187 220.604 154.639Z" stroke="#313131" stroke-width="4" stroke-miterlimit="10"/>
<path d="M119.421 143.879C127.268 143.879 133.629 137.515 133.629 129.665C133.629 121.816 127.268 115.452 119.421 115.452C111.574 115.452 105.213 121.816 105.213 129.665C105.213 137.515 111.574 143.879 119.421 143.879Z" stroke="#313131" stroke-width="4" stroke-miterlimit="10"/>
</svg>
