<svg width="204" height="204" viewBox="0 0 204 204" fill="none" xmlns="http://www.w3.org/2000/svg">
<path d="M70.849 67.9312C70.8 68.0783 70.8 68.2253 70.751 68.3724C70.751 68.4214 70.7019 68.5194 70.7019 68.6175C70.7019 68.7155 70.6529 68.7645 70.6529 68.8626C70.6529 68.9606 70.6039 69.0587 70.6039 69.1077C70.6039 69.1567 70.6039 69.2547 70.5549 69.3037C70.5549 69.3528 70.5549 69.4018 70.5059 69.4508C70.5059 69.5488 70.4569 69.6959 70.4569 69.7939C70.4569 69.843 70.4569 69.892 70.4079 69.99C70.4079 70.039 70.4079 70.1371 70.3589 70.1861V70.2351C70.3589 70.3822 70.3099 70.5292 70.3099 70.6763C70.2609 70.9704 70.2119 71.3135 70.2119 71.6077C70.2119 71.8037 70.1629 71.9508 70.1629 72.1469C70.1139 72.392 70.1139 72.6861 70.1139 72.9312C70.0649 73.4704 70.0649 73.9606 70.0159 74.4998C70.0159 74.7449 70.0159 74.99 69.9669 75.2841C69.9669 75.3332 69.9669 75.3822 69.9669 75.4802M78.2974 100.039C79.4734 101.51 80.7965 102.882 82.1686 104.108C80.7965 102.882 79.5224 101.51 78.2974 100.039ZM78.2974 100.039C79.4734 101.51 80.7965 102.882 82.1686 104.108C80.7965 102.882 79.5224 101.51 78.2974 100.039ZM78.2974 100.039C79.4734 101.51 80.7965 102.882 82.1686 104.108C80.7965 102.882 79.5224 101.51 78.2974 100.039ZM68.4968 64.7939C68.4968 65.0881 68.4968 65.3822 68.4968 65.6763C68.4968 66.4116 68.8888 67.0979 69.4769 67.539C69.5259 67.5881 69.5259 67.5881 69.5749 67.5881C69.6239 67.6371 69.6729 67.6371 69.6729 67.6371C69.6729 67.6371 69.7219 67.6371 69.7219 67.6861C69.7219 67.6861 69.7709 67.6861 69.7709 67.7351C69.8199 67.7841 69.8689 67.7841 69.9179 67.7841C69.9669 67.7841 70.0159 67.8332 70.0649 67.8332C70.1139 67.8332 70.1629 67.8822 70.2119 67.8822C70.2609 67.8822 70.3099 67.9312 70.3589 67.9312C70.4079 67.9312 70.4569 67.9312 70.5549 67.9312C70.6039 67.9312 70.6529 67.9312 70.751 67.9312H70.8C71.045 67.9312 71.29 67.8822 71.486 67.7841L75.8962 66.2155L68.4968 64.7939Z" stroke="#313131" stroke-width="4" stroke-miterlimit="10"/>
<path d="M70.7997 28.2256C70.6037 28.2746 70.3587 28.3236 70.1137 28.3236H70.0647C69.6237 28.3236 69.2316 28.2256 68.8396 27.9805L59.5291 22.0001L57.422 24.1079C56.932 24.5981 56.2949 24.8432 55.6089 24.7452C54.9229 24.6962 54.3348 24.353 53.9428 23.8138L51.7377 20.7256L47.3765 25.8236C46.9844 26.3138 46.3964 26.5589 45.7594 26.6079C45.0243 26.657 44.5343 26.4119 44.0443 25.9707L39.536 21.5589L27.6774 28.0295C27.0894 28.3236 26.4523 28.3726 25.8153 28.1766C25.5213 29.8432 25.3743 31.5589 25.3743 33.2746C25.3743 41.3628 28.7064 48.5687 33.9007 53.2746C36.1058 55.2844 38.654 56.804 41.3981 57.7844C41.4471 57.7844 41.4961 57.8334 41.5451 57.8334C41.7411 57.8825 41.9372 57.9805 42.1332 58.0295C46.0534 59.206 50.2676 59.255 54.1878 58.0785C54.1878 58.0785 54.1878 58.0785 54.2368 58.0785C54.3348 58.0295 54.4328 58.0295 54.5308 57.9805C54.6778 57.9315 54.8249 57.8825 54.9719 57.8334C55.0209 57.8334 55.1189 57.7844 55.1679 57.7844C57.912 56.804 60.4602 55.2354 62.6653 53.2746C67.8596 48.5687 71.1917 41.3629 71.1917 33.3236C71.2407 31.5589 71.0937 29.8923 70.7997 28.2256Z" stroke="#313131" stroke-width="4" stroke-miterlimit="10"/>
<path d="M55.0701 105.823L50.1699 114.5C49.7779 115.235 48.9938 115.676 48.1608 115.676C47.3277 115.676 46.5927 115.235 46.2007 114.549L41.3004 105.872C41.0554 105.431 40.9574 104.892 41.0064 104.402L45.5146 74.5979L46.1027 70.8234C46.2007 70.0391 46.7397 69.4018 47.3767 69.1077C47.6708 68.9606 48.0138 68.9116 48.3568 68.9116C48.6508 68.9116 48.9448 68.9606 49.1898 69.0587C49.9249 69.3528 50.4639 70.0391 50.6109 70.8724L51.1499 74.6469L55.3642 104.451C55.4132 104.892 55.3152 105.382 55.0701 105.823Z" stroke="#313131" stroke-width="4" stroke-miterlimit="10"/>
<path d="M48.3078 68.1768L47.3767 69.0101C47.6707 68.863 48.0137 68.814 48.3568 68.814C48.6508 68.814 48.9448 68.863 49.1898 68.9611L48.3078 68.1768Z" stroke="#313131" stroke-width="4" stroke-miterlimit="10"/>
<path d="M48.3078 68.1765L47.3767 69.0099C46.6907 69.304 46.2007 69.9413 46.1026 70.7256L45.5146 74.5001L32.2839 78.7648C32.0389 78.8138 31.7939 78.8628 31.5979 78.8628C31.1078 78.8628 30.6668 78.7158 30.2748 78.4216C29.6868 77.9805 29.3438 77.2942 29.3438 76.5589V60.2844C29.3438 59.0099 30.3728 57.9805 31.5979 57.9805H36.2041C36.7431 57.9805 37.3312 58.1765 37.7232 58.5687L38.5072 59.255L48.3078 68.1765Z" stroke="#313131" stroke-width="4" stroke-miterlimit="10"/>
<path d="M48.3078 68.1768L47.3767 69.0101C47.6707 68.863 48.0137 68.814 48.3568 68.814C48.6508 68.814 48.9448 68.863 49.1898 68.9611L48.3078 68.1768Z" stroke="#313131" stroke-width="4" stroke-miterlimit="10"/>
<path d="M67.3208 60.3826V76.6571C67.3208 77.3924 66.9778 78.0786 66.3898 78.5198C65.9977 78.8139 65.5077 78.961 65.0177 78.961C64.7727 78.961 64.5767 78.912 64.3316 78.863L51.1009 74.5982L50.5619 70.8237C50.4639 69.9904 49.8759 69.3041 49.1408 69.01L48.2588 68.2257L58.1083 59.4022L58.8924 58.7159C59.3334 58.3237 59.8724 58.1277 60.4114 58.1277H65.0177C66.2918 58.0786 67.3208 59.108 67.3208 60.3826Z" stroke="#313131" stroke-width="4" stroke-miterlimit="10"/>
<path d="M42.1824 58.0786C44.1425 58.6668 46.2006 59.01 48.3077 59.01C50.3658 59.01 52.3259 58.7159 54.237 58.1276C50.3168 59.3041 46.1026 59.2551 42.1824 58.0786Z" stroke="#313131" stroke-width="4" stroke-miterlimit="10"/>
<path d="M72.368 26.0686C72.368 27.098 71.6819 27.9314 70.7999 28.2255C70.6039 28.2745 70.3589 28.3235 70.1138 28.3235H70.0648C69.6238 28.3235 69.2318 28.2255 68.8398 27.9804L59.5293 22L57.4222 24.1078C56.9321 24.598 56.2951 24.8431 55.6091 24.7451C54.923 24.6961 54.335 24.3529 53.943 23.8137L51.7379 20.7255L47.3766 25.8235C46.9846 26.3137 46.3966 26.5588 45.7595 26.6078C45.0245 26.6569 44.5345 26.4118 44.0444 25.9706L39.5362 21.5588L27.6776 28.0294C27.0895 28.3235 26.4525 28.3725 25.8155 28.1765C25.6685 28.1274 25.5215 28.0784 25.4234 27.9804C24.7374 27.5882 24.2964 26.8039 24.2964 26.0196C24.2964 12.7843 35.077 2 48.3077 2C61.3424 2 72.025 12.4902 72.319 25.4804C72.368 25.6765 72.368 25.8725 72.368 26.0686Z" stroke="#313131" stroke-width="4" stroke-miterlimit="10"/>
<path d="M128.133 112.343H121.468V104.157C124.016 101.902 126.173 99.3037 127.986 96.3625C126.173 99.3037 123.967 101.951 121.468 104.157V112.343H128.133ZM128.133 112.343C128.574 112.343 129.015 112.343 129.407 112.392C128.966 112.343 128.574 112.343 128.133 112.343ZM128.133 112.343H121.468V104.157C124.016 101.902 126.173 99.3037 127.986 96.3625C126.173 99.3037 123.967 101.951 121.468 104.157V112.343H128.133ZM128.133 112.343C128.574 112.343 129.015 112.343 129.407 112.392C128.966 112.343 128.574 112.343 128.133 112.343ZM128.133 112.343H121.468V104.157C124.016 101.902 126.173 99.3037 127.986 96.3625C126.173 99.3037 123.967 101.951 121.468 104.157V112.343H128.133ZM128.133 112.343C128.574 112.343 129.015 112.343 129.407 112.392C128.966 112.343 128.574 112.343 128.133 112.343ZM128.133 112.343H121.468V104.157C124.016 101.902 126.173 99.3037 127.986 96.3625C126.173 99.3037 123.967 101.951 121.468 104.157V112.343H128.133ZM128.133 112.343C128.574 112.343 129.015 112.343 129.407 112.392C128.966 112.343 128.574 112.343 128.133 112.343ZM128.133 112.343H121.468V104.157C124.016 101.902 126.173 99.3037 127.986 96.3625C126.173 99.3037 123.967 101.951 121.468 104.157V112.343H128.133ZM128.133 112.343C128.574 112.343 129.015 112.343 129.407 112.392C128.966 112.343 128.574 112.343 128.133 112.343ZM128.133 112.343H121.468V104.157C124.016 101.902 126.173 99.3037 127.986 96.3625C126.173 99.3037 123.967 101.951 121.468 104.157V112.343H128.133ZM128.133 112.343C128.574 112.343 129.015 112.343 129.407 112.392C128.966 112.343 128.574 112.343 128.133 112.343ZM128.133 112.343H121.468V104.157C124.016 101.902 126.173 99.3037 127.986 96.3625C126.173 99.3037 123.967 101.951 121.468 104.157V112.343H128.133ZM128.133 112.343C128.574 112.343 129.015 112.343 129.407 112.392C128.966 112.343 128.574 112.343 128.133 112.343ZM128.133 112.343H121.468V104.157C124.016 101.902 126.173 99.3037 127.986 96.3625C126.173 99.3037 123.967 101.951 121.468 104.157V112.343H128.133ZM128.133 112.343C128.574 112.343 129.015 112.343 129.407 112.392C128.966 112.343 128.574 112.343 128.133 112.343ZM128.133 112.343H121.468V104.157C124.016 101.902 126.173 99.3037 127.986 96.3625C126.173 99.3037 123.967 101.951 121.468 104.157V112.343H128.133ZM128.133 112.343C128.574 112.343 129.015 112.343 129.407 112.392C128.966 112.343 128.574 112.343 128.133 112.343ZM128.133 112.343H121.468V104.157C124.016 101.902 126.173 99.3037 127.986 96.3625C126.173 99.3037 123.967 101.951 121.468 104.157V112.343H128.133ZM128.133 112.343C128.574 112.343 129.015 112.343 129.407 112.392C128.966 112.343 128.574 112.343 128.133 112.343ZM128.133 112.343H121.468V104.157C124.016 101.902 126.173 99.3037 127.986 96.3625C126.173 99.3037 123.967 101.951 121.468 104.157V112.343H128.133ZM128.133 112.343C128.574 112.343 129.015 112.343 129.407 112.392C128.966 112.343 128.574 112.343 128.133 112.343ZM128.133 112.343H121.468V104.157C124.016 101.902 126.173 99.3037 127.986 96.3625C126.173 99.3037 123.967 101.951 121.468 104.157V112.343H128.133ZM128.133 112.343C128.574 112.343 129.015 112.343 129.407 112.392C128.966 112.343 128.574 112.343 128.133 112.343ZM128.133 112.343H121.468V104.157C124.016 101.902 126.173 99.3037 127.986 96.3625C126.173 99.3037 123.967 101.951 121.468 104.157V112.343H128.133ZM128.133 112.343C128.574 112.343 129.015 112.343 129.407 112.392C128.966 112.343 128.574 112.343 128.133 112.343ZM132.886 68.1763C132.984 68.7155 133.082 69.3037 133.18 69.8429C133.082 69.3037 132.984 68.7155 132.886 68.1763ZM132.837 67.9312C132.837 68.0292 132.886 68.1272 132.886 68.1763C132.837 68.0782 132.837 68.0292 132.837 67.9312ZM132.886 68.1763C132.984 68.7155 133.082 69.3037 133.18 69.8429C133.082 69.3037 132.984 68.7155 132.886 68.1763ZM132.837 67.9312C132.837 68.0292 132.886 68.1272 132.886 68.1763C132.837 68.0782 132.837 68.0292 132.837 67.9312ZM132.886 68.1763C132.984 68.7155 133.082 69.3037 133.18 69.8429C133.082 69.3037 132.984 68.7155 132.886 68.1763ZM132.837 67.9312C132.837 68.0292 132.886 68.1272 132.886 68.1763C132.837 68.0782 132.837 68.0292 132.837 67.9312ZM132.886 68.1763C132.984 68.7155 133.082 69.3037 133.18 69.8429C133.082 69.3037 132.984 68.7155 132.886 68.1763ZM132.837 67.9312C132.837 68.0292 132.886 68.1272 132.886 68.1763C132.837 68.0782 132.837 68.0292 132.837 67.9312ZM132.886 68.1763C132.984 68.7155 133.082 69.3037 133.18 69.8429C133.082 69.3037 132.984 68.7155 132.886 68.1763ZM132.837 67.9312C132.837 68.0292 132.886 68.1272 132.886 68.1763C132.837 68.0782 132.837 68.0292 132.837 67.9312ZM132.886 68.1763C132.984 68.7155 133.082 69.3037 133.18 69.8429C133.082 69.3037 132.984 68.7155 132.886 68.1763ZM132.837 67.9312C132.837 68.0292 132.886 68.1272 132.886 68.1763C132.837 68.0782 132.837 68.0292 132.837 67.9312ZM132.886 68.1763C132.984 68.7155 133.082 69.3037 133.18 69.8429C133.082 69.3037 132.984 68.7155 132.886 68.1763ZM132.837 67.9312C132.837 68.0292 132.886 68.1272 132.886 68.1763C132.837 68.0782 132.837 68.0292 132.837 67.9312ZM132.886 68.1763C132.984 68.7155 133.082 69.3037 133.18 69.8429C133.082 69.3037 132.984 68.7155 132.886 68.1763ZM132.837 67.9312C132.837 68.0292 132.886 68.1272 132.886 68.1763C132.837 68.0782 132.837 68.0292 132.837 67.9312ZM132.886 68.1763C132.984 68.7155 133.082 69.3037 133.18 69.8429C133.082 69.3037 132.984 68.7155 132.886 68.1763ZM132.837 67.9312C132.837 68.0292 132.886 68.1272 132.886 68.1763C132.837 68.0782 132.837 68.0292 132.837 67.9312ZM132.886 68.1763C132.984 68.7155 133.082 69.3037 133.18 69.8429C133.082 69.3037 132.984 68.7155 132.886 68.1763ZM132.837 67.9312C132.837 68.0292 132.886 68.1272 132.886 68.1763C132.837 68.0782 132.837 68.0292 132.837 67.9312ZM132.886 68.1763C132.984 68.7155 133.082 69.3037 133.18 69.8429C133.082 69.3037 132.984 68.7155 132.886 68.1763ZM132.837 67.9312C132.837 68.0292 132.886 68.1272 132.886 68.1763C132.837 68.0782 132.837 68.0292 132.837 67.9312ZM132.886 68.1763C132.984 68.7155 133.082 69.3037 133.18 69.8429C133.082 69.3037 132.984 68.7155 132.886 68.1763ZM132.837 67.9312C132.837 68.0292 132.886 68.1272 132.886 68.1763C132.837 68.0782 132.837 68.0292 132.837 67.9312ZM132.886 68.1763C132.984 68.7155 133.082 69.3037 133.18 69.8429C133.082 69.3037 132.984 68.7155 132.886 68.1763ZM132.837 67.9312C132.837 68.0292 132.886 68.1272 132.886 68.1763C132.837 68.0782 132.837 68.0292 132.837 67.9312ZM132.886 68.1763C132.984 68.7155 133.082 69.3037 133.18 69.8429C133.082 69.3037 132.984 68.7155 132.886 68.1763ZM132.837 67.9312C132.837 68.0292 132.886 68.1272 132.886 68.1763C132.837 68.0782 132.837 68.0292 132.837 67.9312Z" stroke="#313131" stroke-width="4" stroke-miterlimit="10"/>
<path d="M175.469 26.7549H172.284L172.872 26.951L176.302 28.1765C176.547 28.2745 176.792 28.3235 177.086 28.3235H177.135C177.282 28.3235 177.429 28.3235 177.576 28.2745C177.331 27.3921 176.449 26.7549 175.469 26.7549ZM148.126 57.6863C150.38 58.5196 152.83 59.0098 155.329 59.0098C157.583 59.0098 159.739 58.6667 161.798 57.9804C157.387 59.402 152.536 59.3039 148.126 57.6863ZM132.396 33.3235C132.396 33.6176 132.396 33.9608 132.396 34.2549V32.3921C132.396 32.6863 132.396 32.9804 132.396 33.3235Z" stroke="#313131" stroke-width="4" stroke-miterlimit="10"/>
<path d="M132.592 28.0784C132.641 28.1275 132.739 28.1275 132.837 28.1765C132.886 27.9804 132.935 27.7353 132.984 27.5392C132.837 27.6863 132.69 27.8824 132.592 28.0784ZM175.469 26.7549H172.284L152.585 19.7451L172.284 26.7549L172.921 26.951L176.351 28.1765C176.596 28.2745 176.841 28.3235 177.135 28.3235H177.184C177.331 28.3235 177.478 28.3235 177.625 28.2745C177.331 27.3922 176.449 26.7549 175.469 26.7549ZM138.129 25.8235C138.129 25.8726 138.129 25.8726 138.129 25.8235L144.157 21.951L138.129 25.8235Z" stroke="#313131" stroke-width="4" stroke-miterlimit="10"/>
<path d="M179.341 25.4804C179.047 12.4902 168.364 2 155.329 2C142.099 2 131.318 12.7843 131.318 26.0196C131.318 26.8529 131.759 27.6373 132.494 28.0294C132.494 28.0294 132.543 28.0784 132.592 28.0784C132.69 27.8823 132.788 27.6863 132.935 27.5392C133.327 27.049 133.964 26.7549 134.65 26.7549H137.835C137.933 26.4608 138.031 26.1667 138.129 25.8725L144.157 22L146.264 24.1078C146.754 24.598 147.391 24.7941 148.077 24.7451C148.763 24.6961 149.351 24.3529 149.743 23.8137L152.585 19.7941L172.284 26.8039H175.469C176.45 26.8039 177.283 27.4412 177.626 28.3235C177.675 28.3235 177.773 28.2745 177.822 28.2745C178.753 27.9804 179.439 27.1471 179.439 26.1176C179.439 25.8725 179.39 25.6765 179.341 25.4804Z" stroke="#313131" stroke-width="4" stroke-miterlimit="10"/>
<path d="M175.469 26.7549H172.235L172.872 26.951L176.302 28.1764C176.547 28.2745 176.792 28.3235 177.086 28.3235H177.135C177.282 28.3235 177.429 28.3235 177.576 28.2745C177.331 27.3921 176.449 26.7549 175.469 26.7549Z" stroke="#313131" stroke-width="4" stroke-miterlimit="10"/>
<path d="M178.311 33.3234C178.311 41.3626 174.979 48.5685 169.785 53.2744C167.825 55.0391 165.62 56.4607 163.267 57.4411C162.924 57.5881 162.63 57.6862 162.287 57.8332C162.14 57.8823 161.993 57.9313 161.846 57.9803C157.387 59.4019 152.536 59.3528 148.175 57.7352C148.077 57.6862 148.028 57.6862 147.93 57.6372C147.783 57.5881 147.636 57.5391 147.489 57.4411C145.087 56.4607 142.882 55.0391 140.922 53.2744C137.296 49.9901 134.601 45.4803 133.278 40.3332C133.67 40.6274 134.16 40.8234 134.699 40.8234H150.135C151.409 40.8234 152.438 39.794 152.438 38.5195V35.3332C152.781 34.9411 152.977 34.4019 152.977 33.8626C152.977 32.4411 154.055 31.3136 155.329 31.3136C156.652 31.3136 157.73 32.4411 157.73 33.8626V38.5685C157.73 39.843 158.759 40.8725 160.033 40.8725H175.518C176.792 40.8725 177.772 39.843 177.772 38.5685V29.0587C177.772 28.8136 177.723 28.5195 177.625 28.3234C177.723 28.3234 177.772 28.2744 177.821 28.2744C178.164 29.8921 178.311 31.5587 178.311 33.3234Z" stroke="#313131" stroke-width="4" stroke-miterlimit="10"/>
<path d="M132.592 28.0783C132.445 28.3724 132.396 28.6665 132.396 29.0097V32.343C132.445 30.9214 132.592 29.5489 132.837 28.1763C132.886 27.9802 132.935 27.7351 132.984 27.5391C132.837 27.6861 132.69 27.8822 132.592 28.0783Z" stroke="#313131" stroke-width="4" stroke-miterlimit="10"/>
<path d="M177.772 29.0591V38.5689C177.772 39.8434 176.743 40.8728 175.518 40.8728H160.033C158.759 40.8728 157.73 39.8434 157.73 38.5689V33.912C157.73 32.4905 156.652 31.363 155.329 31.363C154.006 31.363 152.977 32.4905 152.977 33.912C152.977 34.4513 152.781 34.9905 152.438 35.3826V38.5689C152.438 39.8434 151.409 40.8728 150.135 40.8728H134.65C134.111 40.8728 133.621 40.6767 133.229 40.3826C132.69 39.9415 132.396 39.3042 132.396 38.6179V32.3924C132.445 30.9709 132.592 29.5983 132.837 28.2258C132.886 28.0297 132.935 27.7846 132.984 27.5885C133.376 27.0983 134.013 26.8042 134.699 26.8042H150.135C150.87 26.8042 151.556 27.1473 151.948 27.6866C152.928 27.0983 154.104 26.8042 155.329 26.8042C156.407 26.8042 157.436 27.0493 158.318 27.4905C158.71 27.0493 159.298 26.8042 159.984 26.8042H172.235L172.872 27.0003L176.302 28.2258C176.547 28.3238 176.792 28.3728 177.086 28.3728H177.135C177.282 28.3728 177.429 28.3728 177.625 28.3238C177.723 28.5199 177.772 28.765 177.772 29.0591Z" stroke="#313131" stroke-width="4" stroke-miterlimit="10"/>
<path d="M75.9939 66.2158L71.5837 67.7845C71.3387 67.8825 71.1427 67.9315 70.8977 67.9315C70.8487 68.1766 70.7997 68.3727 70.7507 68.6178C70.7017 68.8629 70.6527 69.059 70.6037 69.3041C70.6037 69.3531 70.6037 69.4021 70.5547 69.4511C70.5057 69.6472 70.5056 69.7943 70.4566 69.9903C70.4566 70.0394 70.4567 70.1374 70.4076 70.1864V70.2354C70.4076 70.3825 70.3586 70.5295 70.3586 70.6766C70.3096 70.9707 70.2606 71.3139 70.2606 71.608C70.2606 71.8041 70.2116 71.9511 70.2116 72.1472C70.1626 72.3923 70.1626 72.6864 70.1626 72.9315C70.1136 73.4707 70.1136 73.9609 70.0646 74.5001C70.0646 74.7452 70.0646 74.9903 70.0156 75.2844C70.0156 75.3335 70.0156 75.3825 70.0156 75.4805M70.7017 83.1766C70.7017 83.2256 70.7017 83.3237 70.7507 83.3727C70.7507 83.4707 70.7997 83.5688 70.7997 83.6668C70.8977 84.108 70.9957 84.5491 71.0937 84.9903C71.1427 85.1374 71.1427 85.2844 71.1917 85.4315C71.2407 85.5786 71.2407 85.6766 71.2897 85.8237C71.3877 86.1178 71.4367 86.4119 71.5347 86.706C71.5837 86.8041 71.5837 86.9511 71.6327 87.0491C71.6817 87.2452 71.7797 87.4903 71.8287 87.6864C71.8777 87.7844 71.8777 87.8825 71.9267 87.9805C71.9757 88.1276 72.0247 88.2256 72.0737 88.3727C72.1717 88.6178 72.2697 88.8629 72.3187 89.157C72.4168 89.4511 72.5148 89.6962 72.6128 89.9903C72.7108 90.2354 72.8088 90.4315 72.8578 90.6766C72.9068 90.8237 72.9558 90.9217 73.0048 91.0688C73.0538 91.2158 73.1028 91.3139 73.1518 91.4609C73.2498 91.657 73.2988 91.8531 73.3968 92.0492C73.4458 92.0982 73.4458 92.1472 73.4948 92.2452C73.5928 92.4903 73.6908 92.7354 73.8378 92.9805C73.9848 93.3237 74.1808 93.6668 74.3279 94.0099V94.059C74.4259 94.304 74.5729 94.5492 74.7199 94.7452C72.8088 91.1178 71.4367 87.2452 70.7017 83.1766ZM89.0286 108.765C92.9489 110.726 97.2611 111.804 101.818 111.804C106.572 111.804 111.08 110.628 115.098 108.52C106.964 112.686 97.2121 112.735 89.0286 108.765Z" stroke="#313131" stroke-width="4" stroke-miterlimit="10"/>
<path d="M131.563 88.7162C131.563 88.6671 131.612 88.6179 131.612 88.5195C131.563 88.5687 131.563 88.6671 131.563 88.7162Z" stroke="#313131" stroke-width="4" stroke-miterlimit="10"/>
<path d="M70.0647 75.4312C70.0647 75.6272 70.0647 75.8233 70.0647 76.0194C70.0647 76.2155 70.0647 76.4116 70.0647 76.6567C70.0647 76.4606 70.0647 76.2645 70.0647 76.0684C70.0647 75.8233 70.0647 75.6272 70.0647 75.4312Z" stroke="#313131" stroke-width="4" stroke-miterlimit="10"/>
<path d="M70.0647 75.3823C70.0647 75.6274 70.0647 75.8234 70.0647 76.0195C70.0647 76.2156 70.0647 76.4117 70.0647 76.6078C70.0647 76.7058 70.0647 76.7548 70.0647 76.8529C70.0647 76.9509 70.0647 77.0489 70.1137 77.098C70.1137 77.196 70.1627 77.343 70.1627 77.4411C70.1627 77.5391 70.2117 77.6862 70.2117 77.7842C70.2117 77.8823 70.2607 77.9803 70.2607 78.0783C70.2607 78.1274 70.2607 78.1274 70.2607 78.1274C70.3097 78.2254 70.3097 78.3234 70.3587 78.4215C70.4077 78.6176 70.4567 78.7646 70.5547 78.9607C70.6037 79.0097 70.6037 79.1078 70.6527 79.1568C70.7017 79.2548 70.7017 79.3528 70.7507 79.4509C70.7997 79.5489 70.8487 79.647 70.8977 79.745C70.9467 79.843 70.9957 79.8921 70.9957 79.9901C71.0447 80.0881 71.1427 80.2352 71.1918 80.3332C71.2408 80.4313 71.2898 80.5293 71.3878 80.6274C71.4368 80.6764 71.4368 80.7254 71.4858 80.7744C71.5348 80.8234 71.5838 80.9215 71.6328 80.9705C71.6818 81.0195 71.7308 81.1175 71.7798 81.1666C71.8288 81.2156 71.8778 81.3136 71.9268 81.3627C71.9268 81.4117 71.9758 81.4117 71.9758 81.4607C72.0248 81.5097 72.0738 81.6077 72.1228 81.6568C72.1718 81.7548 72.2698 81.8038 72.3188 81.9019C72.3678 81.9999 72.4658 82.0489 72.5148 82.147C72.6128 82.245 72.6618 82.343 72.7598 82.4411C72.8578 82.5391 72.9069 82.6372 73.0049 82.6862C73.1029 82.7842 73.2009 82.8823 73.2989 82.9803C73.3969 83.0783 73.4459 83.1274 73.5439 83.1764C73.6419 83.2744 73.6909 83.3234 73.7889 83.4215C73.9359 83.5685 74.0829 83.6666 74.2299 83.8136C74.3279 83.9117 74.4259 83.9607 74.5729 84.0587C74.6219 84.1077 74.6709 84.1077 74.7199 84.1568C74.769 84.2058 74.8179 84.2058 74.8669 84.2548C74.965 84.3038 75.063 84.4019 75.161 84.4509C75.259 84.4999 75.357 84.5979 75.455 84.647C75.553 84.696 75.651 84.745 75.749 84.843C78.0031 86.1666 80.7963 86.9019 83.7854 86.9019C91.3808 86.9019 97.5552 81.9999 97.5552 75.9705V75.9215C97.9472 73.7646 99.7113 72.147 101.867 72.147C103.975 72.147 105.788 73.7646 106.18 75.9215V75.9705C106.18 81.9999 112.354 86.9019 119.949 86.9019C122.939 86.9019 125.732 86.1175 127.986 84.794C131.318 82.8823 133.523 79.794 133.67 76.3136C133.67 76.2156 133.67 76.0685 133.67 75.9705V75.9215" stroke="#313131" stroke-width="4" stroke-miterlimit="10"/>
<path d="M68.6437 62.6864C68.5947 63.3726 68.5457 64.1079 68.5457 64.7942C68.5457 64.1079 68.5947 63.3726 68.6437 62.6864ZM75.9941 66.2158L106.18 55.4805L75.9941 66.2158ZM135.14 65.0883C135.14 65.2844 135.14 65.4805 135.14 65.6766C135.14 66.5099 134.699 67.2942 133.964 67.6864C133.621 67.8824 133.278 67.9315 132.886 67.9805H132.935C134.209 67.9805 135.189 66.9511 135.189 65.7256C135.238 65.4314 135.189 65.2844 135.14 65.0883ZM135.042 62.6864C135.042 62.7844 135.042 62.9315 135.091 63.0295C135.042 62.8824 135.042 62.7844 135.042 62.6864ZM127.202 64.7452L117.695 58.6177L127.202 64.7452Z" stroke="#313131" stroke-width="4" stroke-miterlimit="10"/>
<path d="M127.202 64.6963L117.695 58.5688L114.118 62.1473C113.628 62.6375 112.991 62.8826 112.305 62.7845C111.619 62.7355 111.031 62.3924 110.639 61.8041L106.13 55.3826L75.9448 66.1179L71.5346 67.6865C71.2896 67.7845 71.0935 67.8335 70.8485 67.8335H70.7995C70.7505 67.8335 70.7015 67.8335 70.6035 67.8335C70.5545 67.8335 70.5055 67.8335 70.4075 67.8335C70.3585 67.8335 70.3095 67.8335 70.2605 67.7845C70.2115 67.7845 70.1625 67.7355 70.1135 67.7355C70.0645 67.7355 70.0155 67.6865 69.9665 67.6865C69.9175 67.6865 69.8685 67.6375 69.8195 67.6375C69.8195 67.6375 69.7705 67.6375 69.7705 67.5884C69.7705 67.5884 69.7215 67.5884 69.7215 67.5394C69.6725 67.5394 69.6235 67.4904 69.6235 67.4904C69.5745 67.4904 69.5745 67.4414 69.5255 67.4414C68.9374 67.0002 68.5454 66.3139 68.5454 65.5786C68.5454 65.2845 68.5454 64.9904 68.5454 64.6963C68.5454 63.961 68.5944 63.2747 68.6924 62.5884C68.8394 61.0688 69.0844 59.5492 69.4275 58.0786C72.8086 43.2747 86.0884 32.1963 101.916 32.1963C117.744 32.1963 130.975 43.2747 134.405 58.0786C134.748 59.5492 134.993 61.0688 135.14 62.5884C135.14 62.6865 135.14 62.8335 135.189 62.9316C135.189 63.0786 135.189 63.1767 135.238 63.3237C135.238 63.5688 135.287 63.8139 135.287 64.059C135.287 64.2551 135.287 64.4022 135.287 64.5983C135.287 64.7453 135.287 64.8924 135.287 65.0394C135.287 65.2355 135.287 65.4316 135.287 65.5786C135.287 66.412 134.846 67.1963 134.111 67.5884C133.817 67.7355 133.474 67.8335 133.18 67.8335C133.18 67.8335 133.131 67.8335 133.082 67.8335H133.033H132.984H132.935C132.886 67.8335 132.886 67.8335 132.837 67.8335C132.837 67.8335 132.788 67.8335 132.739 67.8335H132.69H132.641H132.592C132.445 67.7845 132.347 67.7845 132.2 67.7355C132.151 67.7355 132.151 67.6865 132.102 67.6865C132.004 67.6375 131.906 67.5884 131.857 67.5394L127.202 64.6963Z" stroke="#313131" stroke-width="4" stroke-miterlimit="10"/>
<path d="M201.588 83.1275C200.118 69.0099 188.014 58.0785 173.754 58.0785H169.736V53.2746C167.776 55.0393 165.571 56.4609 163.219 57.4413C162.876 57.5883 162.582 57.6864 162.239 57.8334C162.092 57.8824 161.945 57.9315 161.798 57.9805C159.739 58.6668 157.583 59.0099 155.329 59.0099C152.83 59.0099 150.38 58.5687 148.126 57.6864C148.028 57.6373 147.979 57.6374 147.881 57.5883C147.734 57.5393 147.587 57.4903 147.44 57.3923C145.039 56.4119 142.834 54.9903 140.873 53.2256V57.9805H136.904C136.022 57.9805 135.14 58.0295 134.307 58.1275C134.65 59.5981 134.895 61.1177 135.042 62.6373C135.042 62.7354 135.042 62.8824 135.091 62.9805C135.091 63.1275 135.091 63.2256 135.14 63.3726C135.14 63.6177 135.189 63.8628 135.189 64.1079C135.189 64.255 135.189 64.4511 135.189 64.5981C135.189 64.7452 135.189 64.8922 135.189 65.0393C135.238 65.2354 135.238 65.3824 135.238 65.6275C135.238 66.9021 134.209 67.8824 132.984 67.8824H132.935H132.886C132.886 67.9805 132.935 68.0785 132.935 68.1275C133.033 68.6668 133.131 69.255 133.229 69.7942C133.229 69.8432 133.229 69.8922 133.229 69.8922C133.278 70.1373 133.327 70.4315 133.327 70.6766C133.376 70.9707 133.376 71.2158 133.425 71.5099C133.425 71.5589 133.425 71.5589 133.425 71.6079C133.474 71.853 133.474 72.0981 133.474 72.3432V72.3922C133.474 72.6373 133.523 72.8824 133.523 73.1275C133.523 73.2256 133.523 73.2746 133.523 73.3726C133.523 73.6177 133.572 73.9119 133.572 74.157C133.572 74.4511 133.572 74.7452 133.621 75.0393C133.621 75.3334 133.621 75.6275 133.621 75.9217V75.9707C133.621 76.1668 133.621 76.3628 133.621 76.6079C133.621 76.853 133.621 77.0981 133.621 77.3922C133.621 77.4903 133.621 77.5393 133.621 77.6373C133.621 77.7844 133.621 77.9315 133.621 78.0785C133.621 78.2256 133.621 78.4217 133.572 78.5687C133.572 78.7648 133.523 78.9609 133.523 79.157C133.523 79.353 133.474 79.5491 133.474 79.7452C133.474 79.9413 133.425 80.0883 133.425 80.2844C133.376 80.6275 133.327 80.9707 133.278 81.3138C133.278 81.4609 133.229 81.6079 133.229 81.755C133.229 81.9021 133.18 82.0981 133.18 82.2452C133.131 82.3922 133.131 82.5883 133.082 82.7354V82.7844C133.082 82.9315 133.033 83.0295 133.033 83.1766C133.033 83.3236 132.984 83.4217 132.984 83.5687C132.984 83.6177 132.935 83.7158 132.935 83.7648C132.886 83.9119 132.886 84.0589 132.837 84.206C132.837 84.304 132.788 84.402 132.788 84.5001C132.788 84.5981 132.739 84.6962 132.739 84.8432C132.69 84.9903 132.69 85.1864 132.641 85.3334C132.592 85.5295 132.543 85.6766 132.494 85.8726C132.445 85.9707 132.445 86.1177 132.396 86.2158C132.396 86.3138 132.347 86.4119 132.298 86.5099C132.298 86.6079 132.249 86.706 132.2 86.804C132.151 86.9511 132.151 87.0491 132.102 87.1962C132.102 87.2452 132.102 87.2452 132.053 87.2942C132.053 87.2942 132.053 87.2942 132.053 87.3432C132.053 87.3922 132.004 87.4903 132.004 87.5393C131.955 87.6864 131.906 87.7844 131.906 87.9315C131.857 88.0785 131.808 88.2256 131.759 88.3726C131.759 88.4217 131.71 88.4707 131.71 88.5197V88.5687C131.71 88.6177 131.661 88.6668 131.661 88.7648C131.661 88.8138 131.612 88.8628 131.612 88.9609C131.612 89.0099 131.563 89.1079 131.563 89.1569C131.514 89.255 131.514 89.304 131.465 89.402C131.465 89.4511 131.416 89.5001 131.416 89.5491C131.367 89.6962 131.318 89.8432 131.269 89.9413C131.171 90.1373 131.122 90.3334 131.024 90.5295C130.975 90.7256 130.877 90.8726 130.828 91.0687C130.828 91.0687 130.828 91.1177 130.779 91.1177C130.779 91.1668 130.73 91.1668 130.73 91.2158C130.632 91.4609 130.534 91.657 130.436 91.9021C130.387 92.0491 130.338 92.1962 130.24 92.2942C130.191 92.4413 130.093 92.5883 130.044 92.7354C130.044 92.7844 129.995 92.8334 129.946 92.8824C129.946 92.9315 129.897 92.9805 129.897 93.0295C129.848 93.1766 129.75 93.2746 129.701 93.4217C129.652 93.4707 129.652 93.5687 129.603 93.6177C129.554 93.7158 129.554 93.7648 129.505 93.8628C129.456 93.9119 129.456 93.9609 129.407 94.0589C129.407 94.0589 129.407 94.1079 129.358 94.1569C129.162 94.5001 129.015 94.8432 128.819 95.1864C128.672 95.4805 128.476 95.7746 128.28 96.1177C128.231 96.2158 128.133 96.3628 128.084 96.4609C126.271 99.4021 124.115 102 121.566 104.255V112.441H128.231C128.672 112.441 129.064 112.441 129.505 112.49C129.554 112.49 129.603 112.49 129.603 112.49C129.75 112.49 129.848 112.49 129.995 112.49C130.044 112.49 130.044 112.49 130.093 112.49C130.289 112.49 130.485 112.49 130.632 112.539H130.681C130.877 112.539 131.073 112.539 131.22 112.588C131.318 112.588 131.465 112.588 131.563 112.637C131.612 112.637 131.612 112.637 131.661 112.637C131.661 112.637 131.661 112.637 131.71 112.637C131.955 112.637 132.151 112.686 132.396 112.686C132.641 112.686 132.837 112.735 133.082 112.784C133.131 112.784 133.18 112.784 133.229 112.784C133.474 112.833 133.67 112.833 133.915 112.882C141.51 114.01 148.469 117.392 154.006 122.294H199.579C200.853 122.294 201.833 121.265 201.833 119.99V84.0589C201.784 83.6177 201.735 83.3726 201.588 83.1275ZM174.391 76.657C174.391 77.3922 174.048 78.0785 173.46 78.5197C173.068 78.8138 172.578 78.9609 172.137 78.9609C171.892 78.9609 171.647 78.9119 171.451 78.8628L155.378 73.6668L139.305 78.8628C139.06 78.9119 138.864 78.9609 138.619 78.9609C138.129 78.9609 137.688 78.8138 137.296 78.5197C136.708 78.0785 136.365 77.3922 136.365 76.657V60.3824C136.365 59.1079 137.394 58.0785 138.668 58.0785H143.275C143.863 58.0785 144.402 58.2746 144.794 58.6668L145.529 59.353L155.378 68.2256L165.228 59.4021L165.963 58.7158C166.355 58.3236 166.943 58.1275 167.482 58.1275H172.088C173.362 58.1275 174.391 59.157 174.391 60.4315V76.657V76.657Z" stroke="#313131" stroke-width="4" stroke-miterlimit="10"/>
<path d="M127.202 64.7451L131.612 67.5883C131.71 67.6373 131.808 67.6863 131.857 67.7353C131.906 67.7353 131.906 67.7353 131.955 67.7843C132.102 67.8334 132.2 67.8824 132.347 67.8824H132.396H132.445C132.494 67.8824 132.494 67.8824 132.494 67.8824C132.543 67.8824 132.543 67.8824 132.592 67.8824C132.641 67.8824 132.641 67.8824 132.69 67.8824H132.739C132.739 67.9804 132.788 68.0785 132.788 68.1275C132.886 68.6667 132.984 69.2549 133.082 69.7941C133.082 69.8432 133.082 69.8922 133.082 69.8922C133.131 70.1373 133.18 70.4314 133.18 70.6765C133.229 70.9706 133.229 71.2157 133.278 71.5098C133.278 71.5588 133.278 71.5588 133.278 71.6079C133.327 71.853 133.327 72.0981 133.327 72.3432V72.3922C133.327 72.6373 133.376 72.8824 133.376 73.1275C133.376 73.2255 133.376 73.2745 133.376 73.3726C133.376 73.6177 133.425 73.9118 133.425 74.1569C133.425 74.451 133.425 74.7451 133.474 75.0392C133.474 75.3334 133.474 75.6275 133.474 75.9216" stroke="#313131" stroke-width="4" stroke-miterlimit="10"/>
<path d="M75.9941 66.2158L106.18 55.4805L110.688 61.902C111.08 62.4413 111.717 62.7844 112.354 62.8824C113.04 62.9315 113.677 62.6864 114.167 62.2452L117.744 58.6667L127.251 64.7942" stroke="#313131" stroke-width="4" stroke-miterlimit="10"/>
<path d="M174.391 60.3825V76.657C174.391 77.3923 174.048 78.0786 173.46 78.5198C173.068 78.8139 172.578 78.961 172.137 78.961C171.892 78.961 171.647 78.9119 171.451 78.8629L155.378 73.6668L139.305 78.8629C139.06 78.9119 138.864 78.961 138.619 78.961C138.129 78.961 137.688 78.8139 137.296 78.5198C136.708 78.0786 136.365 77.3923 136.365 76.657V60.3825C136.365 59.108 137.394 58.0786 138.668 58.0786H143.275C143.863 58.0786 144.402 58.2747 144.794 58.6668L145.529 59.3531L155.378 68.2257L165.228 59.4021L165.963 58.7159C166.355 58.3237 166.943 58.1276 167.482 58.1276H172.088C173.362 58.0786 174.391 59.108 174.391 60.3825Z" stroke="#313131" stroke-width="4" stroke-miterlimit="10"/>
<path d="M166.992 147.441C165.963 137.392 161.112 128.47 153.908 122.147C148.322 117.245 141.413 113.862 133.817 112.735C133.572 112.686 133.376 112.686 133.131 112.637C133.082 112.637 133.033 112.637 132.984 112.637C132.739 112.588 132.543 112.588 132.298 112.539C132.053 112.539 131.857 112.49 131.612 112.49C131.612 112.49 131.612 112.49 131.563 112.49C131.514 112.49 131.514 112.49 131.465 112.49C131.367 112.49 131.22 112.49 131.122 112.441C130.926 112.441 130.73 112.392 130.583 112.392H130.534C130.338 112.392 130.142 112.392 129.995 112.343C129.946 112.343 129.946 112.343 129.897 112.343C129.75 112.343 129.652 112.343 129.505 112.343C129.456 112.343 129.407 112.343 129.407 112.343C128.966 112.343 128.574 112.343 128.133 112.343H121.419V104.156C119.998 105.431 118.479 106.558 116.862 107.49C116.47 107.735 116.078 107.98 115.637 108.176C115.49 108.225 115.343 108.323 115.245 108.372C115.196 108.421 115.147 108.421 115.098 108.47C111.031 110.578 106.572 111.754 101.818 111.754C97.2611 111.754 92.9489 110.676 89.0287 108.715C88.9307 108.666 88.8327 108.617 88.7837 108.568C88.0976 108.225 87.4606 107.882 86.8236 107.49C85.2065 106.509 83.6874 105.382 82.2173 104.107V112.294H75.504C65.7524 112.294 56.687 116.019 49.7776 122.147C42.6232 128.47 37.7719 137.343 36.7429 147.392C36.5959 147.686 36.5469 147.98 36.5469 148.323V199.696C36.5469 200.97 37.5759 202 38.85 202H164.983C166.257 202 167.286 200.97 167.286 199.696V148.323C167.188 148.029 167.09 147.735 166.992 147.441ZM128.035 129.451C128.035 131.754 127.153 133.911 125.487 135.48C123.87 137.049 121.811 137.882 119.557 137.882C118.675 137.882 117.793 137.735 116.96 137.49L105.151 133.666L116.421 177.441C116.617 178.225 116.372 179.058 115.784 179.647L103.19 192.049C102.749 192.49 102.161 192.686 101.573 192.686C100.985 192.686 100.397 192.49 100.005 192.049L87.4116 179.647C86.8236 179.058 86.5786 178.225 86.8236 177.441L98.5352 133.715L86.6766 137.539C85.8435 137.833 84.9615 137.931 84.0794 137.931C79.4242 137.931 75.651 134.107 75.651 129.451V114.696C75.651 113.421 76.68 112.392 77.9051 112.392H84.4715C85.0105 112.392 85.5985 112.588 85.9905 112.98L86.7746 113.666L101.818 127.147L116.862 113.666L117.646 112.98C118.038 112.588 118.626 112.392 119.165 112.392H125.732C127.006 112.392 128.035 113.421 128.035 114.696V129.451Z" stroke="#313131" stroke-width="4" stroke-miterlimit="10"/>
<path d="M78.2971 100.039C78.1501 99.843 77.9541 99.5979 77.8071 99.4019C77.6601 99.2058 77.4641 98.9607 77.317 98.7646C77.219 98.6666 77.17 98.5685 77.072 98.4215C76.876 98.1764 76.729 97.9313 76.533 97.6372C76.435 97.4901 76.337 97.3921 76.288 97.245C76.19 97.0489 76.043 96.8528 75.945 96.7058C75.896 96.6077 75.798 96.5097 75.749 96.3626C75.651 96.1666 75.504 95.9705 75.4059 95.8234C75.3079 95.6764 75.2099 95.5293 75.1609 95.3823C75.0139 95.1372 74.8669 94.8921 74.7689 94.647C74.6219 94.4019 74.5239 94.2058 74.3769 93.9607V93.9117C74.1809 93.5685 74.0339 93.2254 73.8869 92.8823C73.7889 92.6372 73.6419 92.3921 73.5438 92.147C73.4948 92.0979 73.4948 92.0489 73.4458 91.9509C73.3478 91.7548 73.2988 91.5587 73.2008 91.3626C73.1518 91.2646 73.1028 91.1175 73.0538 90.9705C73.0048 90.8234 72.9558 90.7254 72.9068 90.5783C72.8088 90.3332 72.7108 90.1372 72.6618 89.8921C72.5638 89.5979 72.4658 89.3528 72.3678 89.0587C72.2698 88.8136 72.1718 88.5685 72.1228 88.2744C72.0738 88.1274 72.0248 88.0293 71.9758 87.8823C71.9268 87.7842 71.9268 87.6862 71.8778 87.5881C71.8288 87.3921 71.7307 87.147 71.6817 86.9509C71.6327 86.8528 71.6327 86.7058 71.5837 86.6077C71.4857 86.3136 71.4367 86.0195 71.3387 85.7254C71.2897 85.5783 71.2897 85.4803 71.2407 85.3332C71.1917 85.1862 71.1917 85.0391 71.1427 84.8921C71.0447 84.4509 70.9467 84.0097 70.8487 83.5685C70.8487 83.4705 70.7997 83.3724 70.7997 83.2744C70.7997 83.2254 70.7997 83.1274 70.7507 83.0783C70.7507 82.9313 70.7017 82.8332 70.7017 82.6862C70.6527 82.5391 70.6527 82.3921 70.6527 82.245C70.6037 81.9509 70.5547 81.6077 70.5057 81.3136C70.5057 81.1666 70.4567 80.9705 70.4567 80.8234C70.4567 80.6274 70.4077 80.4803 70.4077 80.2842C70.3587 79.8921 70.3097 79.4999 70.3097 79.1077C70.3097 78.9117 70.2607 78.6666 70.2607 78.4705C70.2607 78.3234 70.2607 78.1274 70.2117 77.9803C70.2117 77.8332 70.2117 77.6862 70.2117 77.5391C70.2117 77.4411 70.2117 77.3921 70.2117 77.294C70.2117 77.0489 70.2117 76.8038 70.2117 76.5097C70.2117 76.3136 70.2117 76.1176 70.2117 75.8725C70.2117 75.6764 70.2117 75.4803 70.2117 75.2842C70.2117 75.2352 70.2117 75.1862 70.2117 75.0881C70.2117 74.843 70.2117 74.5979 70.2117 74.3038C70.2117 73.8136 70.2607 73.5685 70.2607 73.3234C70.2607 73.0293 70.3097 72.7842 70.3097 72.7352C70.3587 72.3921 70.3587 72.147 70.3587 71.9509C70.3587 71.7548 70.4077 71.6077 70.4077 71.4117C70.4567 71.1176 70.4567 70.7744 70.5057 70.4803C70.5057 70.3332 70.5547 70.1862 70.5547 70.0881V70.0391C70.5547 69.8921 70.6037 69.794 70.6037 69.647C70.6037 69.5489 70.6527 69.4019 70.6527 69.3038C70.6527 69.2058 70.7017 69.0587 70.7017 68.9607C70.7017 68.8626 70.7507 68.7646 70.7507 68.7156C70.7997 68.5685 70.7997 68.4215 70.8487 68.2744C70.8977 68.1274 70.8977 67.9803 70.9467 67.8332H70.8977C70.8487 67.8332 70.7997 67.8332 70.7017 67.8332C70.6527 67.8332 70.6037 67.8332 70.5057 67.8332C70.4567 67.8332 70.4077 67.8332 70.3587 67.7842C70.3097 67.7842 70.2607 67.7352 70.2117 67.7352C70.1627 67.7352 70.1137 67.6862 70.0647 67.6862C70.0157 67.6862 69.9667 67.6372 69.9177 67.6372H69.8687C69.8687 67.6372 69.8197 67.6372 69.8197 67.5881C69.7706 67.5881 69.7216 67.5391 69.7216 67.5391C69.6726 67.5391 69.6726 67.4901 69.6236 67.4901C69.0356 67.0489 68.6436 66.3626 68.6436 65.6274C68.6436 65.3332 68.6436 65.0391 68.6436 64.745C68.6436 64.0097 68.6926 63.3234 68.7416 62.6372C68.8886 61.1176 69.1336 59.5979 69.4766 58.1274C68.6436 58.0293 67.7615 57.9803 66.8305 57.9803H62.8123V53.2744C60.6072 55.2842 58.059 56.8038 55.3149 57.7842C55.2659 57.7842 55.1679 57.8332 55.1189 57.8332C54.9718 57.8823 54.8248 57.9313 54.6778 57.9803C54.5798 58.0293 54.4818 58.0293 54.3838 58.0783C54.3838 58.0783 54.3838 58.0783 54.3348 58.0783C52.4237 58.6666 50.4636 58.9607 48.4055 58.9607C46.2984 58.9607 44.2403 58.6175 42.2802 58.0293C42.0842 57.9803 41.8881 57.8823 41.6921 57.8332C41.6431 57.8332 41.5941 57.7842 41.5451 57.7842C38.801 56.8038 36.2528 55.2842 34.0477 53.2744V58.0293H30.0295C15.8187 58.0293 3.76409 68.9607 2.19601 83.0293C2.09801 83.2744 2 83.6175 2 83.9117V119.843C2 121.118 3.02906 122.147 4.30312 122.147H49.8756C56.7849 116.02 65.8504 112.294 75.602 112.294H82.3153V104.108C80.7962 102.882 79.4732 101.51 78.2971 100.039ZM67.3205 76.6568C67.3205 77.3921 66.9775 78.0783 66.3895 78.5195C65.9974 78.8136 65.5074 78.9607 65.0174 78.9607C64.7724 78.9607 64.5764 78.9117 64.3314 78.8626L51.1006 74.5979L55.3149 104.402C55.3639 104.892 55.3149 105.382 55.0209 105.823L50.1206 114.5C49.7286 115.235 48.9445 115.676 48.1115 115.676C47.2784 115.676 46.5434 115.235 46.1514 114.549L41.2511 105.872C41.0061 105.431 40.9081 104.892 40.9571 104.402L45.4653 74.5979L32.2346 78.8626C31.9896 78.9117 31.7446 78.9607 31.5486 78.9607C31.0586 78.9607 30.6175 78.8136 30.2255 78.5195C29.6375 78.0783 29.2945 77.3921 29.2945 76.6568V60.3823C29.2945 59.1077 30.3235 58.0783 31.5486 58.0783H36.1548C36.6939 58.0783 37.2819 58.2744 37.6739 58.6666L38.458 59.3528L48.3075 68.1764L58.157 59.3528L58.9411 58.6666C59.3821 58.2744 59.9211 58.0783 60.4601 58.0783H65.0664C66.3405 58.0783 67.3695 59.1077 67.3695 60.3823V76.6568H67.3205Z" stroke="#313131" stroke-width="4" stroke-miterlimit="10"/>
<path d="M101.818 127.196L101.034 127.932C101.279 127.834 101.573 127.785 101.867 127.785C102.112 127.785 102.357 127.834 102.553 127.883L101.818 127.196Z" stroke="#313131" stroke-width="4" stroke-miterlimit="10"/>
<path d="M101.818 127.196L101.034 127.932C101.279 127.834 101.573 127.785 101.867 127.785C102.112 127.785 102.357 127.834 102.553 127.883L101.818 127.196Z" stroke="#313131" stroke-width="4" stroke-miterlimit="10"/>
<path d="M115.833 179.647L103.239 192.049C102.798 192.49 102.21 192.686 101.622 192.686C101.034 192.686 100.446 192.49 100.054 192.049L87.4116 179.647C86.8236 179.059 86.5786 178.225 86.8236 177.441L98.5352 133.716L99.6622 129.451C99.8583 128.765 100.348 128.176 101.034 127.931C101.279 127.833 101.573 127.784 101.867 127.784C102.112 127.784 102.357 127.833 102.553 127.882C103.288 128.127 103.876 128.716 104.072 129.5L105.151 133.765L116.421 177.539C116.617 178.225 116.421 179.059 115.833 179.647Z" stroke="#313131" stroke-width="4" stroke-miterlimit="10"/>
<path d="M128.035 114.696V129.451C128.035 131.755 127.153 133.912 125.487 135.481C123.87 137.049 121.811 137.882 119.557 137.882C118.675 137.882 117.793 137.735 116.96 137.49L105.151 133.667L104.072 129.402C103.876 128.618 103.288 128.03 102.553 127.784L101.818 127.098L116.862 113.618L117.646 112.931C118.038 112.539 118.626 112.343 119.165 112.343H125.732C127.006 112.392 128.035 113.422 128.035 114.696Z" stroke="#313131" stroke-width="4" stroke-miterlimit="10"/>
<path d="M132.445 67.8335L70.7017 68.8139" stroke="#313131" stroke-width="4" stroke-miterlimit="10"/>
</svg>
