<svg width="38" height="38" viewBox="0 0 38 38" fill="none" xmlns="http://www.w3.org/2000/svg">
<path d="M19 38C29.4934 38 38 29.4934 38 19C38 8.50659 29.4934 0 19 0C8.50659 0 0 8.50659 0 19C0 29.4934 8.50659 38 19 38Z" fill="#005688"/>
<path d="M35.5982 31.5809H35.399L35.5994 31.6416L35.5982 31.5809Z" fill="#8E4343" stroke="black" stroke-width="0.28" stroke-miterlimit="10"/>
<path d="M34.4278 31.2506V31.254C34.3936 31.2607 34.4278 31.2506 34.4278 31.2506Z" fill="#8E4343" stroke="black" stroke-width="0.28" stroke-miterlimit="10"/>
<path d="M35.0177 28.472H35.0038C35.0059 28.4707 35.0083 28.47 35.0107 28.47C35.0132 28.47 35.0156 28.4707 35.0177 28.472V28.472Z" fill="#8E4343" stroke="black" stroke-width="0.28" stroke-miterlimit="10"/>
<path d="M34.4278 31.2506V31.254C34.3936 31.2607 34.4278 31.2506 34.4278 31.2506Z" fill="#8E4343" stroke="black" stroke-width="0.28" stroke-miterlimit="10"/>
<path d="M17.9361 4.58411C17.9362 4.7121 17.9712 4.83766 18.0372 4.94728C18.1033 5.0569 18.198 5.14646 18.3111 5.20632C18.0888 5.29743 17.8593 5.49274 17.6387 5.84709H17.0903V6.55578C17.0903 6.55578 15.6561 7.29821 15.2452 8.27265L12.637 12.505C12.637 12.505 11.8777 13.8932 11.3192 14.2126L9.89547 14.7424L10.7261 17.7282L11.8469 18.4761L12.2949 30.0665H6.97973V31.1844C5.36319 29.594 4.07993 27.6974 3.20497 25.6053C2.33001 23.5132 1.88091 21.2677 1.88393 19C1.88393 9.74993 9.2239 2.21338 18.3951 1.89531V3.92351C18.2603 3.97367 18.1442 4.06384 18.0621 4.18191C17.9801 4.29999 17.9361 4.44033 17.9361 4.58411V4.58411Z" fill="#8E4343" stroke="black" stroke-width="0.28" stroke-miterlimit="10"/>
<path d="M16.0248 18.5955C15.6873 16.0349 18.4917 15.8712 18.4917 15.8712L18.6022 18.4967L16.0248 18.5955Z" fill="#8E4343" stroke="black" stroke-width="0.28" stroke-miterlimit="10"/>
<path d="M18.7271 3.14353V3.14733C18.6929 3.15197 18.7271 3.14353 18.7271 3.14353Z" fill="#8E4343" stroke="black" stroke-width="0.28" stroke-miterlimit="10"/>
<path d="M18.8241 22.0317L16.11 22.1414L16.0248 19.6467L18.6689 19.5475L18.8241 22.0317Z" fill="#8E4343" stroke="black" stroke-width="0.28" stroke-miterlimit="10"/>
<path d="M18.8933 25.5879L16.2539 25.7477L16.1763 23.2369L18.8241 23.0733L18.8933 25.5879Z" fill="#8E4343" stroke="black" stroke-width="0.28" stroke-miterlimit="10"/>
<path d="M18.9292 26.6736L19.0237 29.2106L16.3982 29.343L16.3206 26.8432L18.9292 26.6736Z" fill="#8E4343" stroke="black" stroke-width="0.28" stroke-miterlimit="10"/>
<path d="M22.369 18.3318L19.7537 18.4314L19.6769 15.778C22.6681 15.9501 22.369 18.3318 22.369 18.3318Z" fill="#8E4343" stroke="black" stroke-width="0.28" stroke-miterlimit="10"/>
<path d="M22.524 21.7824L19.9095 21.9545L19.8323 19.4286L22.4021 19.3067L22.524 21.7824Z" fill="#8E4343" stroke="black" stroke-width="0.28" stroke-miterlimit="10"/>
<path d="M22.7125 25.3997L20.0313 25.4769L19.9541 23.0176L22.6016 22.8737L22.7125 25.3997Z" fill="#8E4343" stroke="black" stroke-width="0.28" stroke-miterlimit="10"/>
<path d="M22.7345 26.4189L22.8341 28.9554L20.1963 29.0996L20.1812 26.6192L22.7345 26.4189Z" fill="#8E4343" stroke="black" stroke-width="0.28" stroke-miterlimit="10"/>
<path d="M36.1153 19C36.1183 21.2677 35.6692 23.5133 34.7941 25.6054C33.9191 27.6975 32.6357 29.5941 31.019 31.1844V30.0665H26.9437L26.2873 17.9062L27.5271 16.7879L27.8915 13.9974C27.8915 13.9974 25.9034 13.7393 24.6927 11.4305C24.6556 11.3601 24.6202 11.288 24.5843 11.2141C23.3892 8.70505 20.3972 6.21241 20.2309 6.42839L20.1976 5.74712H19.71C19.71 5.74712 19.4046 5.35734 18.9768 5.20253C19.0949 5.13816 19.1921 5.04133 19.2569 4.92349C19.3217 4.80565 19.3514 4.67172 19.3426 4.53753C19.3337 4.40334 19.2866 4.27449 19.2068 4.16621C19.1271 4.05792 19.018 3.97474 18.8925 3.92647V1.88477H19.0021C28.4513 1.88477 36.1153 9.54746 36.1153 19Z" fill="#8E4343" stroke="black" stroke-width="0.28" stroke-miterlimit="10"/>
<path d="M26.9436 30.0665L26.2873 17.9062L27.527 16.7879L27.8915 13.9974C27.8915 13.9974 25.9034 13.7393 24.6927 11.4305C24.6556 11.3601 24.6202 11.288 24.5843 11.2141C23.3892 8.70505 20.3971 6.21241 20.2309 6.42839L20.1976 5.74712H19.71C19.71 5.74712 19.4046 5.35734 18.9768 5.20253C19.0949 5.13816 19.1921 5.04133 19.2569 4.92349C19.3217 4.80565 19.3514 4.67172 19.3425 4.53753C19.3337 4.40334 19.2866 4.27449 19.2068 4.16621C19.1271 4.05792 19.018 3.97474 18.8924 3.92647V1.88477C18.726 1.88477 18.5602 1.88829 18.3951 1.89532V3.92352C18.2676 3.97071 18.1565 4.05381 18.0752 4.16278C17.9939 4.27174 17.9459 4.40191 17.937 4.53757C17.9281 4.67322 17.9586 4.80856 18.0249 4.92723C18.0913 5.0459 18.1905 5.14284 18.3107 5.20633C18.0884 5.29744 17.8589 5.49275 17.6383 5.8471H17.0899V6.55578C17.0899 6.55578 15.6557 7.29822 15.2448 8.27266L12.637 12.505C12.637 12.505 11.8777 13.8932 11.3192 14.2126L9.89548 14.7424L10.7261 17.7282L11.8469 18.4761L12.2949 30.0665H6.97974V31.1844C10.1823 34.3439 14.5002 36.1153 18.999 36.1153C23.4977 36.1153 27.8156 34.3439 31.0182 31.1844V30.0665H26.9436ZM18.7271 3.14354V3.14734C18.6929 3.15198 18.7271 3.14354 18.7271 3.14354ZM18.4917 15.8725L18.6022 18.498L16.0248 18.5955C15.6852 16.0362 18.4917 15.8725 18.4917 15.8725ZM16.0248 19.6463L18.6689 19.5475L18.8241 22.0318L16.11 22.1414L16.0248 19.6463ZM16.1758 23.2357L18.8233 23.0716L18.8924 25.5866L16.253 25.7465L16.1758 23.2357ZM16.3973 29.3418L16.3192 26.8415L18.9283 26.6728L19.0228 29.2097L16.3973 29.3418ZM19.6771 15.778C22.6683 15.9501 22.3692 18.3318 22.3692 18.3318L19.7538 18.4314L19.6771 15.778ZM19.8323 19.4282L22.4021 19.3067L22.524 21.7824L19.9086 21.9541L19.8323 19.4282ZM19.9542 23.0176L22.6017 22.8733L22.7143 25.3993L20.0339 25.4769L19.9542 23.0176ZM20.1963 29.0992L20.1833 26.6188L22.7366 26.4184L22.8362 28.9554L20.1963 29.0992Z" fill="white" stroke="black" stroke-width="0.28" stroke-miterlimit="10"/>
<path d="M16.0248 18.5955C15.6873 16.0349 18.4917 15.8712 18.4917 15.8712L18.6022 18.4967L16.0248 18.5955Z" fill="#005688"/>
<path d="M18.7271 3.14353V3.14733C18.6929 3.15197 18.7271 3.14353 18.7271 3.14353Z" fill="#8E4343" stroke="black" stroke-width="0.28" stroke-miterlimit="10"/>
<path d="M18.8241 22.0317L16.11 22.1414L16.0248 19.6467L18.6689 19.5475L18.8241 22.0317Z" fill="#005688"/>
<path d="M18.8933 25.5879L16.2539 25.7477L16.1763 23.2369L18.8241 23.0733L18.8933 25.5879Z" fill="#005688"/>
<path d="M18.9292 26.6736L19.0237 29.2106L16.3982 29.343L16.3206 26.8432L18.9292 26.6736Z" fill="#005688"/>
<path d="M22.369 18.3318L19.7537 18.4314L19.6769 15.778C22.6681 15.9501 22.369 18.3318 22.369 18.3318Z" fill="#005688"/>
<path d="M22.524 21.7824L19.9095 21.9545L19.8323 19.4286L22.4021 19.3067L22.524 21.7824Z" fill="#005688"/>
<path d="M22.7125 25.3997L20.0313 25.4769L19.9541 23.0176L22.6016 22.8737L22.7125 25.3997Z" fill="#005688"/>
<path d="M22.7345 26.4189L22.8341 28.9554L20.1963 29.0996L20.1812 26.6192L22.7345 26.4189Z" fill="#005688"/>
<path d="M19.0022 1.88477H18.8955V3.92647C19.021 3.97474 19.1301 4.05792 19.2099 4.16621C19.2896 4.27449 19.3367 4.40334 19.3456 4.53753C19.3545 4.67172 19.3247 4.80565 19.2599 4.92349C19.1951 5.04133 19.0979 5.13816 18.9799 5.20253C19.4076 5.35734 19.713 5.74712 19.713 5.74712H20.2007L20.234 6.42839C20.4002 6.21241 23.3914 8.70631 24.5873 11.2141C24.6232 11.288 24.6586 11.3601 24.6958 11.4305C25.9035 13.7393 27.8916 13.9974 27.8916 13.9974L27.5271 16.7879L26.2874 17.9062L26.9437 30.0665H31.0191V31.1844C32.6358 29.5941 33.9192 27.6975 34.7942 25.6054C35.6692 23.5133 36.1184 21.2677 36.1153 19C36.1153 9.54746 28.4514 1.88477 19.0022 1.88477ZM18.3981 3.92352V1.89532C9.22527 2.21338 1.88698 9.74994 1.88698 19C1.88358 21.2675 2.33221 23.5129 3.20666 25.6049C4.08111 27.697 5.36383 29.5938 6.97983 31.1844V30.0665H12.295L11.847 18.4761L10.7262 17.7282L9.89558 14.7424L11.3193 14.2126C11.8786 13.8932 12.6371 12.505 12.6371 12.505L15.2453 8.27266C15.6545 7.29822 17.0904 6.55578 17.0904 6.55578V5.8471H17.6388C17.8595 5.49275 18.0889 5.29871 18.3112 5.20633C18.191 5.14284 18.0918 5.0459 18.0255 4.92723C17.9591 4.80856 17.9286 4.67322 17.9375 4.53757C17.9464 4.40191 17.9944 4.27174 18.0757 4.16278C18.157 4.05381 18.2681 3.97071 18.3956 3.92352H18.3981Z" fill="#005688"/>
<path d="M19.0021 0.937325C9.02651 0.937325 0.939453 9.02438 0.939453 19C0.939453 24.3603 3.27433 29.1756 6.9827 32.4832C10.2904 35.435 14.5687 37.0663 19.0019 37.0663C23.4352 37.0663 27.7134 35.435 31.0211 32.4832C34.7299 29.1756 37.0648 24.3603 37.0648 19C37.0627 9.02438 28.9756 0.937325 19.0021 0.937325ZM31.0211 31.1831C28.6185 33.5538 25.5685 35.1612 22.2548 35.8031C18.941 36.4449 15.5115 36.0927 12.3974 34.7906C9.28334 33.4884 6.62381 31.2946 4.75329 28.485C2.88276 25.6753 1.88476 22.3753 1.88479 19C1.88479 9.74994 9.22477 2.21338 18.396 1.89532C18.5607 1.88941 18.7265 1.8859 18.8933 1.88477H19.0021C28.4547 1.88477 36.1174 9.54746 36.1174 19C36.1201 21.2679 35.6707 23.5135 34.7953 25.6056C33.9198 27.6977 32.6361 29.5943 31.019 31.1844L31.0211 31.1831Z" fill="white" stroke="black" stroke-width="0.28" stroke-miterlimit="10"/>
</svg>
